<?xml version="1.0" encoding="utf-8"?>
<!-- Generator: Adobe Illustrator 23.0.5, SVG Export Plug-In . SVG Version: 6.00 Build 0)  -->
<svg version="1.1" id="Capa_1" xmlns="http://www.w3.org/2000/svg" xmlns:xlink="http://www.w3.org/1999/xlink" x="0px" y="0px"
	 viewBox="0 0 50 50" style="enable-background:new 0 0 50 50;" xml:space="preserve">
<style type="text/css">
	.st0{fill:#E95B0C;}
</style>
<g>
	<path class="st0" d="M18.8,46.5c-0.3-0.2-0.5-0.5-0.5-0.9c-0.3-1.3-0.7-2.6-1-3.9c-0.1-0.3-0.2-0.4-0.5-0.3
		c-1.4,0.4-2.7,0.7-4.1,1.1c-0.5,0.1-0.9,0-1.1-0.4c-0.2-0.4-0.1-0.7,0.1-1.1c1.1-1.8,2.1-3.7,3.2-5.5c0.2-0.4,0.4-0.8,0.7-1.1
		c0.2-0.3,0.1-0.3-0.2-0.4c-1.9-0.2-3.3-1.5-3.7-3.4c0-0.2-0.1-0.4,0-0.7c0-1.1-0.4-1.9-1.4-2.4c-1.1-0.6-1.8-1.6-2-2.8
		c-0.2-1,0-1.9,0.5-2.7c0.6-1,0.6-1.9,0-2.8c-1.2-2-0.5-4.4,1.5-5.6c0.7-0.4,1.2-0.9,1.3-1.7c0-0.2,0-0.4,0-0.7
		c0-2.3,1.8-4.1,4.1-4.1c1.1,0,1.9-0.4,2.5-1.4c1.2-2,3.6-2.6,5.6-1.5c0.9,0.5,1.8,0.5,2.7,0c2-1.2,4.5-0.6,5.7,1.5
		c0.6,1,1.3,1.4,2.4,1.4c2.3,0,4.1,1.8,4.1,4.1c0,1.1,0.4,1.9,1.4,2.4c2.1,1.2,2.7,3.6,1.5,5.7c-0.5,0.9-0.5,1.7,0,2.6
		c1.2,2.1,0.6,4.5-1.5,5.7c-0.9,0.5-1.3,1.3-1.3,2.3c0,2.2-1.5,3.9-3.7,4.1c-0.4,0-0.3,0.1-0.2,0.4c1.3,2.2,2.5,4.3,3.7,6.5
		c0.1,0.2,0.2,0.3,0.2,0.5c0.2,0.6-0.2,1.1-0.8,1.2c-0.2,0-0.4-0.1-0.7-0.1c-1.3-0.3-2.6-0.7-3.8-1c-0.3-0.1-0.4,0-0.5,0.3
		c-0.3,1.3-0.7,2.7-1.1,4c-0.1,0.4-0.3,0.7-0.6,0.9c-0.2,0-0.4,0-0.7,0c-0.2-0.2-0.4-0.4-0.6-0.7c-1.5-2.7-3.1-5.4-4.6-8
		c-0.2-0.4-0.3-0.4-0.5,0c-1.5,2.7-3.1,5.3-4.6,8c-0.1,0.3-0.3,0.5-0.6,0.7C19.3,46.5,19,46.5,18.8,46.5z M28.4,35.7
		c0.9,0,1.6-0.4,2.1-1.2c0.9-1.6,2.2-2.3,4-2.3c1.3,0,2.3-1,2.3-2.3c0-1.8,0.7-3.1,2.3-4c1.2-0.7,1.6-2,0.9-3.2
		c-0.9-1.5-0.9-3,0-4.6c0.7-1.2,0.3-2.5-0.9-3.2c-1.6-0.9-2.3-2.2-2.3-4c0-1.3-1-2.2-2.3-2.3c-1.8,0-3.1-0.7-4-2.3
		c-0.7-1.2-2-1.5-3.3-0.8c-1.5,0.9-3,0.9-4.5,0c-1.2-0.7-2.6-0.4-3.3,0.8c-0.9,1.6-2.2,2.3-4,2.3c-1.3,0-2.2,1-2.3,2.3
		c0,1.8-0.7,3.1-2.3,4c-1.2,0.7-1.5,2-0.8,3.3c0.9,1.5,0.9,3,0,4.5C9.4,24,9.8,25.3,11,26c1.5,0.9,2.2,2.2,2.2,3.9
		c0,1.5,0.9,2.4,2.4,2.4c1.7,0,3,0.7,3.8,2.2c0.7,1.3,2,1.6,3.3,0.9c1.5-0.8,3-0.9,4.5,0C27.6,35.6,28,35.7,28.4,35.7z M23,37.2
		c-0.1,0-0.2,0-0.3,0.1c-2,0.5-3.8-0.2-4.8-2c-0.1-0.2-0.2-0.3-0.3-0.5c-0.2-0.3-0.3-0.3-0.5,0c-0.8,1.4-1.6,2.7-2.3,4.1
		c-0.2,0.4-0.4,0.8-0.7,1.2c0.2,0.1,0.4,0,0.5,0c0.9-0.2,1.7-0.5,2.5-0.7c0.9-0.2,1.2,0,1.5,0.8c0.2,0.9,0.5,1.8,0.7,2.6
		c0,0.1,0,0.3,0.2,0.4C20.7,41.3,21.8,39.3,23,37.2z M30.5,43.4c0.3-1.1,0.6-2.1,0.8-3.2c0.2-0.8,0.6-1,1.4-0.8
		c0.9,0.2,1.9,0.5,2.8,0.7c0.1,0,0.2,0.1,0.2,0c0.1-0.1,0-0.2,0-0.2c-1-1.7-2-3.4-3-5.1c-0.1-0.2-0.2-0.2-0.4,0
		c-0.2,0.2-0.3,0.5-0.5,0.7c-0.6,1-1.5,1.7-2.7,1.9c-0.8,0.2-1.5,0.1-2.3-0.2C28.2,39.3,29.3,41.3,30.5,43.4z"/>
	<path class="st0" d="M12.6,20.6c0-2,0.4-3.8,1.2-5.5c0.2-0.5,0.6-0.7,1.1-0.6c0.6,0.1,0.9,0.7,0.6,1.3c-0.5,1-0.8,2-0.9,3.1
		c-0.4,3.1,0.3,5.9,2.3,8.4c2,2.4,4.5,3.6,7.5,3.9c5.7,0.4,10.5-3.8,11.3-9.1c0.9-5.9-3.3-11.4-9.3-12.2c-2-0.3-3.9,0-5.8,0.9
		c-0.1,0-0.2,0.1-0.2,0.1c-0.5,0.2-1,0-1.2-0.4c-0.2-0.5,0-0.9,0.5-1.2c2.2-1,4.5-1.4,6.9-1.1c3.9,0.5,6.9,2.4,9,5.6
		c3.7,5.7,2,13.5-3.7,17.2c-6.3,4-14.6,1.8-18-4.9C13,24.3,12.6,22.5,12.6,20.6z"/>
	<path class="st0" d="M17.6,22.1c0-1.2-0.1-2.3,0-3.5c0.1-0.9,0.7-1.5,1.7-1.5c0.8,0,1.6,0,2.3,0c0.2,0,0.4,0,0.5,0.1
		c0.4,0.2,0.7,0,1-0.2c0.7-0.6,1.3-1.3,1.8-2.1c1-1.5,3.1-1.4,3.9,0.1c0.3,0.6,0.4,1.2,0.2,1.8C29,17,29,17.2,28.9,17.4
		C28.7,18,28.7,18,29.4,18c1.6,0,2.6,0.8,3,2.1c0.1,0.3,0.1,0.5,0.1,0.8c0,1.3,0.1,2.6,0,3.9c-0.1,1.3-1.3,2.3-2.7,2.4
		c-1.7,0-3.4,0.1-5,0c-0.5,0-1-0.2-1.5-0.4c-0.2-0.1-0.3-0.1-0.5,0.1c-0.3,0.3-0.8,0.4-1.2,0.4c-0.7,0-1.4,0-2.1,0
		c-1.1,0-1.7-0.6-1.8-1.6C17.5,24.4,17.6,23.3,17.6,22.1z M23.3,22c0,0.8,0,1.7,0,2.5c0,0.4,0.1,0.5,0.4,0.6c0.5,0.2,1,0.3,1.6,0.3
		c1.4,0,2.8,0,4.2,0c0.8,0,1.2-0.4,1.2-1.2c0-1,0-2.1,0-3.1c0-0.9-0.4-1.2-1.2-1.2c-0.8,0-1.6,0-2.4,0c-0.5,0-0.8-0.3-0.9-0.7
		c-0.1-0.4,0.1-0.8,0.4-1c0.1-0.1,0.2-0.2,0.3-0.3c0.2-0.5,0.4-1.1,0.5-1.6c0.1-0.3,0-0.5-0.3-0.6c-0.3-0.1-0.5,0-0.7,0.2
		c-0.1,0.1-0.1,0.2-0.2,0.2c-0.7,1.1-1.6,2-2.7,2.8c-0.2,0.2-0.3,0.3-0.3,0.6C23.3,20.2,23.3,21.1,23.3,22z M19.3,22.2
		c0,1,0,1.9,0,2.9c0,0.3,0.1,0.4,0.4,0.4c0.5,0,0.9,0,1.4,0c0.3,0,0.4-0.1,0.4-0.4c0-1.9,0-3.8,0-5.7c0-0.3-0.1-0.4-0.4-0.4
		c-0.4,0-0.9,0-1.3,0c-0.3,0-0.4,0.1-0.4,0.4C19.3,20.3,19.3,21.2,19.3,22.2z"/>
	<path class="st0" d="M16.8,13.2c-0.5,0-0.9-0.4-0.9-0.9c0-0.5,0.4-0.9,0.9-0.9c0.5,0,0.9,0.4,0.9,0.9
		C17.7,12.8,17.2,13.2,16.8,13.2z"/>
</g>
</svg>
