<?xml version="1.0" encoding="utf-8"?>
<!-- Generator: Adobe Illustrator 23.0.5, SVG Export Plug-In . SVG Version: 6.00 Build 0)  -->
<svg version="1.1" id="Capa_1" xmlns="http://www.w3.org/2000/svg" xmlns:xlink="http://www.w3.org/1999/xlink" x="0px" y="0px"
	 viewBox="0 0 50 50" style="enable-background:new 0 0 50 50;" xml:space="preserve">
<style type="text/css">
	.st0{fill:#E95B0C;}
</style>
<g>
	<path class="st0" d="M113.9-1.7l-3.7-12.3c-1-3.5-4.2-5.8-7.8-5.8h-4.9c-3.6,0-6.7,2.3-7.8,5.8L86.1-1.7c-0.7,2.2-2.6,3.8-4.8,4.1
		c3.8,5.7,10.2,9.7,17.6,10.1c8.3,0.4,15.7-3.6,20-10.1C116.5,2.1,114.6,0.5,113.9-1.7"/>
	<path class="st0" d="M83.4-2.5l3.7-12.3c1.4-4.6,5.6-7.7,10.4-7.7h4.9c4.8,0,9,3.1,10.4,7.7l3.7,12.3c0.4,1.3,1.6,2.2,3,2.2h0.8
		c1.2-2.6,2-5.5,2.2-8.5c0.7-12.4-8.8-23-21.3-23.7c-12.4-0.7-23,8.8-23.7,21.3c-0.2,3.9,0.6,7.6,2.2,10.9h0.8
		C81.8-0.3,83-1.2,83.4-2.5"/>
</g>
<g>
	<path class="st0" d="M24.8,37.3c-6.4,0-11.5-5.2-11.5-11.5V5.8C7.2,9.5,2.9,16.1,2.5,23.8c-0.7,12.4,8.8,23,21.3,23.7
		c8.3,0.5,15.8-3.7,20.1-10.2H24.8z"/>
	<path class="st0" d="M17.5,25.7c0,4,3.3,7.3,7.3,7.3H46c0.8-2.1,1.3-4.4,1.4-6.8c0.7-12.4-8.8-23-21.3-23.7c-3-0.2-6,0.3-8.7,1.2
		V25.7z"/>
</g>
</svg>
