<?xml version="1.0" encoding="utf-8"?>
<!-- Generator: Adobe Illustrator 23.0.5, SVG Export Plug-In . SVG Version: 6.00 Build 0)  -->
<svg version="1.1" id="Capa_1" xmlns="http://www.w3.org/2000/svg" xmlns:xlink="http://www.w3.org/1999/xlink" x="0px" y="0px"
	 viewBox="0 0 50 50" style="enable-background:new 0 0 50 50;" xml:space="preserve">
<style type="text/css">
	.st0{fill:#E95B0C;}
</style>
<g>
	<path class="st0" d="M41.1,2.4c0.3,0.3,0.4,0.6,0.4,1c0,0.3,0.1,0.4,0.4,0.5c0.9,0.2,1.5,0.8,1.6,1.6c0.1,0.3,0.2,0.4,0.5,0.4
		c0.2,0,0.3,0,0.5,0C44.8,6,45,6.2,45,6.6c0,0.4-0.3,0.6-0.6,0.7c-0.3,0.1-0.6-0.1-0.7,0.1c-0.2,0.2-0.1,0.6-0.1,0.9
		c0,0.1,0,0.3,0,0.4c0,0.2,0.1,0.3,0.4,0.3c0.1,0,0.3,0,0.4,0C44.8,9.1,45,9.4,45,9.8c0,0.4-0.2,0.6-0.6,0.7c-0.2,0-0.5-0.1-0.7,0.1
		c-0.2,0.2-0.1,0.6-0.1,0.9c0,0.1,0,0.2,0,0.3c0,0.3,0.1,0.5,0.5,0.5c0.1,0,0.2,0,0.4,0c0.4,0.1,0.6,0.2,0.6,0.6
		c0,0.4-0.2,0.8-0.5,0.7c-0.8,0-1,0.4-1.2,1c-0.2,0.6-0.8,1-1.4,1.1c-0.3,0.1-0.4,0.2-0.4,0.5c0,0.2,0,0.4,0,0.5
		c-0.1,0.3-0.3,0.5-0.7,0.5c-0.4,0-0.6-0.2-0.7-0.6c0-0.1,0-0.1,0-0.2c-0.1-0.8-0.1-0.8-0.8-0.8c-0.1,0-0.1,0-0.2,0
		c-0.7,0-0.7-0.1-0.7,0.7c0,0.5-0.3,0.8-0.7,0.8c-0.4,0-0.7-0.3-0.7-0.8c0-0.8-0.1-0.7-0.7-0.7c-0.1,0-0.1,0-0.2,0
		c-0.8,0-0.8,0-0.8,0.8c0,0.4-0.3,0.7-0.6,0.7c-0.4,0-0.7-0.2-0.7-0.6c0-0.6-0.3-0.9-0.9-1.1c-0.7-0.2-1-0.8-1.2-1.4
		c-0.1-0.3-0.2-0.5-0.5-0.4c-0.1,0-0.1,0-0.2,0c-0.5-0.1-0.8-0.3-0.8-0.8c0-0.4,0.3-0.7,0.9-0.7c0.6,0,0.6,0,0.6-0.6
		c0,0,0-0.1,0-0.1c0-0.3,0.1-0.6-0.1-0.8c-0.1-0.3-0.5-0.1-0.8-0.2c-0.4-0.1-0.7-0.4-0.7-0.8c0-0.4,0.3-0.6,0.7-0.7
		C31.6,9,31.6,9,31.6,8.2c0,0,0-0.1,0-0.1c0-0.8,0-0.8-0.7-0.8c-0.5,0-0.7-0.3-0.7-0.7c0-0.4,0.3-0.7,0.7-0.7c0.1,0,0.2,0,0.3,0
		c0.4,0,0.5-0.1,0.6-0.5c0.2-0.9,0.8-1.4,1.6-1.6c0.3-0.1,0.4-0.2,0.4-0.5c0-0.4,0.1-0.8,0.4-1c0.2,0,0.4,0,0.6,0
		c0.4,0.3,0.4,0.6,0.4,1.1c0,0.3,0.1,0.4,0.4,0.4c0.3,0,0.6,0,0.9,0c0.3,0,0.5-0.1,0.5-0.5c0-0.4,0-0.8,0.4-1c0.2,0,0.4,0,0.6,0
		c0.2,0.2,0.3,0.4,0.4,0.6c0,0.3-0.1,0.6,0.1,0.8c0.2,0.1,0.5,0,0.8,0.1c0.1,0,0.2,0,0.4,0c0.3,0,0.5-0.1,0.4-0.4
		c0-0.4,0.1-0.8,0.4-1C40.6,2.4,40.8,2.4,41.1,2.4z M33,9.8c0,1.2,0,2.4,0,3.7c0,0.7,0.2,0.8,0.8,0.8c2.4,0,4.9,0,7.3,0
		c0.7,0,0.9-0.2,0.9-0.9c0-2.4,0-4.8,0-7.2c0-0.7-0.3-1-1-1c-2.4,0-4.8,0-7.2,0c-0.7,0-0.9,0.2-0.9,0.9C33,7.3,33,8.6,33,9.8z"/>
	<path class="st0" d="M12.8,2.4c0.7,0.3,1.1,0.8,1,1.6c0,0.4,0,0.8,0,1.2c0,0.8-0.5,1.3-1.3,1.3c-0.5,0-1,0-1.5,0
		c-0.7,0-1.2-0.5-1.3-1.2c-0.1-0.5,0-0.9,0-1.4c0-0.8,0.3-1.3,1.1-1.6C11.4,2.4,12.1,2.4,12.8,2.4z M11.1,4.4c0,0.7,0,0.7,0.6,0.7
		c0.7,0,0.7,0,0.7-0.6c0-0.7,0-0.7-0.6-0.7C11.1,3.8,11.1,3.8,11.1,4.4z"/>
	<path class="st0" d="M22.1,32.9c0-1.2,0-2.4,0-3.5c0-0.3-0.1-0.5-0.5-0.6c-0.6-0.1-1-0.6-1-1.2c0-0.7,0-1.3,0-2
		c0-0.7,0.6-1.2,1.3-1.2c0.6,0,1.2,0,1.8,0c0.7,0,1.3,0.5,1.3,1.3c0,0.6,0,1.2,0,1.8c0,0.7-0.4,1.2-1.1,1.3
		c-0.3,0.1-0.4,0.2-0.4,0.5c0,2.4,0,4.9,0,7.3c0,0.3,0.1,0.4,0.4,0.4c0.4,0,0.9,0,1.3,0c0.3,0,0.4-0.1,0.4-0.4c0-1.1,0-2.3,0-3.4
		c0-0.3,0-0.5,0.2-0.7c0.2-0.2,0.4-0.3,0.7-0.2c0.3,0.1,0.5,0.4,0.5,0.7c0,0.5,0,0.9,0,1.4c0,0.8,0,1.5,0,2.3c0,0.3,0.1,0.4,0.4,0.4
		c1.2,0,1,0.1,1-0.9c0-0.9,0-1.9,0-2.8c0-0.4,0.1-0.7,0.4-0.9c0.8-0.8,1.6-1.6,2.4-2.4c0.3-0.3,0.4-1.1,0.3-1.5
		c-0.1-0.1-0.2-0.2-0.3-0.2c-0.7-0.2-0.9-0.7-0.9-1.3c0-0.5-0.1-1,0-1.5c0.1-0.6,0.5-1,1.1-1c0.5,0,1,0,1.5,0c0.6,0,1,0.4,1.1,0.9
		c0.1,0.6,0.1,1.2,0,1.8c-0.1,0.5-0.3,0.8-0.8,0.9c-0.3,0.1-0.4,0.2-0.3,0.5c0.2,1.2-0.3,2-1.2,2.7c-0.6,0.5-1.2,1.2-1.8,1.7
		c-0.2,0.2-0.3,0.4-0.3,0.6c0,0.9,0,1.9,0,2.8c0,0.2-0.1,0.4,0.2,0.4c0.3,0,0.5,0,0.6-0.3c0.3-0.7,0.6-1.4,1-2
		c0.9-1.5,1.9-2.8,3.1-4c2-2,3.4-4.3,4-7.1c0.3-1.4,0.3-2.8,0.2-4.2c0-0.6,0.2-0.9,0.6-1c0.4-0.1,0.7,0.3,0.8,0.8
		c0.4,4.8-1,8.9-4.4,12.2c-1.6,1.6-2.9,3.3-3.9,5.4c-0.1,0.3-0.2,0.4,0.1,0.6c0.8,0.5,1.1,1.3,0.9,2.2c-0.2,0.9-0.7,1.6-1.6,1.8
		c-0.4,0.1-0.5,0.3-0.5,0.6c0,0.9-0.2,1.7-1.1,2.1c-0.2,0.1-0.2,0.3-0.3,0.4c-0.5,1.8-1.9,2.9-3.8,2.9c-1.2,0-2.3-0.2-3.2-1
		c-0.6-0.5-1-1.2-1.2-1.9c0-0.2-0.1-0.3-0.3-0.4c-0.8-0.4-1.1-1.1-1.1-2c0-0.4-0.1-0.7-0.5-0.8c-0.9-0.3-1.5-0.9-1.6-1.9
		c-0.1-0.9,0.2-1.6,0.9-2.1c0.3-0.2,0.3-0.3,0.2-0.6c-0.7-1.4-1.5-2.7-2.4-3.8c-0.1-0.2-0.3-0.3-0.4-0.5c-0.2-0.3-0.2-0.7,0.1-1
		c0.3-0.2,0.7-0.2,1,0.1c0.2,0.2,0.4,0.5,0.7,0.8c1,1.3,1.9,2.7,2.5,4.2c0.1,0.3,1.1,0.5,1.4,0.3c0.1-0.1,0.1-0.3,0.1-0.4
		C22.1,35.3,22.1,34.1,22.1,32.9z M25.6,38.4c-0.8,0-1.7,0-2.5,0c-0.9,0-1.9,0-2.8,0c-0.5,0-0.8,0.4-0.9,0.8c0,0.5,0.2,0.8,0.7,1
		c0.2,0.1,0.4,0.1,0.6,0.1c1.6,0,3.1,0,4.7,0c0.1,0,0.2,0,0.4,0c0.5,0,0.8,0.3,0.8,0.7c0,0.4-0.3,0.7-0.8,0.7c-1.2,0-2.5,0-3.7,0
		c-0.3,0-0.5,0.1-0.4,0.4c0,0.1,0,0.3,0,0.4c0,0.4,0.2,0.6,0.6,0.6c0,0,0.1,0,0.1,0c2.2,0,4.4,0,6.5,0c0.3,0,0.6,0,0.7-0.4
		c0.3-0.7,0-1.1-0.7-1.1c-0.1,0-0.1,0-0.2,0c-0.4,0-0.7-0.3-0.7-0.7c0-0.4,0.3-0.7,0.7-0.7c0.7,0,1.4,0,2.1,0c0.6,0,0.9-0.3,1-0.7
		c0.1-0.6-0.3-1.1-1-1.1C29.1,38.4,27.4,38.4,25.6,38.4z M25.6,44.5c-0.7,0-1.5,0-2.2,0c-0.3,0-0.4,0.1-0.2,0.4
		c0.4,0.8,1.1,1.2,1.9,1.3c1.3,0.2,2.5-0.3,3-1.3c0.2-0.3,0.1-0.4-0.2-0.4C27.1,44.5,26.4,44.5,25.6,44.5z M23.6,26.6
		c0-0.9,0.1-0.8-0.7-0.8c-0.9,0-0.8-0.1-0.8,0.8c0,0.9-0.1,0.8,0.8,0.8C23.6,27.4,23.6,27.5,23.6,26.6z M32.7,26.4
		c0.1-0.3,0-0.5-0.4-0.5c-0.3,0-0.5,0-0.5,0.4c0,0.3,0.1,0.5,0.5,0.5C32.5,26.8,32.7,26.7,32.7,26.4z"/>
	<path class="st0" d="M10.8,20.3c0-2.6,0.9-5.4,2.6-7.9c0.1-0.1,0.2-0.3,0.3-0.4c0.3-0.2,0.6-0.2,0.8,0c0.3,0.2,0.4,0.5,0.2,0.8
		c-0.1,0.2-0.2,0.3-0.3,0.5c-1.8,2.6-2.5,5.5-2.3,8.6c0.2,2.7,1.2,5.2,2.9,7.3c0.1,0.1,0.2,0.3,0.3,0.4c0.2,0.3,0.2,0.7-0.1,1
		c-0.3,0.2-0.7,0.2-1-0.1c-0.3-0.3-0.6-0.7-0.9-1.1C11.8,27,10.8,23.9,10.8,20.3z"/>
	<path class="st0" d="M30.2,21c0,0.3,0,0.6,0,0.8c0,0.7-0.4,1.2-1.1,1.3c-0.3,0-0.4,0.2-0.4,0.4c0,1.1,0,2.1,0,3.2
		c0,0.4-0.1,0.7-0.4,0.9c-0.1,0.1-0.2,0.2-0.3,0.3c-0.6,0.5-1,1.1-0.9,2c0.1,0.5-0.3,0.8-0.7,0.8c-0.4,0-0.7-0.3-0.7-0.9
		c0,0,0,0,0,0c0-1.9-0.2-1.3,1.1-2.6c0.4-0.4,0.6-0.8,0.6-1.4c0-0.8,0-1.6,0-2.4c0-0.2-0.1-0.4-0.3-0.4c-0.7-0.1-1.1-0.6-1.2-1.3
		c0-0.6,0-1.1,0-1.7c0-0.8,0.5-1.3,1.3-1.4c0.6,0,1.2,0,1.8,0c0.9,0.1,1.3,0.6,1.3,1.4C30.2,20.4,30.2,20.7,30.2,21z M28.7,20.9
		c0-0.1,0-0.2,0-0.3c0-0.4-0.1-0.6-0.5-0.5c-1.2,0-1-0.2-1,1.1c0,0.1,0,0.1,0,0.2c0,0.3,0.2,0.4,0.4,0.3c0.4-0.1,0.9,0.3,1.1-0.3
		c0-0.1,0-0.1,0-0.2C28.7,21.1,28.7,21,28.7,20.9z"/>
	<path class="st0" d="M41.4,36.5c0,0.5,0,0.9,0,1.4c0,0.7-0.4,1.2-1.1,1.3c-1.1,0.1-2.1,0.1-3.2,0c-0.7-0.1-1.1-0.6-1.1-1.3
		c0-0.9,0-1.8,0-2.7c0-0.8,0.5-1.4,1.3-1.4c0.9,0,1.8,0,2.7,0c0.8,0,1.4,0.6,1.4,1.4C41.4,35.6,41.4,36.1,41.4,36.5
		C41.4,36.5,41.4,36.5,41.4,36.5z M37.3,36.5c0,0.3,0,0.6,0,1c0,0.3,0.1,0.4,0.4,0.4c0.6,0,1.3,0,1.9,0c0.3,0,0.4-0.1,0.4-0.4
		c0-0.6,0-1.2,0-1.8c0-0.3-0.1-0.4-0.4-0.4c-0.5,0-1,0-1.5,0c-0.7,0-0.7,0-0.7,0.7C37.3,36.1,37.3,36.3,37.3,36.5z"/>
	<path class="st0" d="M20.3,8.9c0,0.4,0,0.9,0,1.3c0,0.7-0.5,1.3-1.2,1.3c-0.9,0-1.8,0-2.7,0c-0.7,0-1.2-0.6-1.2-1.3
		c0-0.9,0-1.7,0-2.6c0-0.8,0.6-1.3,1.3-1.3c0.8,0,1.6,0,2.5,0c0.8,0,1.3,0.5,1.3,1.4C20.3,8.1,20.3,8.5,20.3,8.9z M17.8,7.8
		c-0.3,0-0.5,0-0.8,0c-0.3,0-0.4,0.1-0.4,0.4c0,0.5,0,1,0,1.5c0,0.3,0.1,0.4,0.4,0.4c0.5,0,1,0,1.5,0c0.3,0,0.4-0.1,0.4-0.5
		c0-0.2,0-0.5,0-0.7C18.9,7.8,18.9,7.8,17.8,7.8z"/>
	<path class="st0" d="M11.1,36.3c-0.4,0-0.8,0-1.1,0c-0.7,0-1.2-0.5-1.3-1.2c0-0.8,0-1.6,0-2.3c0-0.7,0.5-1.2,1.3-1.2
		c0.7,0,1.5,0,2.2,0c0.8,0,1.3,0.6,1.3,1.4c0,0.7,0,1.4,0,2.1c0,0.8-0.5,1.3-1.3,1.3C11.8,36.3,11.4,36.3,11.1,36.3z M12,34
		c0-1.2,0.1-1-1-1c-1.1,0-1-0.1-1,1c0,1.2-0.1,1,1,1C12.1,34.9,12,35.1,12,34z"/>
	<path class="st0" d="M21.1,20.2c0,0.4,0,0.7,0,1.1c0,0.7-0.5,1.3-1.3,1.3c-0.8,0-1.5,0-2.3,0c-0.7,0-1.2-0.6-1.3-1.3
		c0-0.8,0-1.5,0-2.3c0-0.7,0.6-1.3,1.3-1.3c0.7,0,1.5,0,2.2,0c0.8,0,1.3,0.5,1.3,1.3C21.2,19.5,21.1,19.9,21.1,20.2z M18.8,21.2
		c1.2,0,1,0.1,1-1c0-1.1,0.1-1-1-1c-1.1,0-1-0.2-1,1C17.8,21.3,17.6,21.2,18.8,21.2z"/>
	<path class="st0" d="M40.6,30.3c0-0.3,0-0.6,0-0.9c0-0.6,0.4-1.1,1.1-1.2c0.7-0.1,1.5-0.1,2.2,0c0.6,0.1,1,0.6,1,1.3
		c0,0.5,0,1.1,0,1.6c0,0.8-0.5,1.2-1.2,1.3c-0.6,0.1-1.3,0.1-1.9,0c-0.7-0.1-1.1-0.6-1.2-1.3C40.6,30.9,40.6,30.6,40.6,30.3
		C40.6,30.3,40.6,30.3,40.6,30.3z M42,30.3c0,0.7,0,0.7,0.7,0.7c0.8,0,0.8,0,0.8-0.7c0-0.8,0-0.8-0.7-0.8C41.9,29.6,42,29.5,42,30.3
		z"/>
	<path class="st0" d="M6.9,25.1c1.6-0.1,2.1,0.6,2,2c0,0.1,0,0.3,0,0.4c0,1-0.5,1.5-1.5,1.5c-0.4,0-0.8,0-1.1,0
		C5.5,29,5,28.5,5,27.8c0-0.4,0-0.9,0-1.3c0-0.8,0.5-1.3,1.3-1.3C6.5,25.1,6.7,25.1,6.9,25.1z M6.4,27c0,0.6,0,0.6,0.6,0.6
		c0.5,0,0.5,0,0.5-0.6c0-0.4-0.2-0.5-0.6-0.5C6.5,26.5,6.3,26.6,6.4,27z"/>
	<path class="st0" d="M19.1,14.1c-0.1-1.6,0.4-2,2-2c1.8,0,2.1,0.7,2,2c0,0.1,0,0.3,0,0.4c0,1-0.5,1.5-1.5,1.5c-0.3,0-0.7,0-1,0
		c-0.9,0-1.4-0.5-1.4-1.4C19.1,14.5,19.1,14.3,19.1,14.1z M20.5,14c0,0.6,0,0.6,0.6,0.6c0.5,0,0.5,0,0.6-0.6c0-0.4-0.1-0.5-0.6-0.5
		C20.7,13.5,20.4,13.6,20.5,14z"/>
	<path class="st0" d="M7.5,11.8c-1.5,0-1.9-0.4-1.9-1.9c0-0.3,0-0.6,0.1-0.8c0.1-0.5,0.5-0.9,1-1C7.2,8,7.8,8,8.3,8.1
		c0.6,0.1,1,0.5,1.1,1.2c0,0.5,0,0.9,0,1.4c0,0.7-0.6,1.2-1.2,1.2C7.9,11.9,7.7,11.8,7.5,11.8z M7.9,10C8,9.6,7.9,9.4,7.5,9.4
		C7.1,9.4,7,9.6,7,9.9c0,0.3,0,0.5,0.4,0.5C7.8,10.4,8,10.4,7.9,10z"/>
	<path class="st0" d="M25.6,6c0.7,0,1.3,0,2,0.1c0.1,0,0.3,0,0.4,0.1c0.4,0.1,0.6,0.4,0.6,0.7c0,0.4-0.3,0.6-0.7,0.6
		c-0.4,0-0.7,0-1.1-0.1c-1.4-0.2-2.8,0-4.2,0.3c-0.5,0.1-0.9-0.1-1-0.5c-0.1-0.4,0.2-0.8,0.7-0.9C23.3,6.1,24.5,5.9,25.6,6z"/>
	<path class="st0" d="M40.9,9.8c0,0.8,0,1.6,0,2.5c0,0.6-0.2,0.8-0.8,0.8c-1.6,0-3.3,0-4.9,0c-0.6,0-0.9-0.3-0.9-0.9
		c0-1.6,0-3.3,0-4.9c0-0.6,0.2-0.8,0.8-0.8c1.6,0,3.3,0,4.9,0c0.6,0,0.8,0.2,0.8,0.8C40.9,8.1,40.9,9,40.9,9.8z M39.5,9.8
		c0-0.5,0-1,0-1.5c0-0.3-0.1-0.4-0.4-0.4c-1,0-2,0-3,0c-0.3,0-0.4,0.1-0.4,0.4c0,1,0,2,0,3c0,0.3,0.1,0.4,0.4,0.4c1,0,2,0,3,0
		c0.3,0,0.4-0.1,0.4-0.4C39.5,10.7,39.5,10.2,39.5,9.8z"/>
</g>
</svg>
