<?xml version="1.0" encoding="utf-8"?>
<!-- Generator: Adobe Illustrator 23.0.5, SVG Export Plug-In . SVG Version: 6.00 Build 0)  -->
<svg version="1.1" id="Capa_1" xmlns="http://www.w3.org/2000/svg" xmlns:xlink="http://www.w3.org/1999/xlink" x="0px" y="0px"
	 viewBox="0 0 50 50" style="enable-background:new 0 0 50 50;" xml:space="preserve">
<style type="text/css">
	.st0{fill:#E95B0C;}
</style>
<g>
	<path class="st0" d="M26.9,47c-6.2,0-12.4,0-18.7,0c-2.7,0-4.7-1.7-5.2-4.3C3,42.4,3,42.1,3,41.8C3,34,3,26.2,3,18.4
		c0-2.7,2.1-5,4.6-5.1c2.9-0.2,5.3,1.7,5.6,4.4c0.1,0.8,0.1,1.6,0,2.4c0,0.4,0.1,0.5,0.5,0.5c0.5,0,1.1,0,1.6,0
		c0.5,0,0.8,0.3,0.8,0.8c0,0.5-0.3,0.7-0.8,0.8c-0.5,0-1,0-1.6,0c-0.4,0-0.5,0.1-0.5,0.6c0,3.3,0,6.7,0,10c0,3,0,6,0,9
		c0,0.4,0,0.7-0.4,0.9c-0.5,0.3-1.1,0-1.1-0.6c-0.1-0.3-0.1-0.7-0.2-1c-0.4-1.5-1.7-2.7-3.6-2.7c-1.8,0-3.2,1.3-3.5,3.1
		c-0.3,2.2,1.3,4.1,3.6,4.2c0.4,0,0.7,0,1.1,0c11.8,0,23.6,0,35.4,0c0.7,0,0.7,0,0.7-0.7c0-7.7,0-15.3,0-23c0-0.2,0-0.4,0-0.5
		c0.1-0.4,0.3-0.6,0.7-0.6c0.4,0,0.7,0.2,0.8,0.6c0,0.1,0,0.3,0,0.5c0,8.1,0,16.2,0,24.2c0,0.9-0.2,1.1-1.1,1.1
		C39.6,47,33.3,47,26.9,47z M11.7,38.1c0.1-0.2,0.1-0.4,0.1-0.5c0-6.2,0-12.4,0-18.6c0-0.4,0-0.8-0.1-1.2c-0.3-1.8-2.1-3.2-3.9-2.9
		c-2,0.3-3.3,1.7-3.3,3.8c0,6.4,0,12.7,0,19.1c0,0.1-0.1,0.2,0.1,0.3c1-0.9,2.2-1.4,3.5-1.4C9.5,36.7,10.7,37.2,11.7,38.1z"/>
	<path class="st0" d="M36.7,17.9c0-3.7,0-7.4,0-11.1c0-1.6,0.7-2.8,2.2-3.4c1.4-0.6,2.8-0.4,4,0.6C43.6,4.7,44,5.5,44,6.6
		c0,2.4,0,4.9,0,7.3c0,0.6-0.3,0.9-0.8,0.9c-0.5,0-0.7-0.3-0.7-0.9c0-0.5,0-1.1,0-1.6c0-0.3-0.1-0.4-0.4-0.4c-1.2,0-1-0.1-1,1
		c0,5,0,10.1,0,15.1c0,0.7,0,0.7,0.7,0.7c0.1,0,0.2,0,0.4,0c0.3,0,0.4-0.1,0.4-0.4c0-0.6,0-1.2,0-1.9c0-3.1,0-6.2,0-9.2
		c0-0.6,0.2-0.9,0.6-0.9c0.5-0.1,0.9,0.2,0.9,0.7c0,0.2,0,0.4,0,0.5c0,3.9,0,7.7,0,11.6c0,0.4-0.1,0.7-0.2,1
		c-0.9,2.2-1.8,4.5-2.7,6.7c-0.1,0.3-0.3,0.6-0.7,0.7c-0.4,0.1-0.7-0.1-0.9-0.5c-1-2.4-1.9-4.8-2.9-7.2c-0.1-0.2-0.1-0.5-0.1-0.7
		C36.7,25.3,36.7,21.6,36.7,17.9z M38.2,20.2c0,1.1,0,2.1,0,3.2c0,1.6,0,3.2,0,4.8c0,0.4,0.1,0.5,0.5,0.5c0.1,0,0.2,0,0.3,0
		c0.7,0,0.7,0,0.7-0.7c0-5.1,0-10.2,0-15.3c0-0.9,0.1-0.8-0.8-0.8c-0.6,0-0.6,0-0.6,0.6C38.2,15.1,38.2,17.6,38.2,20.2z M40.3,7.4
		c0.6,0,1.2,0,1.8,0c0.2,0,0.4-0.1,0.4-0.3c0-0.5-0.1-1-0.3-1.4c-0.5-0.9-1.6-1.3-2.6-1c-1.1,0.4-1.5,1.5-1.4,2.5
		c0,0.2,0.2,0.3,0.4,0.3C39.1,7.4,39.7,7.4,40.3,7.4z M40.3,10.4c0.4,0,0.8,0,1.2,0c1.1,0,0.9,0.2,1-1c0-0.3-0.1-0.4-0.4-0.4
		c-1,0-2,0-3,0c-1.1,0-0.9-0.2-0.9,1c0,0.3,0.1,0.4,0.4,0.4C39.2,10.3,39.8,10.4,40.3,10.4z M40.4,31.6c1.3,0,1.3,0,1.6-1
		c0,0,0,0,0,0c0.1-0.2,0-0.3-0.2-0.3c-1,0-1.9,0-2.9,0c-0.3,0-0.3,0.1-0.2,0.3c0.4,1.1,0.4,1.1,1.5,1.1
		C40.2,31.6,40.3,31.6,40.4,31.6z M40.3,34.4c0,0,0.1,0,0.1,0c0.1-0.2,0.2-0.4,0.2-0.6C41,33,41,33,40.1,33.1c0,0,0,0,0,0
		c-0.2,0-0.2,0.1-0.2,0.3C40,33.7,40.2,34.1,40.3,34.4z"/>
	<path class="st0" d="M19.5,35.3c-1.3,0.1-2.5-0.3-3.4-1.6c-1.4-1.9-0.5-4.7,1.7-5.5c0.5-0.2,1-0.3,1.5-0.4c0.9-0.2,1.7-0.7,2.5-1.3
		c0.2-0.2,0.2-0.3-0.1-0.4c-1.6-0.8-2.5-2.1-2.6-3.8c0-0.2-0.1-0.3-0.2-0.4c-1.6-0.8-1.6-3.2,0-4c0.4-0.2,0.2-0.4,0-0.6
		c-1-1.1-1.7-2.3-1.9-3.8c-0.6-3.5,1.9-6.9,5.4-7.5C23.8,5.8,25,6,26.3,6.6c0.2,0.1,0.4,0.2,0.6,0.3c0.4,0.3,0.5,0.7,0.3,1.1
		c-0.2,0.4-0.6,0.5-1.1,0.3c-0.7-0.3-1.3-0.6-2.1-0.7c-2.3-0.3-4.7,1.2-5.3,3.5c-0.6,2-0.1,3.8,1.4,5.3c0.3,0.3,0.6,0.6,0.5,1.1
		c0,0.2,0.1,0.3,0.3,0.3c0.2,0,0.2-0.2,0.2-0.3c-0.2-1.6-0.3-3.2-0.5-4.8c-0.2-1.4,0.2-1.8,1.5-1.3c1,0.4,1.9,0.4,2.8,0
		c1.2-0.5,1.7,0,1.5,1.2c-0.2,1.6-0.4,3.1-0.5,4.7c0,0.2-0.1,0.4,0.2,0.4c0.3,0,0.3-0.2,0.3-0.4c0-0.4,0.1-0.6,0.4-0.9
		c1.9-1.8,2.3-4,1.1-6.3c-0.2-0.4-0.3-0.8,0.1-1.1c0.4-0.4,0.9-0.3,1.3,0.3c1,1.7,1.1,3.5,0.5,5.4c-0.3,1-0.9,1.8-1.6,2.5
		c-0.4,0.4-0.4,0.4,0.1,0.7c1.5,0.9,1.5,3,0,3.9c-0.2,0.1-0.4,0.3-0.4,0.6c-0.1,1.9-1.5,3.6-3.4,4c-0.4,0.1-0.7,0.3-1,0.6
		c-1.2,1.4-2.8,2.2-4.6,2.6c-0.9,0.2-1.6,0.6-1.8,1.6c-0.4,1.4,0.6,2.6,2.1,2.7c0.5,0,0.9,0,1.4,0c0.5,0,0.8,0.3,0.8,0.7
		c0,0.5-0.3,0.8-0.8,0.8C20.2,35.3,19.9,35.3,19.5,35.3z M23.5,22.1c-0.8,0-1.6,0-2.5,0c-0.3,0-0.4,0.1-0.4,0.4
		c0.2,1.4,1.4,2.4,2.8,2.4c1.4,0,2.6-1.1,2.8-2.4c0-0.3,0-0.4-0.4-0.4C25.2,22.1,24.4,22.1,23.5,22.1z M23.5,20.6c1.1,0,2.2,0,3.3,0
		c0.7,0,1-0.3,1-0.7c0-0.4-0.4-0.7-1-0.7c-2.2,0-4.4,0-6.6,0c-0.2,0-0.4,0-0.6,0.1c-0.3,0.1-0.4,0.3-0.4,0.6c0,0.3,0.1,0.5,0.4,0.6
		c0.2,0.1,0.4,0.1,0.6,0.1C21.3,20.6,22.4,20.6,23.5,20.6z M23.5,17.7c0.2,0,0.3,0,0.5,0c0.2,0,0.3-0.1,0.3-0.3
		c0.1-1.3,0.3-2.7,0.4-4c0-0.3,0-0.4-0.3-0.3c-0.6,0.3-1.2,0.3-1.8,0c-0.3-0.1-0.4,0-0.3,0.3c0.2,1.3,0.3,2.7,0.5,4
		c0,0.2,0.1,0.3,0.3,0.3C23.2,17.7,23.4,17.7,23.5,17.7z"/>
	<path class="st0" d="M22.9,36.9c-0.4,0-0.6-0.2-0.8-0.5c-0.1-0.4,0-0.7,0.3-0.9c0.2-0.2,0.5-0.3,0.7-0.4c0.5-0.3,0.5-0.9,0-1.2
		c-1.3-0.8-1.3-0.8-0.6-2.1c0.3-0.6,0.7-1.2,1-1.7c0.3-0.5,0.7-0.6,1.2-0.3c0.2,0.1,0.4,0.2,0.6,0.3c0.5,0.3,1,0,1.1-0.6
		c0-0.2,0-0.4,0-0.5c0-0.7,0.2-1,0.9-1c0.9,0,1.7,0,2.6,0c0.6,0,0.9,0.3,0.9,0.9c0,0.2,0,0.4,0,0.6c0,0.6,0.5,0.9,1,0.6
		c0.2-0.1,0.5-0.3,0.7-0.4c0.4-0.2,0.8-0.1,1,0.3c0.5,0.8,1,1.7,1.5,2.5c0.2,0.4,0.1,0.8-0.3,1.1c-0.2,0.1-0.4,0.3-0.6,0.4
		c-0.6,0.3-0.6,0.9,0,1.2c1.2,0.7,1.3,0.8,0.5,2.1c-0.3,0.6-0.7,1.1-1,1.7c-0.4,0.6-0.7,0.7-1.4,0.4c-0.2-0.1-0.3-0.2-0.5-0.3
		c-0.5-0.3-1,0-1,0.6c0,0,0,0,0,0c0,1.4-0.1,1.5-1.5,1.5c-0.7,0-1.4,0-2.1,0c-0.6,0-0.8-0.3-0.8-0.8c0-0.2,0-0.4,0-0.6
		c0-0.7-0.5-0.9-1.1-0.6c-0.2,0.1-0.4,0.3-0.7,0.4c-0.4,0.2-0.8,0.1-1-0.3c-0.2-0.4-0.1-0.8,0.3-1c0.5-0.3,1-0.6,1.5-0.9
		c0.3-0.2,0.6-0.1,0.9,0.1c0.3,0.2,0.6,0.4,1,0.6c0.5,0.2,0.7,0.5,0.6,1c0,0.2-0.2,0.6,0.1,0.7c0.3,0.1,0.8,0.1,1.1,0
		c0.2,0,0.2-0.3,0.1-0.4c-0.1-0.7,0.2-1.2,0.9-1.4c0.1,0,0.2-0.1,0.2-0.1c0.6-0.6,1.3-0.7,1.9-0.1c0.1,0.1,0.2,0.1,0.3,0
		c0.2-0.3,0.3-0.6,0.5-0.9c0.1-0.1,0-0.2-0.1-0.3c-0.1-0.1-0.3-0.2-0.4-0.3c-0.4-0.2-0.6-0.6-0.5-1.1c0.1-0.3,0.1-0.6,0-0.9
		c-0.1-0.6,0-0.9,0.6-1.2c0.7-0.4,0.6-0.3,0.3-0.9c-0.1-0.1-0.1-0.2-0.2-0.3c-0.1-0.2-0.3-0.3-0.5-0.1c-0.2,0.1-0.3,0.2-0.5,0.3
		c-0.3,0.2-0.6,0.2-0.9,0c-0.4-0.3-0.8-0.5-1.2-0.7c-0.4-0.2-0.5-0.6-0.5-1c0-0.2,0.1-0.6-0.1-0.7c-0.4-0.1-0.8-0.1-1.1,0
		c-0.2,0-0.1,0.2-0.1,0.4c0.1,0.8-0.2,1.3-1,1.5c-0.1,0-0.1,0-0.2,0.1c-0.6,0.6-1.3,0.7-2,0.1c-0.1-0.1-0.2-0.1-0.3,0
		c-0.2,0.3-0.3,0.6-0.5,0.9c-0.1,0.1,0,0.2,0.1,0.3c0.2,0.1,0.3,0.2,0.5,0.3c0.4,0.2,0.5,0.5,0.5,1c-0.1,0.4-0.1,0.8,0,1.1
		c0.1,0.4-0.1,0.8-0.5,1c-0.4,0.2-0.8,0.5-1.3,0.7C23.2,36.9,23,36.9,22.9,36.9z"/>
	<path class="st0" d="M34,44.1c-1.5,0-3,0-4.5,0c-0.5,0-0.8-0.3-0.9-0.7c0-0.5,0.3-0.8,0.9-0.8c0.1,0,0.3,0,0.4,0c2.6,0,5.2,0,7.9,0
		c1.3,0,1.8-0.5,1.8-1.8c0-0.4,0-0.7,0-1.1c0-0.4,0.3-0.7,0.8-0.7c0.4,0,0.7,0.3,0.7,0.7c0,0.6,0,1.3,0,1.9
		c-0.1,1.4-1.4,2.6-2.8,2.6C36.9,44.1,35.4,44.1,34,44.1z"/>
	<path class="st0" d="M18.4,38.9c1.3,0,2.2,1,2.2,2.2c0,1.3-1,2.2-2.2,2.2c-1.3,0-2.2-1-2.2-2.3C16.2,39.8,17.2,38.9,18.4,38.9z
		 M18.4,40.4c-0.3,0-0.7,0.4-0.7,0.7c0,0.3,0.4,0.7,0.7,0.7c0.3,0,0.7-0.4,0.7-0.7C19.1,40.7,18.7,40.4,18.4,40.4z"/>
	<path class="st0" d="M28.6,36.8c-1.3,0-2.2-1-2.2-2.2c0-1.3,1-2.2,2.2-2.2c1.3,0,2.2,1,2.2,2.2C30.9,35.8,29.9,36.8,28.6,36.8z
		 M29.3,34.5c0-0.3-0.4-0.7-0.7-0.7c-0.3,0-0.7,0.4-0.7,0.7c0,0.3,0.4,0.7,0.7,0.7C29,35.2,29.3,34.8,29.3,34.5z"/>
	<path class="st0" d="M32.6,22.1c-0.6,0-1.2,0-1.7,0c-0.5,0-0.8-0.3-0.8-0.8c0-0.4,0.3-0.7,0.8-0.7c1.2,0,2.4,0,3.6,0
		c0.5,0,0.8,0.3,0.8,0.8c0,0.5-0.3,0.7-0.8,0.7C33.8,22.1,33.2,22.1,32.6,22.1z"/>
	<path class="st0" d="M23.5,4.6c-0.4,0-0.7-0.3-0.7-0.7c0-0.4,0.3-0.8,0.8-0.8c0.4,0,0.8,0.3,0.7,0.8C24.3,4.3,24,4.6,23.5,4.6z"/>
	<path class="st0" d="M19.9,5c0,0.4-0.3,0.8-0.8,0.8c-0.4,0-0.7-0.3-0.8-0.7c0-0.4,0.3-0.8,0.7-0.8C19.5,4.2,19.9,4.5,19.9,5z"/>
	<path class="st0" d="M15.2,8.2c0-0.4,0.4-0.8,0.8-0.7c0.4,0,0.7,0.4,0.7,0.8c0,0.4-0.4,0.8-0.8,0.7C15.5,8.9,15.2,8.6,15.2,8.2z"/>
	<path class="st0" d="M14.8,13.3c-0.4,0-0.8-0.3-0.8-0.8c0-0.4,0.3-0.7,0.7-0.8c0.4,0,0.8,0.3,0.8,0.8C15.5,13,15.2,13.3,14.8,13.3z
		"/>
	<path class="st0" d="M33.1,12.6c0,0.4-0.3,0.8-0.8,0.8c-0.4,0-0.7-0.3-0.8-0.7c0-0.4,0.3-0.8,0.8-0.8
		C32.8,11.8,33.1,12.1,33.1,12.6z"/>
	<path class="st0" d="M16.7,17c0,0.4-0.4,0.8-0.8,0.7c-0.4,0-0.7-0.4-0.7-0.8c0-0.4,0.4-0.8,0.8-0.7C16.4,16.2,16.7,16.6,16.7,17z"
		/>
	<path class="st0" d="M28.7,5c0,0.4-0.3,0.8-0.8,0.8c-0.4,0-0.7-0.3-0.8-0.7c0-0.4,0.3-0.8,0.7-0.8C28.3,4.2,28.7,4.5,28.7,5z"/>
	<path class="st0" d="M31.1,7.4c0.4,0,0.8,0.3,0.8,0.8c0,0.4-0.3,0.7-0.7,0.8c-0.4,0-0.8-0.3-0.8-0.8C30.4,7.8,30.7,7.4,31.1,7.4z"
		/>
	<path class="st0" d="M31.9,17c0,0.4-0.3,0.7-0.8,0.7c-0.4,0-0.8-0.3-0.8-0.8c0-0.4,0.3-0.7,0.8-0.7C31.6,16.2,31.9,16.5,31.9,17z"
		/>
</g>
</svg>
