<?xml version="1.0" encoding="utf-8"?>
<!-- Generator: Adobe Illustrator 23.0.5, SVG Export Plug-In . SVG Version: 6.00 Build 0)  -->
<svg version="1.1" id="Capa_1" xmlns="http://www.w3.org/2000/svg" xmlns:xlink="http://www.w3.org/1999/xlink" x="0px" y="0px"
	 viewBox="0 0 50 50" style="enable-background:new 0 0 50 50;" xml:space="preserve">
<style type="text/css">
	.st0{fill:#E95B0C;}
</style>
<g>
	<path class="st0" d="M26.7,2.1c1.5,0.2,2.9,0.4,4.3,1c6.7,2.5,10.8,7.3,12.2,14.4c0.2,1,0.3,2.1,0.3,3.1c0,3.1,0,6.2,0,9.3
		c-0.1,3.9-1.5,7.4-4.1,10.3c-2.4,2.7-5.3,4.4-8.9,5.1c-0.7,0.2-1.4,0.2-2.2,0.3c-0.2,0-0.4,0-0.4,0.2c-0.4,1-1.2,1.6-2.3,2
		c-0.5,0-1,0-1.4,0c-1.1-0.4-1.9-1-2.3-2.1c-0.5-1.6,0.2-3.3,1.7-4c1.5-0.7,3.3-0.2,4.2,1.4c0.2,0.3,0.4,0.4,0.8,0.4
		c6.2-0.6,11.3-5.1,12.6-11.1c0-0.1,0-0.2,0-0.3c-0.5,0.1-0.9,0.3-1.3,0.4c-2.6,0.4-5-1.6-5-4.2c0-2.2,0-4.5,0-6.8
		c0.1-3,3.1-5,5.9-3.9c0.1,0,0.2,0.1,0.3,0.1c-0.8-6.3-6.5-12.9-14.7-13.6C16.8,3.4,9.9,10.5,8.8,17.8c0.5-0.1,0.9-0.3,1.4-0.4
		c2.3-0.3,4.5,1.3,4.9,3.6c0,0.1,0,0.1,0,0.2c0.1,2.6,0.2,5.3-0.1,7.9c-0.2,2.1-2.4,3.7-4.5,3.6c-2.3-0.2-4-2-4.1-4.2
		c0-2.7,0-5.4,0-8.1c0.1-4.5,1.6-8.5,4.6-11.9c3.1-3.5,7-5.5,11.6-6.2c0.2,0,0.4-0.1,0.6-0.1C24.4,2.1,25.6,2.1,26.7,2.1z M13,25
		c0-0.7,0-1.5,0-2.2c0-0.5,0.1-1,0-1.6c-0.2-1.1-1.2-1.8-2.5-1.7c-1.1,0.1-2,1-2,2.3c0,2.2,0,4.4,0,6.5c0,1.4,1,2.3,2.4,2.3
		c1.3,0,2.1-1,2.1-2.4C13,27.1,13,26.1,13,25z M37,25C37,25,37,25,37,25c0,1.1,0,2.2,0,3.4c0,1.2,0.9,2.1,2,2.2
		c1.3,0.1,2.3-0.7,2.4-1.9c0.2-2.4,0.1-4.7,0-7.1c-0.1-1.4-1.1-2.2-2.5-2.1c-1.2,0.1-2,1.1-2,2.4C37,22.9,37,24,37,25z M26.1,44.7
		c0-0.7-0.5-1.2-1.1-1.2c-0.6,0-1.1,0.5-1.1,1.1c0,0.7,0.5,1.2,1.1,1.2C25.6,45.9,26.1,45.4,26.1,44.7z"/>
	<path class="st0" d="M25,39.2c-3.2,0-6.2-0.8-9.1-2.2c-0.6-0.3-0.8-0.9-0.6-1.4c0.2-0.5,0.9-0.8,1.5-0.5c1.7,0.8,3.5,1.5,5.5,1.8
		c3.6,0.6,7,0,10.3-1.5c0.2-0.1,0.5-0.2,0.7-0.3c0.6-0.3,1.2-0.1,1.4,0.4c0.3,0.5,0,1.1-0.6,1.4c-1.7,0.9-3.5,1.5-5.4,1.9
		C27.5,39,26.3,39.2,25,39.2z"/>
</g>
</svg>
