<?xml version="1.0" encoding="utf-8"?>
<!-- Generator: Adobe Illustrator 23.0.5, SVG Export Plug-In . SVG Version: 6.00 Build 0)  -->
<svg version="1.1" id="Capa_1" xmlns="http://www.w3.org/2000/svg" xmlns:xlink="http://www.w3.org/1999/xlink" x="0px" y="0px"
	 viewBox="0 0 50 50" style="enable-background:new 0 0 50 50;" xml:space="preserve">
<style type="text/css">
	.st0{fill:#E95B0C;}
</style>
<g>
	<path class="st0" d="M113.9-1.7l-3.7-12.3c-1-3.5-4.2-5.8-7.8-5.8h-4.9c-3.6,0-6.7,2.3-7.8,5.8L86.1-1.7c-0.7,2.2-2.6,3.8-4.8,4.1
		c3.8,5.7,10.2,9.7,17.6,10.1c8.3,0.4,15.7-3.6,20-10.1C116.5,2.1,114.6,0.5,113.9-1.7"/>
	<path class="st0" d="M83.4-2.5l3.7-12.3c1.4-4.6,5.6-7.7,10.4-7.7h4.9c4.8,0,9,3.1,10.4,7.7l3.7,12.3c0.4,1.3,1.6,2.2,3,2.2h0.8
		c1.2-2.6,2-5.5,2.2-8.5c0.7-12.4-8.8-23-21.3-23.7c-12.4-0.7-23,8.8-23.7,21.3c-0.2,3.9,0.6,7.6,2.2,10.9h0.8
		C81.8-0.3,83-1.2,83.4-2.5"/>
</g>
<g>
	<path class="st0" d="M109.8,3.3c-6.4,0-11.5-5.2-11.5-11.5v-19.9c-6.1,3.7-10.3,10.3-10.8,18c-0.7,12.4,8.8,23,21.3,23.7
		c8.3,0.5,15.8-3.7,20.1-10.2H109.8z"/>
	<path class="st0" d="M102.5-8.3c0,4,3.3,7.3,7.3,7.3H131c0.8-2.1,1.3-4.4,1.4-6.8c0.7-12.4-8.8-23-21.3-23.7c-3-0.2-6,0.3-8.7,1.2
		V-8.3z"/>
</g>
<g>
	<path class="st0" d="M41.7,9.9L30.2,21.8c-1.5,1.6-3.6,2.4-5.6,2.4c-2,0-3.9-0.7-5.4-2.2L7.6,10.7C4.4,14.6,2.5,19.6,2.5,25
		c0,12.4,10.1,22.5,22.5,22.5c12.4,0,22.5-10.1,22.5-22.5C47.5,19.2,45.3,13.9,41.7,9.9 M23.1,43.2c0.3,0.3,0.6,0.4,0.7,0.9
		c0.2,0.5-0.1,1.1-0.7,1.1c-0.6,0-0.9-0.3-1.3-0.6c-1.5-1.3-2.4-3.6-1.4-5.6c0.7-2,3.2-2.7,3.2-4.9c0-2.3-0.7-4.8-2-6.7
		c-0.5-0.7,0.5-1.5,1-0.8c1.8,2.5,3.7,7.7,1.6,10.4c-1.1,1.3-2.2,2.1-2.4,3.7C21.8,41.5,22.4,42.5,23.1,43.2 M28.9,36.9
		c-1.1,1.3-2.2,2.1-2.4,3.7c-0.1,0.9,0.5,1.9,1.3,2.6c0.3,0.3,0.6,0.4,0.7,0.9c0.2,0.5-0.1,1.1-0.7,1.1c-0.6,0-0.9-0.3-1.3-0.6
		c-1.5-1.3-2.4-3.6-1.4-5.6c0.7-2,3.2-2.7,3.2-4.9c0-2.3-0.7-4.8-2-6.7c-0.5-0.7,0.5-1.5,1-0.8C29.1,29,31,34.2,28.9,36.9"/>
	<path class="st0" d="M21.2,19.9c1.9,1.9,5.1,1.8,6.9-0.1L39.7,7.9C35.7,4.5,30.6,2.5,25,2.5c-6,0-11.4,2.3-15.4,6.1L21.2,19.9z"/>
</g>
</svg>
