<?xml version="1.0" encoding="utf-8"?>
<!-- Generator: Adobe Illustrator 23.0.5, SVG Export Plug-In . SVG Version: 6.00 Build 0)  -->
<svg version="1.1" id="Capa_1" xmlns="http://www.w3.org/2000/svg" xmlns:xlink="http://www.w3.org/1999/xlink" x="0px" y="0px"
	 viewBox="0 0 50 50" style="enable-background:new 0 0 50 50;" xml:space="preserve">
<style type="text/css">
	.st0{fill:#E95B0C;}
</style>
<g>
	<path class="st0" d="M38.9,33.3l-3.7-12.3c-1-3.5-4.2-5.8-7.8-5.8h-4.9c-3.6,0-6.7,2.3-7.8,5.8l-3.7,12.3c-0.7,2.2-2.6,3.8-4.8,4.1
		c3.8,5.7,10.2,9.7,17.6,10.1c8.3,0.4,15.7-3.6,20-10.1C41.5,37.1,39.6,35.5,38.9,33.3"/>
	<path class="st0" d="M8.4,32.5l3.7-12.3c1.4-4.6,5.6-7.7,10.4-7.7h4.9c4.8,0,9,3.1,10.4,7.7l3.7,12.3c0.4,1.3,1.6,2.2,3,2.2h0.8
		c1.2-2.6,2-5.5,2.2-8.5c0.7-12.4-8.8-23-21.3-23.7c-12.4-0.7-23,8.8-23.7,21.3c-0.2,3.9,0.6,7.6,2.2,10.9h0.8
		C6.8,34.7,8,33.8,8.4,32.5"/>
</g>
</svg>
