<?xml version="1.0" encoding="utf-8"?>
<!-- Generator: Adobe Illustrator 23.0.5, SVG Export Plug-In . SVG Version: 6.00 Build 0)  -->
<svg version="1.1" id="Capa_1" xmlns="http://www.w3.org/2000/svg" xmlns:xlink="http://www.w3.org/1999/xlink" x="0px" y="0px"
	 viewBox="0 0 50 50" style="enable-background:new 0 0 50 50;" xml:space="preserve">
<style type="text/css">
	.st0{fill:#E95B0C;}
	.st1{fill:none;stroke:#FFFFFF;stroke-width:0.5;stroke-miterlimit:10;}
</style>
<g>
	<path class="st0" d="M113.9-1.7l-3.7-12.3c-1-3.5-4.2-5.8-7.8-5.8h-4.9c-3.6,0-6.7,2.3-7.8,5.8L86.1-1.7c-0.7,2.2-2.6,3.8-4.8,4.1
		c3.8,5.7,10.2,9.7,17.6,10.1c8.3,0.4,15.7-3.6,20-10.1C116.5,2.1,114.6,0.5,113.9-1.7"/>
	<path class="st0" d="M83.4-2.5l3.7-12.3c1.4-4.6,5.6-7.7,10.4-7.7h4.9c4.8,0,9,3.1,10.4,7.7l3.7,12.3c0.4,1.3,1.6,2.2,3,2.2h0.8
		c1.2-2.6,2-5.5,2.2-8.5c0.7-12.4-8.8-23-21.3-23.7c-12.4-0.7-23,8.8-23.7,21.3c-0.2,3.9,0.6,7.6,2.2,10.9h0.8
		C81.8-0.3,83-1.2,83.4-2.5"/>
</g>
<g>
	<path class="st0" d="M109.8,3.3c-6.4,0-11.5-5.2-11.5-11.5v-19.9c-6.1,3.7-10.3,10.3-10.8,18c-0.7,12.4,8.8,23,21.3,23.7
		c8.3,0.5,15.8-3.7,20.1-10.2H109.8z"/>
	<path class="st0" d="M102.5-8.3c0,4,3.3,7.3,7.3,7.3H131c0.8-2.1,1.3-4.4,1.4-6.8c0.7-12.4-8.8-23-21.3-23.7c-3-0.2-6,0.3-8.7,1.2
		V-8.3z"/>
</g>
<g>
	<path class="st0" d="M134.7,17.9l-11.5,11.9c-1.5,1.6-3.6,2.4-5.6,2.4c-2,0-3.9-0.7-5.4-2.2l-11.6-11.2c-3.2,3.9-5.1,8.9-5.1,14.3
		c0,12.4,10.1,22.5,22.5,22.5c12.4,0,22.5-10.1,22.5-22.5C140.5,27.2,138.3,21.9,134.7,17.9 M116.1,51.2c0.3,0.3,0.6,0.4,0.7,0.9
		c0.2,0.5-0.1,1.1-0.7,1.1c-0.6,0-0.9-0.3-1.3-0.6c-1.5-1.3-2.4-3.6-1.4-5.6c0.7-2,3.2-2.7,3.2-4.9c0-2.3-0.7-4.8-2-6.7
		c-0.5-0.7,0.5-1.5,1-0.8c1.8,2.5,3.7,7.7,1.6,10.4c-1.1,1.3-2.2,2.1-2.4,3.7C114.8,49.5,115.4,50.5,116.1,51.2 M121.9,44.9
		c-1.1,1.3-2.2,2.1-2.4,3.7c-0.1,0.9,0.5,1.9,1.3,2.6c0.3,0.3,0.6,0.4,0.7,0.9c0.2,0.5-0.1,1.1-0.7,1.1c-0.6,0-0.9-0.3-1.3-0.6
		c-1.5-1.3-2.4-3.6-1.4-5.6c0.7-2,3.2-2.7,3.2-4.9c0-2.3-0.7-4.8-2-6.7c-0.5-0.7,0.5-1.5,1-0.8C122.1,37,124,42.2,121.9,44.9"/>
	<path class="st0" d="M114.2,27.9c1.9,1.9,5.1,1.8,6.9-0.1l11.5-11.9c-3.9-3.4-9.1-5.4-14.7-5.4c-6,0-11.4,2.3-15.4,6.1L114.2,27.9z
		"/>
</g>
<g>
	<path class="st0" d="M437.3,462.3c0,11.9-9.7,21.6-21.6,21.6c-11.9,0-21.6-9.7-21.6-21.6c0-11.9,9.7-21.6,21.6-21.6
		C427.7,440.7,437.3,450.4,437.3,462.3"/>
	<rect x="399.1" y="459.4" class="st1" width="5.7" height="10.2"/>
	<rect x="427.3" y="459.4" class="st1" width="5.7" height="10.2"/>
	<rect x="404.8" y="459.4" class="st1" width="22.5" height="10.2"/>
	<path class="st1" d="M422.2,450.4h-12.3c-1.8,0-3.3,1.5-3.3,3.3v5.7h18.9v-5.7C425.5,451.9,424,450.4,422.2,450.4z"/>
</g>
<g>
	<path class="st0" d="M13.6,22.6v9.2H9.8c-0.5,0-0.9-0.4-0.9-0.9v-7.5c0-0.5,0.4-0.9,0.9-0.9H13.6z"/>
	<path class="st0" d="M34.3,16.4v5.2H16.4v-5.2c0-1.5,1.3-2.8,2.8-2.8h12.3C33,13.6,34.3,14.8,34.3,16.4z"/>
	<rect x="14.6" y="22.6" class="st0" width="21.5" height="9.2"/>
	<path class="st0" d="M25,3.4C13.1,3.4,3.4,13.1,3.4,25c0,11.9,9.7,21.6,21.6,21.6S46.6,36.9,46.6,25C46.6,13.1,36.9,3.4,25,3.4z
		 M40.9,32.8H9.8c-1,0-1.9-0.8-1.9-1.9v-7.5c0-1,0.8-1.9,1.9-1.9h5.6v-5.2c0-2.1,1.7-3.8,3.8-3.8h12.3c2.1,0,3.8,1.7,3.8,3.8v5.2
		h5.6c1,0,1.9,0.8,1.9,1.9V31C42.8,32,41.9,32.8,40.9,32.8z"/>
	<path class="st0" d="M41.8,23.5V31c0,0.5-0.4,0.9-0.9,0.9h-3.8v-9.2h3.8C41.4,22.6,41.8,23,41.8,23.5z"/>
</g>
</svg>
