<?xml version="1.0" encoding="utf-8"?>
<!-- Generator: Adobe Illustrator 23.0.5, SVG Export Plug-In . SVG Version: 6.00 Build 0)  -->
<svg version="1.1" id="Capa_1" xmlns="http://www.w3.org/2000/svg" xmlns:xlink="http://www.w3.org/1999/xlink" x="0px" y="0px"
	 viewBox="0 0 310 130" style="enable-background:new 0 0 310 130;" xml:space="preserve">
<style type="text/css">
	.st0{fill:url(#SVGID_1_);}
	.st1{clip-path:url(#SVGID_3_);fill:url(#SVGID_4_);}
	.st2{clip-path:url(#SVGID_6_);fill:url(#SVGID_7_);}
	.st3{fill:#F29024;}
	.st4{clip-path:url(#SVGID_9_);fill:#F29024;}
	.st5{clip-path:url(#SVGID_11_);fill:#F29024;}
	.st6{fill:#EB651D;}
	.st7{clip-path:url(#SVGID_13_);fill:#EB651D;}
	.st8{clip-path:url(#SVGID_15_);fill:#EB651D;}
	.st9{fill:#808184;}
	.st10{clip-path:url(#SVGID_17_);fill:#808184;}
	.st11{clip-path:url(#SVGID_19_);fill:#808184;}
	.st12{fill:#FFFFFF;}
	.st13{clip-path:url(#SVGID_21_);fill:#FFFFFF;}
	.st14{clip-path:url(#SVGID_23_);fill:#FFFFFF;}
	.st15{clip-path:url(#SVGID_25_);}
	.st16{clip-path:url(#SVGID_27_);}
	.st17{clip-path:url(#SVGID_29_);fill:url(#SVGID_30_);}
	.st18{clip-path:url(#SVGID_32_);fill:url(#SVGID_33_);}
	.st19{clip-path:url(#SVGID_35_);fill:url(#SVGID_36_);}
	.st20{clip-path:url(#SVGID_38_);fill:url(#SVGID_39_);}
	.st21{clip-path:url(#SVGID_41_);fill:url(#SVGID_42_);}
	.st22{clip-path:url(#SVGID_44_);fill:url(#SVGID_45_);}
	.st23{clip-path:url(#SVGID_47_);fill:url(#SVGID_48_);}
	.st24{clip-path:url(#SVGID_50_);fill:url(#SVGID_51_);}
	.st25{clip-path:url(#SVGID_53_);}
	.st26{fill-rule:evenodd;clip-rule:evenodd;fill:#F7981D;}
	.st27{fill:#F48120;}
	.st28{fill:url(#SVGID_54_);}
	.st29{clip-path:url(#SVGID_56_);fill:#FFFFFF;}
	.st30{clip-path:url(#SVGID_58_);fill:#FFFFFF;}
	.st31{fill:url(#SVGID_59_);}
	.st32{clip-path:url(#SVGID_61_);fill:#FFFFFF;}
	.st33{clip-path:url(#SVGID_63_);fill:#FFFFFF;}
</style>
<g>
	<g>
		<path d="M265.4,91.4c0,0.6-0.2,1.2-0.5,1.8c-0.3,0.5-0.8,0.9-1.5,1.2s-1.4,0.4-2.3,0.4c-1.1,0-1.9-0.2-2.6-0.6
			c-0.5-0.3-0.9-0.7-1.2-1.2c-0.3-0.5-0.5-0.9-0.5-1.4c0-0.3,0.1-0.5,0.3-0.7c0.2-0.2,0.4-0.3,0.7-0.3c0.2,0,0.4,0.1,0.6,0.2
			c0.2,0.1,0.3,0.4,0.4,0.7c0.1,0.3,0.3,0.6,0.4,0.9c0.2,0.2,0.4,0.4,0.7,0.6c0.3,0.1,0.7,0.2,1.1,0.2c0.6,0,1.2-0.1,1.6-0.5
			c0.4-0.3,0.6-0.7,0.6-1.1c0-0.4-0.1-0.6-0.3-0.9c-0.2-0.2-0.5-0.4-0.8-0.5c-0.3-0.1-0.8-0.2-1.4-0.4c-0.8-0.2-1.4-0.4-1.9-0.6
			c-0.5-0.2-0.9-0.6-1.2-1c-0.3-0.4-0.5-0.9-0.5-1.6c0-0.6,0.2-1.1,0.5-1.6s0.8-0.8,1.4-1.1c0.6-0.2,1.3-0.4,2.2-0.4
			c0.7,0,1.2,0.1,1.7,0.2c0.5,0.2,0.9,0.4,1.2,0.7c0.3,0.3,0.5,0.6,0.7,0.9s0.2,0.6,0.2,0.9c0,0.3-0.1,0.5-0.3,0.7
			c-0.2,0.2-0.4,0.3-0.7,0.3c-0.2,0-0.4-0.1-0.6-0.2c-0.1-0.1-0.3-0.3-0.4-0.6c-0.2-0.4-0.4-0.7-0.7-0.9c-0.3-0.2-0.7-0.3-1.3-0.3
			c-0.6,0-1,0.1-1.4,0.4c-0.3,0.2-0.5,0.5-0.5,0.9c0,0.2,0.1,0.4,0.2,0.6s0.3,0.3,0.5,0.4c0.2,0.1,0.4,0.2,0.6,0.3
			c0.2,0.1,0.6,0.2,1,0.3c0.6,0.1,1.2,0.3,1.6,0.5c0.5,0.2,0.9,0.4,1.3,0.6c0.3,0.2,0.6,0.6,0.8,0.9
			C265.3,90.4,265.4,90.8,265.4,91.4z"/>
		<path d="M267.8,94.8c-0.3,0-0.6-0.1-0.8-0.3c-0.2-0.2-0.3-0.5-0.3-0.8c0-0.3,0.1-0.6,0.3-0.8c0.2-0.2,0.5-0.3,0.8-0.3
			c0.3,0,0.6,0.1,0.8,0.3c0.2,0.2,0.3,0.5,0.3,0.8c0,0.3-0.1,0.6-0.3,0.8C268.4,94.7,268.1,94.8,267.8,94.8z"/>
		<path d="M278.2,93.4l-0.5-1.3h-4.4l-0.5,1.4c-0.2,0.5-0.4,0.9-0.5,1.1c-0.1,0.2-0.4,0.3-0.7,0.3c-0.3,0-0.5-0.1-0.7-0.3
			s-0.3-0.4-0.3-0.7c0-0.1,0-0.3,0.1-0.5c0-0.2,0.1-0.4,0.2-0.7l2.7-7c0.1-0.2,0.2-0.4,0.3-0.7c0.1-0.3,0.2-0.5,0.4-0.7
			c0.1-0.2,0.3-0.3,0.5-0.5c0.2-0.1,0.5-0.2,0.8-0.2c0.3,0,0.6,0.1,0.8,0.2c0.2,0.1,0.4,0.3,0.5,0.4c0.1,0.2,0.2,0.4,0.3,0.6
			c0.1,0.2,0.2,0.5,0.3,0.8l2.8,6.9c0.2,0.5,0.3,0.9,0.3,1.2c0,0.2-0.1,0.5-0.3,0.7c-0.2,0.2-0.5,0.3-0.8,0.3c-0.2,0-0.3,0-0.4-0.1
			c-0.1-0.1-0.2-0.1-0.3-0.2c-0.1-0.1-0.2-0.3-0.3-0.5C278.4,93.8,278.3,93.6,278.2,93.4z M273.9,90.4h3.2l-1.6-4.4L273.9,90.4z"/>
		<path d="M283.3,94.8c-0.3,0-0.6-0.1-0.8-0.3c-0.2-0.2-0.3-0.5-0.3-0.8c0-0.3,0.1-0.6,0.3-0.8c0.2-0.2,0.5-0.3,0.8-0.3
			c0.3,0,0.6,0.1,0.8,0.3c0.2,0.2,0.3,0.5,0.3,0.8c0,0.3-0.1,0.6-0.3,0.8C283.9,94.7,283.6,94.8,283.3,94.8z"/>
		<path d="M295,91.4c0,0.6-0.2,1.2-0.5,1.8c-0.3,0.5-0.8,0.9-1.5,1.2s-1.4,0.4-2.3,0.4c-1.1,0-1.9-0.2-2.6-0.6
			c-0.5-0.3-0.9-0.7-1.2-1.2c-0.3-0.5-0.5-0.9-0.5-1.4c0-0.3,0.1-0.5,0.3-0.7c0.2-0.2,0.4-0.3,0.7-0.3c0.2,0,0.4,0.1,0.6,0.2
			c0.2,0.1,0.3,0.4,0.4,0.7c0.1,0.3,0.3,0.6,0.4,0.9c0.2,0.2,0.4,0.4,0.7,0.6c0.3,0.1,0.7,0.2,1.1,0.2c0.6,0,1.2-0.1,1.6-0.5
			c0.4-0.3,0.6-0.7,0.6-1.1c0-0.4-0.1-0.6-0.3-0.9c-0.2-0.2-0.5-0.4-0.8-0.5c-0.3-0.1-0.8-0.2-1.4-0.4c-0.8-0.2-1.4-0.4-1.9-0.6
			c-0.5-0.2-0.9-0.6-1.2-1c-0.3-0.4-0.5-0.9-0.5-1.6c0-0.6,0.2-1.1,0.5-1.6s0.8-0.8,1.4-1.1c0.6-0.2,1.3-0.4,2.2-0.4
			c0.7,0,1.2,0.1,1.7,0.2c0.5,0.2,0.9,0.4,1.2,0.7c0.3,0.3,0.5,0.6,0.7,0.9s0.2,0.6,0.2,0.9c0,0.3-0.1,0.5-0.3,0.7
			c-0.2,0.2-0.4,0.3-0.7,0.3c-0.2,0-0.4-0.1-0.6-0.2c-0.1-0.1-0.3-0.3-0.4-0.6c-0.2-0.4-0.4-0.7-0.7-0.9c-0.3-0.2-0.7-0.3-1.3-0.3
			c-0.6,0-1,0.1-1.4,0.4c-0.3,0.2-0.5,0.5-0.5,0.9c0,0.2,0.1,0.4,0.2,0.6s0.3,0.3,0.5,0.4c0.2,0.1,0.4,0.2,0.6,0.3
			c0.2,0.1,0.6,0.2,1,0.3c0.6,0.1,1.2,0.3,1.6,0.5c0.5,0.2,0.9,0.4,1.3,0.6c0.3,0.2,0.6,0.6,0.8,0.9C294.9,90.4,295,90.8,295,91.4z"
			/>
	</g>
	<g>
		<path class="st9" d="M34.8,116.9v-9.9c0-0.5,0.1-0.9,0.4-1.2c0.2-0.3,0.5-0.4,0.9-0.4c0.4,0,0.7,0.1,0.9,0.4
			c0.2,0.3,0.4,0.6,0.4,1.2v9.9c0,0.5-0.1,0.9-0.4,1.2s-0.5,0.4-0.9,0.4c-0.4,0-0.7-0.1-0.9-0.4C34.9,117.8,34.8,117.5,34.8,116.9z"
			/>
		<path class="st9" d="M46.4,117.2v-0.2c-0.3,0.4-0.6,0.7-0.9,0.9c-0.3,0.2-0.6,0.4-1,0.5c-0.4,0.1-0.7,0.2-1.2,0.2
			c-0.6,0-1.1-0.1-1.6-0.4c-0.5-0.2-0.9-0.6-1.2-1c-0.3-0.4-0.6-1-0.8-1.5s-0.3-1.2-0.3-1.9c0-1.5,0.4-2.6,1.1-3.4
			c0.7-0.8,1.6-1.2,2.8-1.2c0.7,0,1.2,0.1,1.7,0.3c0.5,0.2,0.9,0.6,1.4,1.1V107c0-0.5,0.1-0.8,0.3-1.1c0.2-0.2,0.5-0.4,0.8-0.4
			c0.4,0,0.6,0.1,0.8,0.3c0.2,0.2,0.3,0.6,0.3,1v10.3c0,0.4-0.1,0.8-0.3,1c-0.2,0.2-0.5,0.3-0.8,0.3c-0.3,0-0.6-0.1-0.8-0.3
			C46.5,117.9,46.4,117.6,46.4,117.2z M41.8,113.7c0,0.6,0.1,1.2,0.3,1.6c0.2,0.4,0.5,0.8,0.8,1s0.7,0.3,1.1,0.3
			c0.4,0,0.8-0.1,1.1-0.3c0.3-0.2,0.6-0.5,0.8-1s0.3-1,0.3-1.7c0-0.6-0.1-1.2-0.3-1.6c-0.2-0.4-0.5-0.8-0.8-1
			c-0.3-0.2-0.7-0.4-1.1-0.4c-0.4,0-0.8,0.1-1.1,0.4c-0.3,0.2-0.6,0.6-0.8,1C41.9,112.6,41.8,113.1,41.8,113.7z"/>
		<path class="st9" d="M57.5,114.3h-4.6c0,0.5,0.1,1,0.3,1.4s0.5,0.7,0.8,0.9c0.3,0.2,0.7,0.3,1.1,0.3c0.3,0,0.5,0,0.8-0.1
			c0.2-0.1,0.5-0.2,0.7-0.3c0.2-0.1,0.4-0.3,0.6-0.4c0.2-0.2,0.4-0.4,0.7-0.6c0.1-0.1,0.3-0.2,0.5-0.2c0.2,0,0.4,0.1,0.6,0.2
			s0.2,0.3,0.2,0.6c0,0.2-0.1,0.5-0.2,0.7c-0.2,0.3-0.4,0.6-0.7,0.8c-0.3,0.3-0.8,0.5-1.3,0.6s-1.1,0.3-1.7,0.3
			c-1.5,0-2.7-0.4-3.5-1.3c-0.8-0.9-1.2-2-1.2-3.5c0-0.7,0.1-1.3,0.3-1.9c0.2-0.6,0.5-1.1,0.9-1.5c0.4-0.4,0.9-0.7,1.5-1
			c0.6-0.2,1.2-0.3,1.9-0.3c0.9,0,1.7,0.2,2.3,0.6c0.7,0.4,1.1,0.9,1.5,1.5c0.3,0.6,0.5,1.2,0.5,1.9c0,0.6-0.2,1-0.5,1.1
			S58.1,114.3,57.5,114.3z M52.9,113h4.2c-0.1-0.8-0.3-1.4-0.6-1.8c-0.4-0.4-0.9-0.6-1.5-0.6c-0.6,0-1.1,0.2-1.4,0.6
			S53,112.2,52.9,113z"/>
		<path class="st9" d="M67.3,117.2c-0.6,0.4-1.1,0.8-1.6,1c-0.5,0.2-1.1,0.3-1.8,0.3c-0.6,0-1.1-0.1-1.6-0.4s-0.8-0.6-1-1
			c-0.2-0.4-0.4-0.8-0.4-1.3c0-0.6,0.2-1.2,0.6-1.6c0.4-0.4,1-0.8,1.7-0.9c0.1,0,0.5-0.1,1.1-0.2c0.6-0.1,1.1-0.2,1.5-0.3
			c0.4-0.1,0.9-0.2,1.4-0.4c0-0.6-0.2-1.1-0.4-1.4c-0.2-0.3-0.7-0.4-1.4-0.4c-0.6,0-1,0.1-1.3,0.2c-0.3,0.2-0.6,0.4-0.8,0.7
			c-0.2,0.3-0.4,0.5-0.5,0.7c-0.1,0.1-0.3,0.2-0.6,0.2c-0.3,0-0.5-0.1-0.7-0.3c-0.2-0.2-0.3-0.4-0.3-0.6c0-0.4,0.1-0.8,0.4-1.2
			s0.7-0.7,1.4-1s1.4-0.4,2.3-0.4c1,0,1.8,0.1,2.4,0.4c0.6,0.2,1,0.6,1.2,1.1c0.2,0.5,0.4,1.2,0.4,2.1c0,0.5,0,1,0,1.4s0,0.8,0,1.3
			c0,0.4,0.1,0.9,0.2,1.4s0.2,0.8,0.2,0.9c0,0.2-0.1,0.5-0.3,0.7s-0.5,0.3-0.8,0.3c-0.2,0-0.5-0.1-0.7-0.3S67.5,117.6,67.3,117.2z
			 M67.1,113.8c-0.3,0.1-0.8,0.3-1.5,0.4c-0.7,0.1-1.1,0.2-1.4,0.3c-0.3,0.1-0.5,0.2-0.7,0.4c-0.2,0.2-0.3,0.5-0.3,0.8
			c0,0.4,0.1,0.7,0.4,0.9c0.3,0.2,0.6,0.4,1.1,0.4c0.5,0,0.9-0.1,1.3-0.3s0.7-0.5,0.9-0.8c0.2-0.4,0.3-0.9,0.3-1.7V113.8z"/>
		<path class="st9" d="M79.3,115.4c0,0.6-0.2,1.2-0.5,1.7c-0.3,0.5-0.8,0.8-1.4,1s-1.4,0.4-2.2,0.4c-0.8,0-1.6-0.1-2.2-0.4
			c-0.6-0.3-1-0.6-1.3-1c-0.3-0.4-0.4-0.8-0.4-1.2c0-0.3,0.1-0.5,0.3-0.7c0.2-0.2,0.4-0.3,0.7-0.3c0.2,0,0.4,0.1,0.6,0.2
			s0.3,0.3,0.4,0.5c0.2,0.4,0.5,0.7,0.9,0.9c0.3,0.2,0.8,0.3,1.4,0.3c0.5,0,0.9-0.1,1.1-0.3c0.3-0.2,0.4-0.4,0.4-0.7
			c0-0.4-0.2-0.7-0.5-0.9c-0.3-0.2-0.8-0.4-1.5-0.5c-0.8-0.2-1.5-0.4-2-0.6c-0.5-0.2-0.9-0.5-1.2-0.9c-0.3-0.4-0.5-0.8-0.5-1.3
			c0-0.5,0.1-0.9,0.4-1.3c0.3-0.4,0.7-0.7,1.2-1s1.2-0.4,2-0.4c0.6,0,1.1,0.1,1.6,0.2c0.5,0.1,0.9,0.3,1.2,0.5
			c0.3,0.2,0.6,0.4,0.7,0.7c0.2,0.3,0.3,0.5,0.3,0.8c0,0.3-0.1,0.5-0.3,0.7c-0.2,0.2-0.4,0.3-0.8,0.3c-0.2,0-0.4-0.1-0.6-0.2
			s-0.4-0.3-0.6-0.6c-0.2-0.2-0.4-0.4-0.6-0.5c-0.2-0.1-0.6-0.2-1-0.2c-0.4,0-0.8,0.1-1.1,0.3c-0.3,0.2-0.4,0.4-0.4,0.7
			c0,0.2,0.1,0.4,0.3,0.6c0.2,0.2,0.5,0.3,0.8,0.4s0.8,0.2,1.4,0.4c0.7,0.2,1.3,0.4,1.8,0.6c0.5,0.2,0.8,0.5,1,0.9
			C79.1,114.6,79.3,115,79.3,115.4z"/>
		<path class="st9" d="M87.9,115.1v1.9c0,0.5-0.1,0.8-0.3,1.1c-0.2,0.2-0.5,0.4-0.8,0.4c-0.3,0-0.6-0.1-0.8-0.4
			c-0.2-0.2-0.3-0.6-0.3-1.1v-6.5c0-1,0.4-1.6,1.1-1.6c0.4,0,0.7,0.1,0.8,0.4c0.2,0.2,0.3,0.6,0.3,1.1c0.3-0.5,0.6-0.8,0.9-1.1
			c0.3-0.2,0.7-0.4,1.2-0.4c0.5,0,1,0.1,1.4,0.4c0.5,0.2,0.7,0.6,0.7,1c0,0.3-0.1,0.5-0.3,0.7s-0.4,0.3-0.6,0.3
			c-0.1,0-0.3-0.1-0.6-0.2c-0.3-0.1-0.6-0.2-0.9-0.2c-0.3,0-0.6,0.1-0.8,0.3c-0.2,0.2-0.4,0.4-0.5,0.8c-0.1,0.4-0.2,0.8-0.2,1.3
			S87.9,114.4,87.9,115.1z"/>
		<path class="st9" d="M99.4,114.3h-4.6c0,0.5,0.1,1,0.3,1.4s0.5,0.7,0.8,0.9c0.3,0.2,0.7,0.3,1.1,0.3c0.3,0,0.5,0,0.8-0.1
			c0.2-0.1,0.5-0.2,0.7-0.3c0.2-0.1,0.4-0.3,0.6-0.4c0.2-0.2,0.4-0.4,0.7-0.6c0.1-0.1,0.3-0.2,0.5-0.2c0.2,0,0.4,0.1,0.6,0.2
			s0.2,0.3,0.2,0.6c0,0.2-0.1,0.5-0.2,0.7c-0.2,0.3-0.4,0.6-0.7,0.8c-0.3,0.3-0.8,0.5-1.3,0.6s-1.1,0.3-1.7,0.3
			c-1.5,0-2.7-0.4-3.5-1.3c-0.8-0.9-1.2-2-1.2-3.5c0-0.7,0.1-1.3,0.3-1.9c0.2-0.6,0.5-1.1,0.9-1.5c0.4-0.4,0.9-0.7,1.5-1
			c0.6-0.2,1.2-0.3,1.9-0.3c0.9,0,1.7,0.2,2.3,0.6c0.7,0.4,1.1,0.9,1.5,1.5c0.3,0.6,0.5,1.2,0.5,1.9c0,0.6-0.2,1-0.5,1.1
			S100,114.3,99.4,114.3z M94.8,113H99c-0.1-0.8-0.3-1.4-0.6-1.8c-0.4-0.4-0.9-0.6-1.5-0.6c-0.6,0-1.1,0.2-1.4,0.6
			S94.9,112.2,94.8,113z"/>
		<path class="st9" d="M109.1,117.2c-0.6,0.4-1.1,0.8-1.6,1c-0.5,0.2-1.1,0.3-1.8,0.3c-0.6,0-1.1-0.1-1.6-0.4c-0.5-0.2-0.8-0.6-1-1
			c-0.2-0.4-0.4-0.8-0.4-1.3c0-0.6,0.2-1.2,0.6-1.6c0.4-0.4,1-0.8,1.7-0.9c0.1,0,0.5-0.1,1.1-0.2c0.6-0.1,1.1-0.2,1.5-0.3
			s0.9-0.2,1.4-0.4c0-0.6-0.2-1.1-0.4-1.4c-0.2-0.3-0.7-0.4-1.4-0.4c-0.6,0-1,0.1-1.3,0.2c-0.3,0.2-0.6,0.4-0.8,0.7
			c-0.2,0.3-0.4,0.5-0.5,0.7s-0.3,0.2-0.6,0.2c-0.3,0-0.5-0.1-0.7-0.3c-0.2-0.2-0.3-0.4-0.3-0.6c0-0.4,0.1-0.8,0.4-1.2
			c0.3-0.4,0.7-0.7,1.4-1s1.4-0.4,2.3-0.4c1,0,1.8,0.1,2.4,0.4s1,0.6,1.2,1.1c0.2,0.5,0.4,1.2,0.4,2.1c0,0.5,0,1,0,1.4
			c0,0.4,0,0.8,0,1.3c0,0.4,0.1,0.9,0.2,1.4c0.1,0.5,0.2,0.8,0.2,0.9c0,0.2-0.1,0.5-0.3,0.7c-0.2,0.2-0.5,0.3-0.8,0.3
			c-0.2,0-0.5-0.1-0.7-0.3C109.6,117.9,109.4,117.6,109.1,117.2z M109,113.8c-0.3,0.1-0.8,0.3-1.5,0.4s-1.1,0.2-1.4,0.3
			s-0.5,0.2-0.7,0.4c-0.2,0.2-0.3,0.5-0.3,0.8c0,0.4,0.1,0.7,0.4,0.9c0.3,0.2,0.6,0.4,1.1,0.4c0.5,0,0.9-0.1,1.3-0.3
			c0.4-0.2,0.7-0.5,0.9-0.8c0.2-0.4,0.3-0.9,0.3-1.7V113.8z"/>
		<path class="st9" d="M113.6,117.1V107c0-0.5,0.1-0.8,0.3-1.1s0.5-0.4,0.8-0.4c0.4,0,0.6,0.1,0.9,0.4s0.3,0.6,0.3,1.1v10.1
			c0,0.5-0.1,0.8-0.3,1.1c-0.2,0.2-0.5,0.4-0.9,0.4c-0.3,0-0.6-0.1-0.8-0.4C113.7,117.9,113.6,117.5,113.6,117.1z"/>
		<path class="st9" d="M119.6,107.9c-0.3,0-0.6-0.1-0.8-0.3s-0.3-0.5-0.3-0.8c0-0.3,0.1-0.6,0.4-0.8c0.2-0.2,0.5-0.3,0.8-0.3
			c0.3,0,0.6,0.1,0.8,0.3c0.2,0.2,0.3,0.5,0.3,0.8c0,0.4-0.1,0.6-0.3,0.8C120.1,107.8,119.9,107.9,119.6,107.9z M120.7,110.3v6.7
			c0,0.5-0.1,0.8-0.3,1.1c-0.2,0.2-0.5,0.4-0.8,0.4s-0.6-0.1-0.8-0.4c-0.2-0.2-0.3-0.6-0.3-1.1v-6.7c0-0.5,0.1-0.8,0.3-1
			c0.2-0.2,0.5-0.4,0.8-0.4s0.6,0.1,0.8,0.4C120.6,109.6,120.7,109.9,120.7,110.3z"/>
		<path class="st9" d="M129.5,111.7l-4.3,4.8h4.6c0.4,0,0.7,0.1,0.8,0.3s0.3,0.4,0.3,0.7c0,0.3-0.1,0.5-0.3,0.6
			c-0.2,0.2-0.5,0.2-0.8,0.2h-6.3c-0.4,0-0.8-0.1-1-0.3c-0.2-0.2-0.3-0.5-0.3-0.8c0-0.2,0.1-0.4,0.2-0.6c0.2-0.2,0.5-0.6,1-1.1
			c0.5-0.6,1-1.1,1.4-1.5c0.4-0.5,0.8-0.9,1.2-1.3c0.4-0.4,0.7-0.7,0.9-1c0.2-0.3,0.4-0.5,0.6-0.7h-3.5c-0.5,0-0.8,0-1.1-0.1
			c-0.2-0.1-0.4-0.3-0.4-0.7c0-0.3,0.1-0.5,0.3-0.6c0.2-0.2,0.4-0.2,0.8-0.2h5.4c0.5,0,0.9,0.1,1.1,0.2c0.3,0.1,0.4,0.4,0.4,0.8
			c0,0.1,0,0.3-0.1,0.4s-0.1,0.2-0.2,0.3s-0.1,0.2-0.3,0.3C129.8,111.4,129.6,111.5,129.5,111.7z"/>
		<path class="st9" d="M138.1,117.2c-0.6,0.4-1.1,0.8-1.6,1c-0.5,0.2-1.1,0.3-1.8,0.3c-0.6,0-1.1-0.1-1.6-0.4s-0.8-0.6-1-1
			c-0.2-0.4-0.4-0.8-0.4-1.3c0-0.6,0.2-1.2,0.6-1.6c0.4-0.4,1-0.8,1.7-0.9c0.1,0,0.5-0.1,1.1-0.2c0.6-0.1,1.1-0.2,1.5-0.3
			c0.4-0.1,0.9-0.2,1.4-0.4c0-0.6-0.2-1.1-0.4-1.4c-0.2-0.3-0.7-0.4-1.4-0.4c-0.6,0-1,0.1-1.3,0.2c-0.3,0.2-0.6,0.4-0.8,0.7
			c-0.2,0.3-0.4,0.5-0.5,0.7c-0.1,0.1-0.3,0.2-0.6,0.2c-0.3,0-0.5-0.1-0.7-0.3c-0.2-0.2-0.3-0.4-0.3-0.6c0-0.4,0.1-0.8,0.4-1.2
			s0.7-0.7,1.4-1s1.4-0.4,2.3-0.4c1,0,1.8,0.1,2.4,0.4c0.6,0.2,1,0.6,1.2,1.1c0.2,0.5,0.4,1.2,0.4,2.1c0,0.5,0,1,0,1.4s0,0.8,0,1.3
			c0,0.4,0.1,0.9,0.2,1.4s0.2,0.8,0.2,0.9c0,0.2-0.1,0.5-0.3,0.7s-0.5,0.3-0.8,0.3c-0.2,0-0.5-0.1-0.7-0.3S138.4,117.6,138.1,117.2z
			 M138,113.8c-0.3,0.1-0.8,0.3-1.5,0.4c-0.7,0.1-1.1,0.2-1.4,0.3c-0.3,0.1-0.5,0.2-0.7,0.4c-0.2,0.2-0.3,0.5-0.3,0.8
			c0,0.4,0.1,0.7,0.4,0.9c0.3,0.2,0.6,0.4,1.1,0.4c0.5,0,0.9-0.1,1.3-0.3s0.7-0.5,0.9-0.8c0.2-0.4,0.3-0.9,0.3-1.7V113.8z"/>
		<path class="st9" d="M144.6,106.9v3.6c0.4-0.5,0.9-0.8,1.3-1c0.5-0.2,1-0.4,1.7-0.4c0.8,0,1.5,0.2,2,0.6c0.6,0.4,1,0.9,1.4,1.6
			c0.3,0.7,0.5,1.5,0.5,2.5c0,0.7-0.1,1.4-0.3,1.9c-0.2,0.6-0.4,1.1-0.8,1.5c-0.3,0.4-0.8,0.8-1.2,1s-1,0.4-1.6,0.4
			c-0.4,0-0.7,0-1-0.1c-0.3-0.1-0.6-0.2-0.8-0.3s-0.4-0.3-0.6-0.4s-0.4-0.4-0.6-0.7v0.2c0,0.4-0.1,0.8-0.3,1s-0.5,0.3-0.8,0.3
			c-0.3,0-0.6-0.1-0.8-0.3c-0.2-0.2-0.3-0.6-0.3-1V107c0-0.5,0.1-0.8,0.3-1.1c0.2-0.2,0.5-0.4,0.8-0.4c0.4,0,0.6,0.1,0.8,0.3
			S144.6,106.4,144.6,106.9z M144.7,113.8c0,0.9,0.2,1.6,0.6,2.1c0.4,0.5,1,0.7,1.7,0.7c0.6,0,1.1-0.3,1.5-0.8
			c0.4-0.5,0.6-1.2,0.6-2.2c0-0.6-0.1-1.1-0.3-1.6c-0.2-0.4-0.4-0.8-0.8-1c-0.3-0.2-0.7-0.4-1.1-0.4c-0.4,0-0.8,0.1-1.2,0.4
			s-0.6,0.6-0.8,1.1C144.8,112.6,144.7,113.2,144.7,113.8z"/>
		<path class="st9" d="M153.1,117.1V107c0-0.5,0.1-0.8,0.3-1.1s0.5-0.4,0.8-0.4s0.6,0.1,0.9,0.4s0.3,0.6,0.3,1.1v10.1
			c0,0.5-0.1,0.8-0.3,1.1c-0.2,0.2-0.5,0.4-0.9,0.4c-0.3,0-0.6-0.1-0.8-0.4C153.2,117.9,153.1,117.5,153.1,117.1z"/>
		<path class="st9" d="M164.4,114.3h-4.6c0,0.5,0.1,1,0.3,1.4s0.5,0.7,0.8,0.9c0.3,0.2,0.7,0.3,1.1,0.3c0.3,0,0.5,0,0.8-0.1
			c0.2-0.1,0.5-0.2,0.7-0.3c0.2-0.1,0.4-0.3,0.6-0.4s0.4-0.4,0.7-0.6c0.1-0.1,0.3-0.2,0.5-0.2c0.2,0,0.4,0.1,0.6,0.2
			c0.1,0.1,0.2,0.3,0.2,0.6c0,0.2-0.1,0.5-0.2,0.7c-0.2,0.3-0.4,0.6-0.7,0.8c-0.3,0.3-0.8,0.5-1.3,0.6c-0.5,0.2-1.1,0.3-1.7,0.3
			c-1.5,0-2.7-0.4-3.5-1.3s-1.2-2-1.2-3.5c0-0.7,0.1-1.3,0.3-1.9c0.2-0.6,0.5-1.1,0.9-1.5c0.4-0.4,0.9-0.7,1.5-1
			c0.6-0.2,1.2-0.3,1.9-0.3c0.9,0,1.7,0.2,2.3,0.6c0.7,0.4,1.1,0.9,1.5,1.5c0.3,0.6,0.5,1.2,0.5,1.9c0,0.6-0.2,1-0.5,1.1
			C165.5,114.2,165,114.3,164.4,114.3z M159.8,113h4.2c-0.1-0.8-0.3-1.4-0.6-1.8c-0.4-0.4-0.9-0.6-1.5-0.6c-0.6,0-1.1,0.2-1.4,0.6
			S159.9,112.2,159.8,113z"/>
		<path class="st9" d="M175.8,115.4c0,0.6-0.2,1.2-0.5,1.7c-0.3,0.5-0.8,0.8-1.4,1s-1.4,0.4-2.2,0.4c-0.8,0-1.6-0.1-2.2-0.4
			c-0.6-0.3-1-0.6-1.3-1c-0.3-0.4-0.4-0.8-0.4-1.2c0-0.3,0.1-0.5,0.3-0.7c0.2-0.2,0.4-0.3,0.7-0.3c0.2,0,0.4,0.1,0.6,0.2
			s0.3,0.3,0.4,0.5c0.2,0.4,0.5,0.7,0.9,0.9c0.3,0.2,0.8,0.3,1.4,0.3c0.5,0,0.9-0.1,1.1-0.3s0.4-0.4,0.4-0.7c0-0.4-0.2-0.7-0.5-0.9
			c-0.3-0.2-0.8-0.4-1.5-0.5c-0.8-0.2-1.5-0.4-2-0.6s-0.9-0.5-1.2-0.9c-0.3-0.4-0.5-0.8-0.5-1.3c0-0.5,0.1-0.9,0.4-1.3
			c0.3-0.4,0.7-0.7,1.2-1s1.2-0.4,2-0.4c0.6,0,1.1,0.1,1.6,0.2s0.9,0.3,1.2,0.5c0.3,0.2,0.6,0.4,0.7,0.7c0.2,0.3,0.3,0.5,0.3,0.8
			c0,0.3-0.1,0.5-0.3,0.7c-0.2,0.2-0.4,0.3-0.8,0.3c-0.2,0-0.4-0.1-0.6-0.2s-0.4-0.3-0.6-0.6c-0.2-0.2-0.4-0.4-0.6-0.5
			c-0.2-0.1-0.6-0.2-1-0.2c-0.4,0-0.8,0.1-1.1,0.3c-0.3,0.2-0.4,0.4-0.4,0.7c0,0.2,0.1,0.4,0.3,0.6c0.2,0.2,0.5,0.3,0.8,0.4
			c0.3,0.1,0.8,0.2,1.4,0.4c0.7,0.2,1.3,0.4,1.8,0.6c0.5,0.2,0.8,0.5,1,0.9S175.8,115,175.8,115.4z"/>
		<path class="st9" d="M184.3,118.8l0.2-0.5l-2.9-7.2c-0.2-0.4-0.3-0.7-0.3-0.9c0-0.2,0.1-0.4,0.2-0.6s0.2-0.3,0.4-0.4
			s0.4-0.2,0.6-0.2c0.3,0,0.6,0.1,0.8,0.3c0.2,0.2,0.3,0.5,0.5,0.9l2,5.7l1.9-5.3c0.1-0.4,0.3-0.8,0.4-1c0.1-0.2,0.2-0.4,0.4-0.5
			c0.1-0.1,0.3-0.1,0.6-0.1c0.2,0,0.3,0,0.5,0.1c0.2,0.1,0.3,0.2,0.4,0.4s0.1,0.3,0.1,0.5c0,0.1-0.1,0.3-0.1,0.5s-0.1,0.4-0.2,0.6
			l-3,8c-0.3,0.7-0.5,1.3-0.8,1.6c-0.3,0.4-0.6,0.7-1,0.9c-0.4,0.2-1,0.3-1.7,0.3c-0.7,0-1.2-0.1-1.5-0.2s-0.5-0.4-0.5-0.8
			c0-0.3,0.1-0.5,0.2-0.6c0.2-0.1,0.4-0.2,0.7-0.2c0.1,0,0.2,0,0.4,0.1c0.1,0,0.3,0.1,0.4,0.1c0.3,0,0.5,0,0.6-0.1
			c0.2-0.1,0.3-0.2,0.4-0.4C184,119.4,184.1,119.2,184.3,118.8z"/>
		<path class="st9" d="M198.1,110.3v0.3c0.4-0.5,0.9-0.9,1.4-1.2c0.5-0.3,1-0.4,1.6-0.4c0.7,0,1.4,0.2,2,0.6
			c0.6,0.4,1.1,0.9,1.4,1.6c0.4,0.7,0.5,1.6,0.5,2.5c0,0.7-0.1,1.4-0.3,2c-0.2,0.6-0.5,1.1-0.8,1.5c-0.4,0.4-0.8,0.7-1.3,0.9
			c-0.5,0.2-1,0.3-1.6,0.3c-0.7,0-1.2-0.1-1.7-0.4c-0.5-0.3-0.9-0.7-1.3-1.2v3.5c0,1-0.4,1.5-1.1,1.5c-0.4,0-0.7-0.1-0.9-0.4
			c-0.1-0.3-0.2-0.7-0.2-1.2v-10.1c0-0.4,0.1-0.8,0.3-1c0.2-0.2,0.5-0.3,0.8-0.3c0.3,0,0.6,0.1,0.8,0.3S198.1,109.9,198.1,110.3z
			 M202.7,113.7c0-0.6-0.1-1.1-0.3-1.6c-0.2-0.4-0.4-0.8-0.8-1c-0.3-0.2-0.7-0.4-1.1-0.4c-0.6,0-1.2,0.3-1.6,0.8
			c-0.4,0.5-0.7,1.3-0.7,2.2c0,0.9,0.2,1.7,0.7,2.2s1,0.8,1.6,0.8c0.4,0,0.7-0.1,1.1-0.3s0.6-0.6,0.8-1
			C202.6,114.9,202.7,114.3,202.7,113.7z"/>
		<path class="st9" d="M213.4,114.3h-4.6c0,0.5,0.1,1,0.3,1.4s0.5,0.7,0.8,0.9c0.3,0.2,0.7,0.3,1.1,0.3c0.3,0,0.5,0,0.8-0.1
			c0.2-0.1,0.5-0.2,0.7-0.3c0.2-0.1,0.4-0.3,0.6-0.4s0.4-0.4,0.7-0.6c0.1-0.1,0.3-0.2,0.5-0.2c0.2,0,0.4,0.1,0.6,0.2
			c0.1,0.1,0.2,0.3,0.2,0.6c0,0.2-0.1,0.5-0.2,0.7c-0.2,0.3-0.4,0.6-0.7,0.8c-0.3,0.3-0.8,0.5-1.3,0.6c-0.5,0.2-1.1,0.3-1.7,0.3
			c-1.5,0-2.7-0.4-3.5-1.3s-1.2-2-1.2-3.5c0-0.7,0.1-1.3,0.3-1.9c0.2-0.6,0.5-1.1,0.9-1.5c0.4-0.4,0.9-0.7,1.5-1
			c0.6-0.2,1.2-0.3,1.9-0.3c0.9,0,1.7,0.2,2.3,0.6c0.7,0.4,1.1,0.9,1.5,1.5c0.3,0.6,0.5,1.2,0.5,1.9c0,0.6-0.2,1-0.5,1.1
			C214.5,114.2,214,114.3,213.4,114.3z M208.9,113h4.2c-0.1-0.8-0.3-1.4-0.6-1.8c-0.4-0.4-0.9-0.6-1.5-0.6c-0.6,0-1.1,0.2-1.4,0.6
			S208.9,112.2,208.9,113z"/>
		<path class="st9" d="M219.6,115.1v1.9c0,0.5-0.1,0.8-0.3,1.1c-0.2,0.2-0.5,0.4-0.8,0.4c-0.3,0-0.6-0.1-0.8-0.4
			c-0.2-0.2-0.3-0.6-0.3-1.1v-6.5c0-1,0.4-1.6,1.1-1.6c0.4,0,0.7,0.1,0.8,0.4c0.2,0.2,0.3,0.6,0.3,1.1c0.3-0.5,0.6-0.8,0.9-1.1
			c0.3-0.2,0.7-0.4,1.2-0.4c0.5,0,1,0.1,1.4,0.4c0.5,0.2,0.7,0.6,0.7,1c0,0.3-0.1,0.5-0.3,0.7s-0.4,0.3-0.6,0.3
			c-0.1,0-0.3-0.1-0.6-0.2c-0.3-0.1-0.6-0.2-0.9-0.2c-0.3,0-0.6,0.1-0.8,0.3s-0.4,0.4-0.5,0.8c-0.1,0.4-0.2,0.8-0.2,1.3
			S219.6,114.4,219.6,115.1z"/>
		<path class="st9" d="M230.9,117.2v-0.2c-0.3,0.4-0.6,0.7-0.9,0.9c-0.3,0.2-0.6,0.4-1,0.5c-0.4,0.1-0.7,0.2-1.2,0.2
			c-0.6,0-1.1-0.1-1.6-0.4s-0.9-0.6-1.2-1c-0.3-0.4-0.6-1-0.8-1.5s-0.3-1.2-0.3-1.9c0-1.5,0.4-2.6,1.1-3.4s1.6-1.2,2.8-1.2
			c0.7,0,1.2,0.1,1.7,0.3c0.5,0.2,0.9,0.6,1.4,1.1V107c0-0.5,0.1-0.8,0.3-1.1c0.2-0.2,0.5-0.4,0.8-0.4c0.4,0,0.6,0.1,0.8,0.3
			c0.2,0.2,0.3,0.6,0.3,1v10.3c0,0.4-0.1,0.8-0.3,1c-0.2,0.2-0.5,0.3-0.8,0.3c-0.3,0-0.6-0.1-0.8-0.3
			C231,117.9,230.9,117.6,230.9,117.2z M226.3,113.7c0,0.6,0.1,1.2,0.3,1.6s0.5,0.8,0.8,1s0.7,0.3,1.1,0.3c0.4,0,0.8-0.1,1.1-0.3
			c0.3-0.2,0.6-0.5,0.8-1s0.3-1,0.3-1.7c0-0.6-0.1-1.2-0.3-1.6c-0.2-0.4-0.5-0.8-0.8-1c-0.3-0.2-0.7-0.4-1.1-0.4
			c-0.4,0-0.8,0.1-1.1,0.4s-0.6,0.6-0.8,1C226.4,112.6,226.3,113.1,226.3,113.7z"/>
		<path class="st9" d="M241.5,117.2v-0.3c-0.3,0.4-0.6,0.6-0.9,0.9s-0.6,0.4-1,0.5c-0.4,0.1-0.8,0.2-1.2,0.2c-0.6,0-1.1-0.1-1.5-0.4
			c-0.4-0.2-0.8-0.6-1-1c-0.3-0.5-0.4-1.2-0.4-2.1v-4.6c0-0.5,0.1-0.8,0.3-1c0.2-0.2,0.5-0.3,0.8-0.3c0.4,0,0.6,0.1,0.9,0.4
			s0.3,0.6,0.3,1v3.7c0,0.5,0,1,0.1,1.4c0.1,0.4,0.3,0.7,0.5,0.9c0.2,0.2,0.6,0.3,1,0.3c0.4,0,0.8-0.1,1.1-0.4
			c0.3-0.2,0.6-0.5,0.8-0.9c0.1-0.3,0.2-1.1,0.2-2.2v-2.8c0-0.5,0.1-0.8,0.3-1s0.5-0.4,0.8-0.4s0.6,0.1,0.8,0.3
			c0.2,0.2,0.3,0.6,0.3,1v6.8c0,0.4-0.1,0.8-0.3,1c-0.2,0.2-0.5,0.3-0.8,0.3s-0.6-0.1-0.8-0.3C241.6,117.9,241.5,117.6,241.5,117.2z
			"/>
		<path class="st9" d="M248.4,115.1v1.9c0,0.5-0.1,0.8-0.3,1.1c-0.2,0.2-0.5,0.4-0.8,0.4c-0.3,0-0.6-0.1-0.8-0.4
			c-0.2-0.2-0.3-0.6-0.3-1.1v-6.5c0-1,0.4-1.6,1.1-1.6c0.4,0,0.7,0.1,0.8,0.4c0.2,0.2,0.3,0.6,0.3,1.1c0.3-0.5,0.6-0.8,0.9-1.1
			c0.3-0.2,0.7-0.4,1.2-0.4c0.5,0,1,0.1,1.4,0.4c0.5,0.2,0.7,0.6,0.7,1c0,0.3-0.1,0.5-0.3,0.7s-0.4,0.3-0.6,0.3
			c-0.1,0-0.3-0.1-0.6-0.2c-0.3-0.1-0.6-0.2-0.9-0.2c-0.3,0-0.6,0.1-0.8,0.3s-0.4,0.4-0.5,0.8c-0.1,0.4-0.2,0.8-0.2,1.3
			S248.4,114.4,248.4,115.1z"/>
		<path class="st9" d="M259.2,117.2c-0.6,0.4-1.1,0.8-1.6,1c-0.5,0.2-1.1,0.3-1.8,0.3c-0.6,0-1.1-0.1-1.6-0.4c-0.5-0.2-0.8-0.6-1-1
			c-0.2-0.4-0.4-0.8-0.4-1.3c0-0.6,0.2-1.2,0.6-1.6c0.4-0.4,1-0.8,1.7-0.9c0.1,0,0.5-0.1,1.1-0.2c0.6-0.1,1.1-0.2,1.5-0.3
			s0.9-0.2,1.4-0.4c0-0.6-0.2-1.1-0.4-1.4c-0.2-0.3-0.7-0.4-1.4-0.4c-0.6,0-1,0.1-1.3,0.2s-0.6,0.4-0.8,0.7
			c-0.2,0.3-0.4,0.5-0.5,0.7c-0.1,0.1-0.3,0.2-0.6,0.2c-0.3,0-0.5-0.1-0.7-0.3c-0.2-0.2-0.3-0.4-0.3-0.6c0-0.4,0.1-0.8,0.4-1.2
			c0.3-0.4,0.7-0.7,1.4-1s1.4-0.4,2.3-0.4c1,0,1.8,0.1,2.4,0.4c0.6,0.2,1,0.6,1.2,1.1c0.2,0.5,0.4,1.2,0.4,2.1c0,0.5,0,1,0,1.4
			s0,0.8,0,1.3c0,0.4,0.1,0.9,0.2,1.4c0.1,0.5,0.2,0.8,0.2,0.9c0,0.2-0.1,0.5-0.3,0.7c-0.2,0.2-0.5,0.3-0.8,0.3
			c-0.2,0-0.5-0.1-0.7-0.3C259.7,117.9,259.4,117.6,259.2,117.2z M259,113.8c-0.3,0.1-0.8,0.3-1.5,0.4s-1.1,0.2-1.4,0.3
			s-0.5,0.2-0.7,0.4c-0.2,0.2-0.3,0.5-0.3,0.8c0,0.4,0.1,0.7,0.4,0.9s0.6,0.4,1.1,0.4c0.5,0,0.9-0.1,1.3-0.3
			c0.4-0.2,0.7-0.5,0.9-0.8c0.2-0.4,0.3-0.9,0.3-1.7V113.8z"/>
		<path class="st9" d="M265.6,106.9v3.6c0.4-0.5,0.9-0.8,1.3-1c0.5-0.2,1-0.4,1.7-0.4c0.8,0,1.5,0.2,2,0.6s1,0.9,1.4,1.6
			c0.3,0.7,0.5,1.5,0.5,2.5c0,0.7-0.1,1.4-0.3,1.9s-0.4,1.1-0.8,1.5c-0.3,0.4-0.8,0.8-1.2,1s-1,0.4-1.6,0.4c-0.4,0-0.7,0-1-0.1
			c-0.3-0.1-0.6-0.2-0.8-0.3s-0.4-0.3-0.6-0.4s-0.4-0.4-0.6-0.7v0.2c0,0.4-0.1,0.8-0.3,1s-0.5,0.3-0.8,0.3c-0.3,0-0.6-0.1-0.8-0.3
			s-0.3-0.6-0.3-1V107c0-0.5,0.1-0.8,0.3-1.1c0.2-0.2,0.5-0.4,0.8-0.4c0.4,0,0.6,0.1,0.8,0.3S265.6,106.4,265.6,106.9z M265.7,113.8
			c0,0.9,0.2,1.6,0.6,2.1c0.4,0.5,1,0.7,1.7,0.7c0.6,0,1.1-0.3,1.5-0.8c0.4-0.5,0.6-1.2,0.6-2.2c0-0.6-0.1-1.1-0.3-1.6
			c-0.2-0.4-0.4-0.8-0.8-1c-0.3-0.2-0.7-0.4-1.1-0.4c-0.4,0-0.8,0.1-1.2,0.4c-0.3,0.2-0.6,0.6-0.8,1.1
			C265.8,112.6,265.7,113.2,265.7,113.8z"/>
		<path class="st9" d="M274.1,117.1V107c0-0.5,0.1-0.8,0.3-1.1s0.5-0.4,0.8-0.4s0.6,0.1,0.9,0.4s0.3,0.6,0.3,1.1v10.1
			c0,0.5-0.1,0.8-0.3,1.1c-0.2,0.2-0.5,0.4-0.9,0.4c-0.3,0-0.6-0.1-0.8-0.4C274.2,117.9,274.1,117.5,274.1,117.1z"/>
		<path class="st9" d="M285.4,114.3h-4.6c0,0.5,0.1,1,0.3,1.4s0.5,0.7,0.8,0.9c0.3,0.2,0.7,0.3,1.1,0.3c0.3,0,0.5,0,0.8-0.1
			c0.2-0.1,0.5-0.2,0.7-0.3c0.2-0.1,0.4-0.3,0.6-0.4s0.4-0.4,0.7-0.6c0.1-0.1,0.3-0.2,0.5-0.2c0.2,0,0.4,0.1,0.6,0.2
			c0.1,0.1,0.2,0.3,0.2,0.6c0,0.2-0.1,0.5-0.2,0.7c-0.2,0.3-0.4,0.6-0.7,0.8c-0.3,0.3-0.8,0.5-1.3,0.6c-0.5,0.2-1.1,0.3-1.7,0.3
			c-1.5,0-2.7-0.4-3.5-1.3s-1.2-2-1.2-3.5c0-0.7,0.1-1.3,0.3-1.9c0.2-0.6,0.5-1.1,0.9-1.5c0.4-0.4,0.9-0.7,1.5-1
			c0.6-0.2,1.2-0.3,1.9-0.3c0.9,0,1.7,0.2,2.3,0.6c0.7,0.4,1.1,0.9,1.5,1.5c0.3,0.6,0.5,1.2,0.5,1.9c0,0.6-0.2,1-0.5,1.1
			C286.5,114.2,286,114.3,285.4,114.3z M280.8,113h4.2c-0.1-0.8-0.3-1.4-0.6-1.8c-0.4-0.4-0.9-0.6-1.5-0.6c-0.6,0-1.1,0.2-1.4,0.6
			S280.9,112.2,280.8,113z"/>
		<path class="st9" d="M296.8,115.4c0,0.6-0.2,1.2-0.5,1.7c-0.3,0.5-0.8,0.8-1.4,1s-1.4,0.4-2.2,0.4c-0.8,0-1.6-0.1-2.2-0.4
			c-0.6-0.3-1-0.6-1.3-1c-0.3-0.4-0.4-0.8-0.4-1.2c0-0.3,0.1-0.5,0.3-0.7c0.2-0.2,0.4-0.3,0.7-0.3c0.2,0,0.4,0.1,0.6,0.2
			s0.3,0.3,0.4,0.5c0.2,0.4,0.5,0.7,0.9,0.9c0.3,0.2,0.8,0.3,1.4,0.3c0.5,0,0.9-0.1,1.1-0.3s0.4-0.4,0.4-0.7c0-0.4-0.2-0.7-0.5-0.9
			c-0.3-0.2-0.8-0.4-1.5-0.5c-0.8-0.2-1.5-0.4-2-0.6s-0.9-0.5-1.2-0.9c-0.3-0.4-0.5-0.8-0.5-1.3c0-0.5,0.1-0.9,0.4-1.3
			c0.3-0.4,0.7-0.7,1.2-1s1.2-0.4,2-0.4c0.6,0,1.1,0.1,1.6,0.2s0.9,0.3,1.2,0.5c0.3,0.2,0.6,0.4,0.7,0.7c0.2,0.3,0.3,0.5,0.3,0.8
			c0,0.3-0.1,0.5-0.3,0.7c-0.2,0.2-0.4,0.3-0.8,0.3c-0.2,0-0.4-0.1-0.6-0.2s-0.4-0.3-0.6-0.6c-0.2-0.2-0.4-0.4-0.6-0.5
			c-0.2-0.1-0.6-0.2-1-0.2c-0.4,0-0.8,0.1-1.1,0.3c-0.3,0.2-0.4,0.4-0.4,0.7c0,0.2,0.1,0.4,0.3,0.6c0.2,0.2,0.5,0.3,0.8,0.4
			c0.3,0.1,0.8,0.2,1.4,0.4c0.7,0.2,1.3,0.4,1.8,0.6c0.5,0.2,0.8,0.5,1,0.9S296.8,115,296.8,115.4z"/>
	</g>
	<g>
		<path d="M108.1,50.5h-4.3V57c0,0.9-0.2,1.6-0.7,2.1s-1,0.7-1.7,0.7c-0.7,0-1.3-0.2-1.7-0.7s-0.6-1.2-0.6-2.1V39.4
			c0-1,0.2-1.8,0.7-2.2s1.2-0.7,2.2-0.7h6c1.8,0,3.1,0.1,4.1,0.4c0.9,0.3,1.7,0.7,2.4,1.3c0.7,0.6,1.2,1.3,1.6,2.2s0.5,1.9,0.5,3
			c0,2.3-0.7,4.1-2.2,5.3S111,50.5,108.1,50.5z M107,40h-3.1v7h3.1c1.1,0,2-0.1,2.7-0.3c0.7-0.2,1.3-0.6,1.7-1.1
			c0.4-0.5,0.6-1.2,0.6-2c0-1-0.3-1.8-0.9-2.5C110.5,40.3,109.1,40,107,40z"/>
		<path d="M126.8,49.6h-1.6V57c0,1-0.2,1.7-0.6,2.1s-1,0.7-1.7,0.7c-0.7,0-1.3-0.2-1.7-0.7s-0.6-1.2-0.6-2.1V39.4
			c0-1,0.2-1.7,0.7-2.2c0.4-0.4,1.2-0.7,2.2-0.7h7.5c1,0,1.9,0,2.7,0.1c0.7,0.1,1.4,0.3,2,0.5c0.7,0.3,1.4,0.7,1.9,1.3s1,1.2,1.3,2
			c0.3,0.7,0.4,1.5,0.4,2.4c0,1.7-0.5,3.1-1.4,4.1c-1,1-2.4,1.7-4.4,2.2c0.8,0.4,1.6,1.1,2.4,1.9c0.8,0.9,1.4,1.8,2,2.7
			c0.6,1,1,1.8,1.4,2.6c0.3,0.8,0.5,1.3,0.5,1.6c0,0.3-0.1,0.6-0.3,0.9s-0.5,0.5-0.8,0.7s-0.7,0.3-1.2,0.3c-0.5,0-1-0.1-1.3-0.4
			s-0.7-0.6-0.9-0.9s-0.6-0.9-1-1.7l-1.9-3.1c-0.7-1.1-1.3-2-1.8-2.6s-1.1-1-1.6-1.2S127.7,49.6,126.8,49.6z M129.5,40h-4.3v6.3h4.2
			c1.1,0,2.1-0.1,2.8-0.3c0.8-0.2,1.3-0.5,1.7-1c0.4-0.5,0.6-1.1,0.6-1.9c0-0.6-0.2-1.2-0.5-1.7s-0.8-0.8-1.3-1.1
			C132.2,40.1,131.1,40,129.5,40z"/>
		<path d="M153.7,36.1c2.4,0,4.4,0.5,6.1,1.4c1.7,1,3,2.3,3.9,4.1c0.9,1.8,1.3,3.9,1.3,6.3c0,1.8-0.2,3.4-0.7,4.8
			c-0.5,1.4-1.2,2.7-2.2,3.8c-1,1.1-2.1,1.9-3.5,2.4c-1.4,0.6-3,0.8-4.8,0.8c-1.8,0-3.4-0.3-4.8-0.9s-2.6-1.4-3.5-2.4
			c-0.9-1.1-1.7-2.3-2.1-3.8c-0.5-1.5-0.7-3.1-0.7-4.8c0-1.8,0.3-3.4,0.8-4.8s1.2-2.7,2.2-3.8s2.1-1.8,3.5-2.4
			S151.9,36.1,153.7,36.1z M160.3,47.9c0-1.7-0.3-3.1-0.8-4.4c-0.5-1.2-1.3-2.2-2.3-2.8c-1-0.6-2.2-0.9-3.5-0.9
			c-0.9,0-1.8,0.2-2.6,0.5c-0.8,0.3-1.5,0.9-2,1.5c-0.6,0.7-1,1.5-1.3,2.6c-0.3,1-0.5,2.2-0.5,3.5c0,1.3,0.2,2.5,0.5,3.5
			c0.3,1.1,0.8,1.9,1.4,2.6c0.6,0.7,1.3,1.2,2.1,1.6s1.6,0.5,2.6,0.5c1.2,0,2.3-0.3,3.3-0.9c1-0.6,1.8-1.5,2.4-2.8
			C160,51.2,160.3,49.7,160.3,47.9z"/>
		<path d="M176.7,56L173,41.4v15.8c0,0.9-0.2,1.5-0.6,2s-0.9,0.7-1.6,0.7c-0.6,0-1.1-0.2-1.5-0.6c-0.4-0.4-0.6-1.1-0.6-2V39.1
			c0-1,0.3-1.7,0.8-2c0.5-0.3,1.2-0.5,2.1-0.5h1.4c0.9,0,1.5,0.1,1.9,0.2s0.7,0.4,0.9,0.8s0.4,1.1,0.6,2l3.3,12.5l3.3-12.5
			c0.2-0.9,0.5-1.6,0.6-2s0.5-0.7,0.9-0.8s1-0.2,1.9-0.2h1.4c0.9,0,1.6,0.2,2.1,0.5c0.5,0.3,0.8,1,0.8,2v18.1c0,0.9-0.2,1.5-0.6,2
			s-0.9,0.7-1.6,0.7c-0.6,0-1.1-0.2-1.5-0.7c-0.4-0.4-0.6-1.1-0.6-2V41.4L182.9,56c-0.2,0.9-0.4,1.6-0.6,2.1
			c-0.2,0.4-0.4,0.8-0.8,1.2s-1,0.5-1.7,0.5c-0.5,0-1-0.1-1.4-0.4s-0.7-0.5-0.9-0.9c-0.2-0.4-0.4-0.8-0.5-1.2
			C176.9,56.9,176.8,56.5,176.7,56z"/>
		<path d="M205.7,36.1c2.4,0,4.4,0.5,6.1,1.4c1.7,1,3,2.3,3.9,4.1c0.9,1.8,1.3,3.9,1.3,6.3c0,1.8-0.2,3.4-0.7,4.8
			c-0.5,1.4-1.2,2.7-2.2,3.8c-1,1.1-2.1,1.9-3.5,2.4c-1.4,0.6-3,0.8-4.8,0.8c-1.8,0-3.4-0.3-4.8-0.9c-1.4-0.6-2.6-1.4-3.5-2.4
			c-0.9-1.1-1.7-2.3-2.1-3.8c-0.5-1.5-0.7-3.1-0.7-4.8c0-1.8,0.3-3.4,0.8-4.8c0.5-1.5,1.2-2.7,2.2-3.8c1-1,2.1-1.8,3.5-2.4
			S203.9,36.1,205.7,36.1z M212.3,47.9c0-1.7-0.3-3.1-0.8-4.4c-0.5-1.2-1.3-2.2-2.3-2.8c-1-0.6-2.2-0.9-3.5-0.9
			c-0.9,0-1.8,0.2-2.6,0.5c-0.8,0.3-1.5,0.9-2,1.5c-0.6,0.7-1,1.5-1.3,2.6c-0.3,1-0.5,2.2-0.5,3.5c0,1.3,0.2,2.5,0.5,3.5
			c0.3,1.1,0.8,1.9,1.4,2.6c0.6,0.7,1.3,1.2,2.1,1.6c0.8,0.3,1.6,0.5,2.6,0.5c1.2,0,2.3-0.3,3.3-0.9c1-0.6,1.8-1.5,2.4-2.8
			C212,51.2,212.3,49.7,212.3,47.9z"/>
		<path d="M234.6,40.3h-5.1V57c0,1-0.2,1.7-0.6,2.1c-0.4,0.5-1,0.7-1.7,0.7c-0.7,0-1.2-0.2-1.7-0.7c-0.4-0.5-0.6-1.2-0.6-2.1V40.3
			h-5.1c-0.8,0-1.4-0.2-1.8-0.5c-0.4-0.3-0.6-0.8-0.6-1.4c0-0.6,0.2-1.1,0.6-1.4c0.4-0.3,1-0.5,1.7-0.5h14.8c0.8,0,1.4,0.2,1.8,0.5
			c0.4,0.4,0.6,0.8,0.6,1.4c0,0.6-0.2,1-0.6,1.4C236,40.2,235.4,40.3,234.6,40.3z"/>
		<path d="M239.9,57v-18c0-0.9,0.2-1.6,0.6-2.1c0.4-0.5,1-0.7,1.7-0.7c0.7,0,1.3,0.2,1.7,0.7c0.4,0.5,0.6,1.2,0.6,2.1v18
			c0,0.9-0.2,1.7-0.6,2.1c-0.4,0.5-1,0.7-1.7,0.7c-0.7,0-1.2-0.2-1.6-0.7C240.1,58.6,239.9,57.9,239.9,57z"/>
		<path d="M259.8,36.1c2.4,0,4.4,0.5,6.1,1.4c1.7,1,3,2.3,3.9,4.1c0.9,1.8,1.3,3.9,1.3,6.3c0,1.8-0.2,3.4-0.7,4.8
			c-0.5,1.4-1.2,2.7-2.2,3.8c-1,1.1-2.1,1.9-3.5,2.4c-1.4,0.6-3,0.8-4.8,0.8c-1.8,0-3.4-0.3-4.8-0.9c-1.4-0.6-2.6-1.4-3.5-2.4
			c-0.9-1.1-1.7-2.3-2.1-3.8c-0.5-1.5-0.7-3.1-0.7-4.8c0-1.8,0.3-3.4,0.8-4.8c0.5-1.5,1.2-2.7,2.2-3.8c1-1,2.1-1.8,3.5-2.4
			S258.1,36.1,259.8,36.1z M266.4,47.9c0-1.7-0.3-3.1-0.8-4.4c-0.5-1.2-1.3-2.2-2.3-2.8c-1-0.6-2.2-0.9-3.5-0.9
			c-0.9,0-1.8,0.2-2.6,0.5c-0.8,0.3-1.5,0.9-2,1.5c-0.6,0.7-1,1.5-1.3,2.6c-0.3,1-0.5,2.2-0.5,3.5c0,1.3,0.2,2.5,0.5,3.5
			c0.3,1.1,0.8,1.9,1.4,2.6c0.6,0.7,1.3,1.2,2.1,1.6c0.8,0.3,1.6,0.5,2.6,0.5c1.2,0,2.3-0.3,3.3-0.9c1-0.6,1.8-1.5,2.4-2.8
			C266.1,51.2,266.4,49.7,266.4,47.9z"/>
		<path d="M281.1,38.9l8.9,13.5V38.8c0-0.9,0.2-1.5,0.6-2c0.4-0.4,0.9-0.7,1.5-0.7c0.7,0,1.2,0.2,1.6,0.7c0.4,0.4,0.6,1.1,0.6,2v18
			c0,2-0.8,3-2.5,3c-0.4,0-0.8-0.1-1.1-0.2c-0.3-0.1-0.6-0.3-0.9-0.6c-0.3-0.3-0.6-0.6-0.8-0.9c-0.3-0.3-0.5-0.7-0.8-1.1l-8.7-13.3
			v13.4c0,0.9-0.2,1.5-0.6,2s-0.9,0.7-1.6,0.7c-0.7,0-1.2-0.2-1.6-0.7c-0.4-0.5-0.6-1.1-0.6-2V39.5c0-0.8,0.1-1.3,0.3-1.8
			c0.2-0.5,0.5-0.9,1-1.1c0.5-0.3,1-0.4,1.5-0.4c0.4,0,0.8,0.1,1.1,0.2c0.3,0.1,0.6,0.3,0.8,0.5c0.2,0.2,0.5,0.5,0.7,0.9
			C280.7,38.1,280.9,38.5,281.1,38.9z"/>
	</g>
	<g>
		<path d="M112.9,75.1h-9.1V81h7.6c0.7,0,1.2,0.2,1.6,0.5s0.5,0.7,0.5,1.3s-0.2,1-0.5,1.3s-0.9,0.5-1.6,0.5h-7.6V92
			c0,1-0.2,1.7-0.6,2.1s-1,0.7-1.7,0.7c-0.7,0-1.2-0.2-1.7-0.7s-0.6-1.2-0.6-2.1V74.4c0-0.7,0.1-1.2,0.3-1.6s0.5-0.7,0.9-0.9
			s1-0.3,1.6-0.3h10.9c0.7,0,1.3,0.2,1.6,0.5s0.5,0.8,0.5,1.3c0,0.5-0.2,1-0.5,1.3S113.7,75.1,112.9,75.1z"/>
		<path d="M130.8,91.8l-1.1-2.9h-9.3l-1.1,2.9c-0.4,1.1-0.8,1.9-1.1,2.3s-0.8,0.6-1.5,0.6c-0.6,0-1.1-0.2-1.5-0.6s-0.7-0.9-0.7-1.5
			c0-0.3,0.1-0.6,0.2-1s0.3-0.8,0.5-1.4l5.9-14.9c0.2-0.4,0.4-0.9,0.6-1.5s0.5-1.1,0.8-1.5s0.6-0.7,1-1s1-0.4,1.6-0.4
			c0.6,0,1.2,0.1,1.6,0.4s0.8,0.6,1,0.9s0.5,0.8,0.7,1.2s0.4,1,0.7,1.8l6,14.8c0.5,1.1,0.7,1.9,0.7,2.5c0,0.5-0.2,1-0.7,1.5
			s-1,0.7-1.6,0.7c-0.4,0-0.7-0.1-0.9-0.2s-0.5-0.3-0.7-0.5s-0.4-0.6-0.6-1S131,92.2,130.8,91.8z M121.6,85.5h6.8L125,76L121.6,85.5
			z"/>
		<path d="M157.9,87.2c0,0.7-0.2,1.5-0.5,2.4s-0.9,1.7-1.7,2.5c-0.8,0.8-1.8,1.5-3,2c-1.2,0.5-2.6,0.8-4.2,0.8
			c-1.2,0-2.3-0.1-3.3-0.3s-1.9-0.6-2.7-1.1s-1.5-1.1-2.2-1.9c-0.6-0.7-1.1-1.5-1.5-2.4s-0.7-1.8-1-2.9s-0.3-2.1-0.3-3.2
			c0-1.8,0.3-3.5,0.8-5s1.3-2.7,2.3-3.7s2.2-1.8,3.5-2.4s2.8-0.8,4.3-0.8c1.9,0,3.5,0.4,5,1.1c1.4,0.7,2.6,1.7,3.3,2.7
			c0.8,1.1,1.2,2.1,1.2,3.1c0,0.5-0.2,1-0.6,1.4s-0.8,0.6-1.4,0.6c-0.6,0-1-0.1-1.3-0.4s-0.6-0.8-1-1.5c-0.6-1.1-1.3-2-2.1-2.5
			s-1.8-0.8-3-0.8c-1.9,0-3.4,0.7-4.6,2.2s-1.7,3.5-1.7,6.2c0,1.8,0.3,3.3,0.8,4.4s1.2,2.1,2.1,2.6s2,0.9,3.2,0.9
			c1.3,0,2.5-0.3,3.4-1s1.6-1.6,2.1-2.9c0.2-0.6,0.4-1.1,0.7-1.5c0.3-0.4,0.8-0.6,1.4-0.6c0.6,0,1,0.2,1.4,0.6
			C157.7,86.1,157.9,86.6,157.9,87.2z"/>
		<path d="M177,75.3h-5.1V92c0,1-0.2,1.7-0.6,2.1c-0.4,0.5-1,0.7-1.7,0.7c-0.7,0-1.2-0.2-1.7-0.7c-0.4-0.5-0.6-1.2-0.6-2.1V75.3
			h-5.1c-0.8,0-1.4-0.2-1.8-0.5c-0.4-0.3-0.6-0.8-0.6-1.4c0-0.6,0.2-1.1,0.6-1.4c0.4-0.3,1-0.5,1.7-0.5H177c0.8,0,1.4,0.2,1.8,0.5
			s0.6,0.8,0.6,1.4s-0.2,1-0.6,1.4C178.3,75.2,177.7,75.3,177,75.3z"/>
		<path d="M191.7,71.1c2.4,0,4.4,0.5,6.1,1.4s3,2.3,3.9,4.1s1.3,3.9,1.3,6.3c0,1.8-0.2,3.4-0.7,4.8c-0.5,1.4-1.2,2.7-2.2,3.8
			c-1,1.1-2.1,1.9-3.5,2.4c-1.4,0.6-3,0.8-4.8,0.8c-1.8,0-3.4-0.3-4.8-0.9c-1.4-0.6-2.6-1.4-3.5-2.4c-0.9-1.1-1.7-2.3-2.1-3.8
			s-0.7-3.1-0.7-4.8c0-1.8,0.3-3.4,0.8-4.8c0.5-1.5,1.2-2.7,2.2-3.8c1-1,2.1-1.8,3.5-2.4S190,71.1,191.7,71.1z M198.3,82.9
			c0-1.7-0.3-3.1-0.8-4.4c-0.5-1.2-1.3-2.2-2.3-2.8c-1-0.6-2.2-0.9-3.5-0.9c-0.9,0-1.8,0.2-2.6,0.5c-0.8,0.3-1.5,0.9-2,1.5
			c-0.6,0.7-1,1.5-1.3,2.6s-0.5,2.2-0.5,3.5c0,1.3,0.2,2.5,0.5,3.5s0.8,1.9,1.4,2.6c0.6,0.7,1.3,1.2,2.1,1.6
			c0.8,0.3,1.6,0.5,2.6,0.5c1.2,0,2.3-0.3,3.3-0.9c1-0.6,1.8-1.5,2.4-2.8C198,86.2,198.3,84.7,198.3,82.9z"/>
		<path d="M213.2,84.6h-1.6V92c0,1-0.2,1.7-0.6,2.1c-0.4,0.5-1,0.7-1.7,0.7c-0.7,0-1.3-0.2-1.7-0.7S207,92.9,207,92V74.4
			c0-1,0.2-1.7,0.7-2.2c0.4-0.4,1.2-0.7,2.2-0.7h7.5c1,0,1.9,0,2.7,0.1c0.7,0.1,1.4,0.3,2,0.5c0.7,0.3,1.4,0.7,1.9,1.3
			c0.6,0.6,1,1.2,1.3,2c0.3,0.7,0.4,1.5,0.4,2.4c0,1.7-0.5,3.1-1.4,4.1c-1,1-2.4,1.7-4.4,2.2c0.8,0.4,1.6,1.1,2.4,1.9s1.4,1.8,2,2.7
			c0.6,1,1,1.8,1.4,2.6s0.5,1.3,0.5,1.6c0,0.3-0.1,0.6-0.3,0.9c-0.2,0.3-0.5,0.5-0.8,0.7c-0.3,0.2-0.7,0.3-1.2,0.3
			c-0.5,0-1-0.1-1.3-0.4c-0.4-0.2-0.7-0.6-0.9-0.9c-0.3-0.4-0.6-0.9-1-1.7l-1.9-3.1c-0.7-1.1-1.3-2-1.8-2.6c-0.5-0.6-1.1-1-1.6-1.2
			C214.7,84.7,214.1,84.6,213.2,84.6z M215.9,75h-4.3v6.3h4.2c1.1,0,2.1-0.1,2.8-0.3c0.8-0.2,1.3-0.5,1.7-1c0.4-0.5,0.6-1.1,0.6-1.9
			c0-0.6-0.2-1.2-0.5-1.7c-0.3-0.5-0.8-0.8-1.3-1.1C218.6,75.1,217.5,75,215.9,75z"/>
		<path d="M233.9,92v-7.3l-5.6-8.7c-0.5-0.8-0.8-1.4-1-1.8s-0.3-0.8-0.3-1.1c0-0.5,0.2-1,0.6-1.4c0.4-0.4,0.9-0.6,1.5-0.6
			c0.6,0,1.1,0.2,1.4,0.5s0.8,1.1,1.5,2.1l4.3,7l4.3-7c0.3-0.4,0.5-0.8,0.7-1.1c0.2-0.3,0.4-0.6,0.6-0.8c0.2-0.3,0.5-0.5,0.7-0.6
			c0.3-0.1,0.6-0.2,1-0.2c0.6,0,1.1,0.2,1.5,0.6s0.6,0.8,0.6,1.3c0,0.4-0.1,0.8-0.3,1.2c-0.2,0.4-0.5,1-1,1.7l-5.7,8.8V92
			c0,0.9-0.2,1.7-0.7,2.1s-1,0.7-1.7,0.7c-0.7,0-1.2-0.2-1.7-0.7C234.1,93.7,233.9,92.9,233.9,92z"/>
	</g>
	<g>
		<g>
			<defs>
				<path id="SVGID_46_" d="M30.3,15.4C13.2,29.3,6.9,67.2,21,115c1.1,3.8,4.2,3.8,4.8-0.4c4-45.4,18.1-87.1,50.9-89.3
					c5.2-0.2,5.3-2.6,3-5.4c-6.6-7.8-17.2-12-27.7-12C44.2,8.1,36.3,10.4,30.3,15.4"/>
			</defs>
			<clipPath id="SVGID_1_">
				<use xlink:href="#SVGID_46_"  style="overflow:visible;"/>
			</clipPath>
			
				<linearGradient id="SVGID_3_" gradientUnits="userSpaceOnUse" x1="-730.7873" y1="373.8738" x2="-729.7873" y2="373.8738" gradientTransform="matrix(67.9742 0 0 -67.9742 49687.8711 25477.1973)">
				<stop  offset="0" style="stop-color:#EB651D"/>
				<stop  offset="0.2995" style="stop-color:#EC6D1E"/>
				<stop  offset="0.7557" style="stop-color:#F08222"/>
				<stop  offset="1" style="stop-color:#F29024"/>
			</linearGradient>
			<rect x="6.9" y="8.1" style="clip-path:url(#SVGID_1_);fill:url(#SVGID_3_);" width="75.2" height="110.8"/>
		</g>
		<g>
			<defs>
				<path id="SVGID_49_" d="M85.3,39.5C80.4,46.2,65.9,52.4,53.6,52c-3.7-0.1-3.3,1-1.1,1.9c6.4,2.3,12.5,5.1,15.4,9
					c1.3,1.5,2,3.9,3.8,3.2c8.7-3.3,16-12.5,15.5-26.2c-0.1-0.4-0.7-0.7-1.2-0.7C85.8,39.2,85.5,39.3,85.3,39.5"/>
			</defs>
			<clipPath id="SVGID_4_">
				<use xlink:href="#SVGID_49_"  style="overflow:visible;"/>
			</clipPath>
			
				<linearGradient id="SVGID_6_" gradientUnits="userSpaceOnUse" x1="-721.9224" y1="376.3742" x2="-720.9224" y2="376.3742" gradientTransform="matrix(36.3881 0 0 -36.3881 26320.2891 13748.5166)">
				<stop  offset="0" style="stop-color:#EB651D"/>
				<stop  offset="0.2995" style="stop-color:#EC6D1E"/>
				<stop  offset="0.7557" style="stop-color:#F08222"/>
				<stop  offset="1" style="stop-color:#F29024"/>
			</linearGradient>
			<rect x="49.9" y="39.2" style="clip-path:url(#SVGID_4_);fill:url(#SVGID_6_);" width="37.8" height="27.6"/>
		</g>
	</g>
</g>
</svg>
