<?xml version="1.0" encoding="utf-8"?>
<!-- Generator: Adobe Illustrator 23.0.5, SVG Export Plug-In . SVG Version: 6.00 Build 0)  -->
<svg version="1.1" id="Capa_1" xmlns="http://www.w3.org/2000/svg" xmlns:xlink="http://www.w3.org/1999/xlink" x="0px" y="0px"
	 viewBox="0 0 790 1080" style="enable-background:new 0 0 790 1080;" xml:space="preserve">
<style type="text/css">
	.st0{fill:url(#SVGID_1_);}
	.st1{fill:url(#SVGID_2_);}
</style>
<linearGradient id="SVGID_1_" gradientUnits="userSpaceOnUse" x1="42.3624" y1="539.8493" x2="697.3894" y2="539.8493">
	<stop  offset="0" style="stop-color:#EB651D"/>
	<stop  offset="0.2995" style="stop-color:#EC6D1E"/>
	<stop  offset="0.7557" style="stop-color:#F08222"/>
	<stop  offset="1" style="stop-color:#F29024"/>
</linearGradient>
<path class="st0" d="M206.7,81.4C41.9,215.6-18.9,581.1,117.6,1042c11.1,36.2,40.8,36.3,46.1-3.5C202.4,600.6,338.5,199,654.3,178.3
	c50.5-1.5,51.3-25.3,29.3-52.2C620.2,51.2,518.3,10.9,417,10.9C341,10.9,265.4,33.6,206.7,81.4"/>
<linearGradient id="SVGID_2_" gradientUnits="userSpaceOnUse" x1="405.3422" y1="440.9662" x2="756" y2="440.9662">
	<stop  offset="0" style="stop-color:#EB651D"/>
	<stop  offset="0.2995" style="stop-color:#EC6D1E"/>
	<stop  offset="0.7557" style="stop-color:#F08222"/>
	<stop  offset="1" style="stop-color:#F29024"/>
</linearGradient>
<path class="st1" d="M737.1,313.9c-47.6,64.8-186.7,124.6-305,120.7c-35.8-1.2-31.7,9.2-10.9,18.2c61.3,22.5,120.3,49.6,148.1,86.4
	c12.3,14.4,18.9,37.3,37,30.8c84.2-31.8,154.2-120.1,149.5-252.3c-1.2-3.9-6.4-6.8-11.4-6.8C741.6,310.8,739,311.7,737.1,313.9"/>
</svg>
