<?xml version="1.0" encoding="utf-8"?>
<!-- Generator: Adobe Illustrator 23.0.5, SVG Export Plug-In . SVG Version: 6.00 Build 0)  -->
<svg version="1.1" id="Capa_1" xmlns="http://www.w3.org/2000/svg" xmlns:xlink="http://www.w3.org/1999/xlink" x="0px" y="0px"
	 viewBox="0 0 1920 246" style="enable-background:new 0 0 1920 246;" xml:space="preserve">
<style type="text/css">
	.st0{opacity:0.9;clip-path:url(#SVGID_2_);}
	.st1{fill:url(#SVGID_3_);}
	.st2{fill:url(#SVGID_4_);}
	.st3{fill:url(#SVGID_5_);}
	.st4{fill:url(#SVGID_6_);}
	.st5{fill:url(#SVGID_7_);}
	.st6{fill:url(#SVGID_8_);}
	.st7{fill:url(#SVGID_9_);}
	.st8{fill:url(#SVGID_10_);}
	.st9{fill:url(#SVGID_11_);}
	.st10{fill:url(#SVGID_12_);}
	.st11{fill:url(#SVGID_13_);}
	.st12{fill:url(#SVGID_14_);}
	.st13{fill:url(#SVGID_15_);}
	.st14{fill:url(#SVGID_16_);}
	.st15{fill:url(#SVGID_17_);}
	.st16{fill:url(#SVGID_18_);}
	.st17{fill:url(#SVGID_19_);}
	.st18{fill:url(#SVGID_20_);}
	.st19{fill:url(#SVGID_21_);}
	.st20{fill:url(#SVGID_22_);}
	.st21{fill:url(#SVGID_23_);}
	.st22{fill:url(#SVGID_24_);}
	.st23{fill:url(#SVGID_25_);}
	.st24{fill:url(#SVGID_26_);}
	.st25{fill:url(#SVGID_27_);}
	.st26{fill:url(#SVGID_28_);}
	.st27{fill:url(#SVGID_29_);}
	.st28{fill:url(#SVGID_30_);}
	.st29{fill:url(#SVGID_31_);}
	.st30{fill:url(#SVGID_32_);}
	.st31{fill:url(#SVGID_33_);}
	.st32{fill:url(#SVGID_34_);}
	.st33{fill:url(#SVGID_35_);}
	.st34{fill:url(#SVGID_36_);}
	.st35{fill:url(#SVGID_37_);}
	.st36{fill:url(#SVGID_38_);}
	.st37{fill:url(#SVGID_39_);}
	.st38{fill:url(#SVGID_40_);}
	.st39{fill:url(#SVGID_41_);}
	.st40{fill:url(#SVGID_42_);}
	.st41{fill:url(#SVGID_43_);}
	.st42{fill:url(#SVGID_44_);}
	.st43{fill:url(#SVGID_45_);}
	.st44{fill:url(#SVGID_46_);}
	.st45{fill:url(#SVGID_47_);}
	.st46{fill:url(#SVGID_48_);}
	.st47{fill:url(#SVGID_49_);}
	.st48{fill:url(#SVGID_50_);}
	.st49{fill:url(#SVGID_51_);}
	.st50{fill:url(#SVGID_52_);}
	.st51{fill:url(#SVGID_53_);}
	.st52{fill:url(#SVGID_54_);}
	.st53{fill:url(#SVGID_55_);}
	.st54{fill:url(#SVGID_56_);}
	.st55{fill:url(#SVGID_57_);}
	.st56{fill:url(#SVGID_58_);}
	.st57{clip-path:url(#SVGID_2_);}
	.st58{fill:#E9ECEF;}
</style>
<g>
	<defs>
		<rect id="SVGID_1_" x="-1" y="-136" width="1921" height="382"/>
	</defs>
	<clipPath id="SVGID_2_">
		<use xlink:href="#SVGID_1_"  style="overflow:visible;"/>
	</clipPath>
	<g class="st0">
		<linearGradient id="SVGID_3_" gradientUnits="userSpaceOnUse" x1="96.5589" y1="-52.5139" x2="708.3071" y2="175.8583">
			<stop  offset="0" style="stop-color:#EB651D"/>
			<stop  offset="0.2995" style="stop-color:#EC6D1E"/>
			<stop  offset="0.7557" style="stop-color:#F08222"/>
			<stop  offset="1" style="stop-color:#F29024"/>
		</linearGradient>
		<path class="st1" d="M937.3,257l-1.9,1.9l-0.2,0.2l-4.3,4.3c2.2-0.7,4.4-1.4,6.6-2c0.1,0,0.2-0.1,0.3-0.1c0.4-0.1,0.9-0.3,1.3-0.4
			l2.4-2.4C940.1,258,938.7,257.5,937.3,257z"/>
		<linearGradient id="SVGID_4_" gradientUnits="userSpaceOnUse" x1="79.1719" y1="-5.9386" x2="690.92" y2="222.4337">
			<stop  offset="0" style="stop-color:#EB651D"/>
			<stop  offset="0.2995" style="stop-color:#EC6D1E"/>
			<stop  offset="0.7557" style="stop-color:#F08222"/>
			<stop  offset="1" style="stop-color:#F29024"/>
		</linearGradient>
		<path class="st2" d="M814.3,252.2L814.3,252.2l33.3-33.3c-0.7-0.4-1.5-0.7-2.2-1.1c-0.5-0.3-1.1-0.5-1.6-0.8l-32.5,32.5l-0.2,0.2
			l0,0l-56.8,56.8l0,0l-0.2,0.2l-1.3,1.3c0.7-0.1,1.4-0.3,2.1-0.4c0.1,0,0.2,0,0.3-0.1c1.5-0.3,3.1-0.6,4.6-0.9l54.2-54.2
			L814.3,252.2z"/>
		<linearGradient id="SVGID_5_" gradientUnits="userSpaceOnUse" x1="93.5473" y1="-44.4466" x2="705.2955" y2="183.9256">
			<stop  offset="0" style="stop-color:#EB651D"/>
			<stop  offset="0.2995" style="stop-color:#EC6D1E"/>
			<stop  offset="0.7557" style="stop-color:#F08222"/>
			<stop  offset="1" style="stop-color:#F29024"/>
		</linearGradient>
		<path class="st3" d="M903.7,271.5c2.7-0.8,5.4-1.5,8.1-2.3l15.7-15.7c-1.4-0.5-2.8-1-4.2-1.6L903.7,271.5z"/>
		<linearGradient id="SVGID_6_" gradientUnits="userSpaceOnUse" x1="88.1064" y1="-29.8717" x2="699.8546" y2="198.5005">
			<stop  offset="0" style="stop-color:#EB651D"/>
			<stop  offset="0.2995" style="stop-color:#EC6D1E"/>
			<stop  offset="0.7557" style="stop-color:#F08222"/>
			<stop  offset="1" style="stop-color:#F29024"/>
		</linearGradient>
		<path class="st4" d="M896.1,240.9l-44.9,44.9c2.6-0.7,5.1-1.3,7.7-2l41.2-41.2C898.8,242.1,897.4,241.5,896.1,240.9z"/>
		<linearGradient id="SVGID_7_" gradientUnits="userSpaceOnUse" x1="90.731" y1="-36.9023" x2="702.4791" y2="191.4699">
			<stop  offset="0" style="stop-color:#EB651D"/>
			<stop  offset="0.2995" style="stop-color:#EC6D1E"/>
			<stop  offset="0.7557" style="stop-color:#F08222"/>
			<stop  offset="1" style="stop-color:#F29024"/>
		</linearGradient>
		<path class="st5" d="M909.6,246.5L877.1,279c2.6-0.7,5.3-1.5,7.9-2.2l28.6-28.6C912.3,247.6,911,247,909.6,246.5z"/>
		<linearGradient id="SVGID_8_" gradientUnits="userSpaceOnUse" x1="85.639" y1="-23.2623" x2="697.3871" y2="205.1099">
			<stop  offset="0" style="stop-color:#EB651D"/>
			<stop  offset="0.2995" style="stop-color:#EC6D1E"/>
			<stop  offset="0.7557" style="stop-color:#F08222"/>
			<stop  offset="1" style="stop-color:#F29024"/>
		</linearGradient>
		<path class="st6" d="M882.8,235.2l-42.7,42.7l-0.2,0.2l-14.1,14.1c2.5-0.6,5-1.2,7.6-1.9l9.2-9.2l0.2-0.2l0.2-0.2l43.8-43.8
			C885.4,236.4,884.1,235.8,882.8,235.2z"/>
		<linearGradient id="SVGID_9_" gradientUnits="userSpaceOnUse" x1="83.3398" y1="-17.1033" x2="695.088" y2="211.2689">
			<stop  offset="0" style="stop-color:#EB651D"/>
			<stop  offset="0.2995" style="stop-color:#EC6D1E"/>
			<stop  offset="0.7557" style="stop-color:#F08222"/>
			<stop  offset="1" style="stop-color:#F29024"/>
		</linearGradient>
		<path class="st7" d="M833.4,271.2L833.4,271.2l40.2-40.2c-1.3-0.6-2.6-1.2-3.9-1.8l-39.3,39.3l-0.2,0.2l0,0L801,297.9
			c2.5-0.6,4.9-1.1,7.4-1.7l24.8-24.8L833.4,271.2z"/>
		<linearGradient id="SVGID_10_" gradientUnits="userSpaceOnUse" x1="70.8439" y1="16.3697" x2="682.5921" y2="244.7419">
			<stop  offset="0" style="stop-color:#EB651D"/>
			<stop  offset="0.2995" style="stop-color:#EC6D1E"/>
			<stop  offset="0.7557" style="stop-color:#F08222"/>
			<stop  offset="1" style="stop-color:#F29024"/>
		</linearGradient>
		<path class="st8" d="M700,252.2L700,252.2l56.8-56.8l0,0l0.2-0.2l14.3-14.3c-1.3-0.6-2.5-1.3-3.8-1.9l-13.1,13.1l0,0l-0.2,0.2
			l-57.2,57.2l-0.2,0.2l0,0l-56.8,56.8l-0.2,0.2l-14.1,14.1h5.7l11.1-11.1l0.2-0.2l0.2-0.2l57-57L700,252.2z"/>
		<linearGradient id="SVGID_11_" gradientUnits="userSpaceOnUse" x1="77.2843" y1="-0.8823" x2="689.0325" y2="227.4899">
			<stop  offset="0" style="stop-color:#EB651D"/>
			<stop  offset="0.2995" style="stop-color:#EC6D1E"/>
			<stop  offset="0.7557" style="stop-color:#F08222"/>
			<stop  offset="1" style="stop-color:#F29024"/>
		</linearGradient>
		<path class="st9" d="M804.6,242.8l30.2-30.2c-1.3-0.6-2.6-1.3-3.8-1.9l-29,29l-0.2,0.2l-57,57l-0.2,0.2l-0.2,0.2l-14.9,14.9
			c2.3-0.4,4.6-0.8,7-1.2l11-11l0.2-0.2l56.8-56.8L804.6,242.8z"/>
		<linearGradient id="SVGID_12_" gradientUnits="userSpaceOnUse" x1="72.6481" y1="11.5367" x2="684.3963" y2="239.909">
			<stop  offset="0" style="stop-color:#EB651D"/>
			<stop  offset="0.2995" style="stop-color:#EC6D1E"/>
			<stop  offset="0.7557" style="stop-color:#F08222"/>
			<stop  offset="1" style="stop-color:#F29024"/>
		</linearGradient>
		<path class="st10" d="M719,271.2L719,271.2l56.8-56.8l0.2-0.2l0.2-0.2l20.4-20.4c-1.3-0.6-2.5-1.3-3.8-1.9l-19.5,19.5l-0.2,0.2
			L716,268.6l-0.2,0.2l0,0l-52.1,52.1h5.7l49.4-49.4L719,271.2z"/>
		<linearGradient id="SVGID_13_" gradientUnits="userSpaceOnUse" x1="81.1793" y1="-11.3161" x2="692.9275" y2="217.0561">
			<stop  offset="0" style="stop-color:#EB651D"/>
			<stop  offset="0.2995" style="stop-color:#EC6D1E"/>
			<stop  offset="0.7557" style="stop-color:#F08222"/>
			<stop  offset="1" style="stop-color:#F29024"/>
		</linearGradient>
		<path class="st11" d="M823.5,262.1l0.2-0.2l36.8-36.8c-1.3-0.6-2.6-1.2-3.9-1.8L821,258.8l0,0l-0.2,0.2l-44.2,44.2
			c2.4-0.5,4.8-1,7.3-1.6L823.5,262.1L823.5,262.1z"/>
		<linearGradient id="SVGID_14_" gradientUnits="userSpaceOnUse" x1="65.0079" y1="32.0028" x2="676.7561" y2="260.375">
			<stop  offset="0" style="stop-color:#EB651D"/>
			<stop  offset="0.2995" style="stop-color:#EC6D1E"/>
			<stop  offset="0.7557" style="stop-color:#F08222"/>
			<stop  offset="1" style="stop-color:#F29024"/>
		</linearGradient>
		<path class="st12" d="M585.6,252.2L585.6,252.2l56.8-56.8l0.2-0.2l0.2-0.2l50.5-50.5c-1.3-0.6-2.7-1.1-4-1.7l-49.3,49.3l-0.2,0.2
			l-57.2,57.2l-0.2,0.2l0,0l-56.8,56.8l-0.2,0.2l-14.1,14.1h5.7l11.1-11.1l0.2-0.2l0.2-0.2l57-57L585.6,252.2z"/>
		<linearGradient id="SVGID_15_" gradientUnits="userSpaceOnUse" x1="67.0648" y1="26.4931" x2="678.8129" y2="254.8653">
			<stop  offset="0" style="stop-color:#EB651D"/>
			<stop  offset="0.2995" style="stop-color:#EC6D1E"/>
			<stop  offset="0.7557" style="stop-color:#F08222"/>
			<stop  offset="1" style="stop-color:#F29024"/>
		</linearGradient>
		<path class="st13" d="M604.7,271.2L604.7,271.2l56.8-56.8l0.2-0.2l0.2-0.2l56.8-56.8l0.2-0.2l0.2-0.2l0.7-0.7
			c-0.9-0.4-1.7-0.8-2.6-1.2c-0.2-0.1-0.5-0.2-0.7-0.3c-0.2-0.1-0.4-0.2-0.6-0.3l0,0L659,211.2l-0.2,0.2l-57.2,57.2l-0.2,0.2l0,0
			l-52.1,52.1h5.7l49.4-49.4L604.7,271.2z"/>
		<linearGradient id="SVGID_16_" gradientUnits="userSpaceOnUse" x1="69.9273" y1="18.8251" x2="681.6755" y2="247.1973">
			<stop  offset="0" style="stop-color:#EB651D"/>
			<stop  offset="0.2995" style="stop-color:#EC6D1E"/>
			<stop  offset="0.7557" style="stop-color:#F08222"/>
			<stop  offset="1" style="stop-color:#F29024"/>
		</linearGradient>
		<path class="st14" d="M633.3,299.8l56.8-56.8l0,0l0.2-0.2l57.2-57.2l0.2-0.2l0,0l10.8-10.8c-1.3-0.6-2.6-1.3-3.8-1.9l-10.1,10.1
			l-0.2,0.2l0,0l-56.8,56.8l0,0l-0.2,0.2l-57,57l-0.2,0.2l-0.2,0.2l-23.5,23.5h5.7l20.8-20.8L633.3,299.8z"/>
		<linearGradient id="SVGID_17_" gradientUnits="userSpaceOnUse" x1="73.854" y1="8.3066" x2="685.6022" y2="236.6788">
			<stop  offset="0" style="stop-color:#EB651D"/>
			<stop  offset="0.2995" style="stop-color:#EC6D1E"/>
			<stop  offset="0.7557" style="stop-color:#F08222"/>
			<stop  offset="1" style="stop-color:#F29024"/>
		</linearGradient>
		<path class="st15" d="M728.4,281l0.2-0.2l56.8-56.8l0.2-0.2l0.2-0.2l23.6-23.6c-1.3-0.6-2.5-1.3-3.8-1.9l-22.6,22.6l-0.2,0.2
			l-0.2,0.2l-56.8,56.8l-0.2,0.2l-41.4,41.4c2.2-0.3,4.4-0.6,6.7-0.9l37.4-37.4L728.4,281z"/>
		<linearGradient id="SVGID_18_" gradientUnits="userSpaceOnUse" x1="75.512" y1="3.8652" x2="687.2602" y2="232.2374">
			<stop  offset="0" style="stop-color:#EB651D"/>
			<stop  offset="0.2995" style="stop-color:#EC6D1E"/>
			<stop  offset="0.7557" style="stop-color:#F08222"/>
			<stop  offset="1" style="stop-color:#F29024"/>
		</linearGradient>
		<path class="st16" d="M737.9,290.5l0.2-0.2l56.8-56.8l0.2-0.2l0.2-0.2l26.7-26.7c-1.3-0.6-2.5-1.3-3.8-1.9l-25.8,25.8l-0.2,0.2
			l-0.2,0.2l-56.8,56.8l-0.2,0.2l-0.2,0.2l-28.3,28.3c2.3-0.4,4.6-0.7,6.8-1.1l24.3-24.3L737.9,290.5z"/>
		<linearGradient id="SVGID_19_" gradientUnits="userSpaceOnUse" x1="71.7489" y1="13.9456" x2="683.4971" y2="242.3178">
			<stop  offset="0" style="stop-color:#EB651D"/>
			<stop  offset="0.2995" style="stop-color:#EC6D1E"/>
			<stop  offset="0.7557" style="stop-color:#F08222"/>
			<stop  offset="1" style="stop-color:#F29024"/>
		</linearGradient>
		<path class="st17" d="M709.1,262.1l0.2-0.2l0.2-0.2l57-57l0.2-0.2l0,0l17.2-17.2c-1.3-0.6-2.5-1.3-3.8-1.9l-16.5,16.5l-0.2,0.2
			l0,0l-56.8,56.8l-0.2,0.2l-57.2,57.2l-0.2,0.2l0,0l-4.4,4.4h5.7l1.8-1.8l0.2-0.2l0,0L709.1,262.1z"/>
		<linearGradient id="SVGID_20_" gradientUnits="userSpaceOnUse" x1="57.6327" y1="51.759" x2="669.3809" y2="280.1312">
			<stop  offset="0" style="stop-color:#EB651D"/>
			<stop  offset="0.2995" style="stop-color:#EC6D1E"/>
			<stop  offset="0.7557" style="stop-color:#F08222"/>
			<stop  offset="1" style="stop-color:#F29024"/>
		</linearGradient>
		<path class="st18" d="M471.3,252.2L471.3,252.2l56.8-56.8l0.2-0.2l0.2-0.2l57-57l0.2-0.2l0,0l22.9-22.9c-1.5-0.4-3-0.8-4.5-1.2
			l-21.4,21.4l-0.2,0.2l0,0l-56.8,56.8l-0.2,0.2l-57.2,57.2l-0.2,0.2l0,0l-56.8,56.8l-0.2,0.2l-0.2,0.2l-13.9,13.9h5.7l11.1-11.1
			l0.2-0.2l0.2-0.2l57-57L471.3,252.2z"/>
		<linearGradient id="SVGID_21_" gradientUnits="userSpaceOnUse" x1="63.9177" y1="34.9232" x2="675.6659" y2="263.2954">
			<stop  offset="0" style="stop-color:#EB651D"/>
			<stop  offset="0.2995" style="stop-color:#EC6D1E"/>
			<stop  offset="0.7557" style="stop-color:#F08222"/>
			<stop  offset="1" style="stop-color:#F29024"/>
		</linearGradient>
		<path class="st19" d="M575.7,243l0.2-0.2l0.2-0.2l57-57l0.2-0.2l0,0l46.5-46.5c-1.4-0.5-2.7-1.1-4.1-1.6l-45.5,45.5L630,183l0,0
			l-56.8,56.8L573,240l-57,57l-0.2,0.2l-0.2,0.2l-23.5,23.5h5.7l20.8-20.8L575.7,243z"/>
		<linearGradient id="SVGID_22_" gradientUnits="userSpaceOnUse" x1="68.9958" y1="21.3203" x2="680.744" y2="249.6925">
			<stop  offset="0" style="stop-color:#EB651D"/>
			<stop  offset="0.2995" style="stop-color:#EC6D1E"/>
			<stop  offset="0.7557" style="stop-color:#F08222"/>
			<stop  offset="1" style="stop-color:#F29024"/>
		</linearGradient>
		<path class="st20" d="M623.3,290.7l0.2-0.2l57.2-57.2l0.2-0.2l56.8-56.8l0.2-0.2l7.7-7.7c-1.3-0.6-2.6-1.2-3.9-1.9l-6.6,6.6
			l-0.2,0.2l-57,57l-0.2,0.2l-0.2,0.2l-56.8,56.8l0,0l-0.2,0.2l-33.2,33.2h5.7L623.3,290.7L623.3,290.7z"/>
		<linearGradient id="SVGID_23_" gradientUnits="userSpaceOnUse" x1="68.043" y1="23.8726" x2="679.7912" y2="252.2448">
			<stop  offset="0" style="stop-color:#EB651D"/>
			<stop  offset="0.2995" style="stop-color:#EC6D1E"/>
			<stop  offset="0.7557" style="stop-color:#F08222"/>
			<stop  offset="1" style="stop-color:#F29024"/>
		</linearGradient>
		<path class="st21" d="M614,281l0.2-0.2L671,224l0.2-0.2l0.2-0.2l56.8-56.8l0.2-0.2l0.2-0.2l4.2-4.2c-1.3-0.6-2.6-1.2-3.9-1.8
			l-3.1,3.1l-0.2,0.2l-0.2,0.2l-56.8,56.8l-0.2,0.2l-0.2,0.2l-56.8,56.8l-0.2,0.2l-0.2,0.2l-42.5,42.5h5.7l39.7-39.7L614,281z"/>
		<linearGradient id="SVGID_24_" gradientUnits="userSpaceOnUse" x1="66.0551" y1="29.1978" x2="677.8032" y2="257.57">
			<stop  offset="0" style="stop-color:#EB651D"/>
			<stop  offset="0.2995" style="stop-color:#EC6D1E"/>
			<stop  offset="0.7557" style="stop-color:#F08222"/>
			<stop  offset="1" style="stop-color:#F29024"/>
		</linearGradient>
		<path class="st22" d="M594.8,262.1l0.2-0.2l0.2-0.2l57-57l0.2-0.2l0,0l54.3-54.3c-1.3-0.6-2.6-1.2-4-1.7l-53.4,53.4l-0.2,0.2l0,0
			l-56.8,56.8l-0.2,0.2l-57.2,57.2l-0.2,0.2l0,0l-4.4,4.4h5.7l1.8-1.8l0.2-0.2l0,0L594.8,262.1z"/>
		<linearGradient id="SVGID_25_" gradientUnits="userSpaceOnUse" x1="51.8778" y1="67.1751" x2="663.692" y2="295.5719">
			<stop  offset="0" style="stop-color:#EB651D"/>
			<stop  offset="0.2995" style="stop-color:#EC6D1E"/>
			<stop  offset="0.7557" style="stop-color:#F08222"/>
			<stop  offset="1" style="stop-color:#F29024"/>
		</linearGradient>
		<path class="st23" d="M376,271.2L376,271.2l56.8-56.8l0.2-0.2l0.2-0.2l56.8-56.8l0,0l0.2-0.2l53.8-53.8c-1.7-0.2-3.5-0.3-5.2-0.5
			L487.5,154l0,0l-0.2,0.2l-57,57l-0.2,0.2l-0.2,0.2l-57,57l-0.2,0.2l0,0l-47.9,47.9c1.6,0.3,3.2,0.6,4.8,0.9l46.1-46.1L376,271.2z"
			/>
		<linearGradient id="SVGID_26_" gradientUnits="userSpaceOnUse" x1="62.777" y1="37.979" x2="674.5251" y2="266.3512">
			<stop  offset="0" style="stop-color:#EB651D"/>
			<stop  offset="0.2995" style="stop-color:#EC6D1E"/>
			<stop  offset="0.7557" style="stop-color:#F08222"/>
			<stop  offset="1" style="stop-color:#F29024"/>
		</linearGradient>
		<path class="st24" d="M509.2,290.5l0.2-0.2l57-57l0.2-0.2l56.8-56.8l0,0l0.2-0.2l42.6-42.6c-1.4-0.5-2.8-1-4.2-1.6l-41.1,41.1l0,0
			l-0.2,0.2l-57,57l-0.2,0.2l-0.2,0.2l-57,57l-33.2,33.2h5.7l30.1-30.1L509.2,290.5z"/>
		<linearGradient id="SVGID_27_" gradientUnits="userSpaceOnUse" x1="60.3499" y1="44.4804" x2="672.0981" y2="272.8526">
			<stop  offset="0" style="stop-color:#EB651D"/>
			<stop  offset="0.2995" style="stop-color:#EC6D1E"/>
			<stop  offset="0.7557" style="stop-color:#F08222"/>
			<stop  offset="1" style="stop-color:#F29024"/>
		</linearGradient>
		<path class="st25" d="M490.1,271.4l0.2-0.2l56.8-56.8l0.2-0.2l0.2-0.2l56.8-56.8l0.2-0.2l0.2-0.2l33.3-33.3
			c-1.4-0.5-2.9-0.9-4.3-1.4L601.8,154l-0.2,0.2l-0.2,0.2l-56.8,56.8l-0.2,0.2l-0.2,0.2l-56.8,56.8l-0.2,0.2l-0.2,0.2L435,320.8h5.7
			l49.2-49.2L490.1,271.4z"/>
		<linearGradient id="SVGID_28_" gradientUnits="userSpaceOnUse" x1="61.5953" y1="41.1444" x2="673.3434" y2="269.5165">
			<stop  offset="0" style="stop-color:#EB651D"/>
			<stop  offset="0.2995" style="stop-color:#EC6D1E"/>
			<stop  offset="0.7557" style="stop-color:#F08222"/>
			<stop  offset="1" style="stop-color:#F29024"/>
		</linearGradient>
		<path class="st26" d="M499.7,281l0.2-0.2l56.8-56.8l0,0l0.2-0.2l57.2-57.2l0.2-0.2l38-38c-1.4-0.5-2.8-1-4.2-1.5l-36.6,36.6
			l-0.2,0.2l-0.2,0.2l-56.8,56.8l0,0l-0.2,0.2l-57,57l-0.2,0.2l-0.2,0.2l-42.5,42.5h5.7l39.7-39.7L499.7,281z"/>
		<linearGradient id="SVGID_29_" gradientUnits="userSpaceOnUse" x1="59.0362" y1="47.9996" x2="670.7844" y2="276.3718">
			<stop  offset="0" style="stop-color:#EB651D"/>
			<stop  offset="0.2995" style="stop-color:#EC6D1E"/>
			<stop  offset="0.7557" style="stop-color:#F08222"/>
			<stop  offset="1" style="stop-color:#F29024"/>
		</linearGradient>
		<path class="st27" d="M480.6,261.9l0.2-0.2l57-57l0.2-0.2l0,0l56.8-56.8l0.2-0.2l0.2-0.2l28.3-28.3c-1.5-0.4-3-0.8-4.4-1.3
			l-26.7,26.7l-0.2,0.2l-57.2,57.2l-0.2,0.2l0,0l-56.8,56.8l-0.2,0.2l-0.2,0.2L420.8,316l-0.2,0.2l-0.2,0.2l-4.4,4.4h5.7l1.6-1.6
			l0.2-0.2l0.2-0.2l56.8-56.8L480.6,261.9z"/>
		<linearGradient id="SVGID_30_" gradientUnits="userSpaceOnUse" x1="20.8696" y1="150.2378" x2="632.6177" y2="378.61">
			<stop  offset="0" style="stop-color:#EB651D"/>
			<stop  offset="0.2995" style="stop-color:#EC6D1E"/>
			<stop  offset="0.7557" style="stop-color:#F08222"/>
			<stop  offset="1" style="stop-color:#F29024"/>
		</linearGradient>
		<path class="st28" d="M175.8,185.5L175.8,185.5l30.8-30.8c-2.4,0.5-4.9,1.1-7.3,1.6l-26.6,26.6l-0.2,0.2l0,0l-56.8,56.8l-0.2,0.2
			l-7.4,7.4c1.3,0.6,2.6,1.2,3.9,1.8l6.2-6.2l0.2-0.2l57.2-57.2L175.8,185.5z"/>
		<linearGradient id="SVGID_31_" gradientUnits="userSpaceOnUse" x1="37.7081" y1="105.1317" x2="649.4563" y2="333.5039">
			<stop  offset="0" style="stop-color:#EB651D"/>
			<stop  offset="0.2995" style="stop-color:#EC6D1E"/>
			<stop  offset="0.7557" style="stop-color:#F08222"/>
			<stop  offset="1" style="stop-color:#F29024"/>
		</linearGradient>
		<path class="st29" d="M242.5,252.2L242.5,252.2l56.8-56.8l0.2-0.2l0.2-0.2l56.8-56.8l0.2-0.2l0.2-0.2l23.5-23.5
			c-2.4,0.5-4.7,0.9-7.1,1.4L354,135l-0.2,0.2l-0.2,0.2l-56.8,56.8l-0.2,0.2l-0.2,0.2l-57,57l-0.2,0.2l0,0l-36,36
			c1.4,0.5,2.9,0.9,4.3,1.4l34.8-34.8L242.5,252.2z"/>
		<linearGradient id="SVGID_32_" gradientUnits="userSpaceOnUse" x1="30.4953" y1="124.4529" x2="642.2435" y2="352.8251">
			<stop  offset="0" style="stop-color:#EB651D"/>
			<stop  offset="0.2995" style="stop-color:#EC6D1E"/>
			<stop  offset="0.7557" style="stop-color:#F08222"/>
			<stop  offset="1" style="stop-color:#F29024"/>
		</linearGradient>
		<path class="st30" d="M213.9,223.6l57-57h0l36.1-36.1c-2.5,0.6-5,1.2-7.5,1.8l-31.2,31.2l-0.2,0.2l0,0l-0.2,0.2l-57,57l-0.2,0.2
			l-49.3,49.3c1.4,0.5,2.7,1.1,4.1,1.6l48.3-48.3L213.9,223.6z"/>
		<linearGradient id="SVGID_33_" gradientUnits="userSpaceOnUse" x1="25.5212" y1="137.7772" x2="637.2694" y2="366.1494">
			<stop  offset="0" style="stop-color:#EB651D"/>
			<stop  offset="0.2995" style="stop-color:#EC6D1E"/>
			<stop  offset="0.7557" style="stop-color:#F08222"/>
			<stop  offset="1" style="stop-color:#F29024"/>
		</linearGradient>
		<path class="st31" d="M194.9,204.5L194.9,204.5l56.8-56.8l0.2-0.2l4.7-4.7c-2.4,0.6-4.8,1.2-7.2,1.7c-0.1,0-0.2,0.1-0.3,0.1
			c0,0,0,0-0.1,0l-57.1,57.1l-0.2,0.2l0,0l-56.8,56.8l-0.2,0.2l-0.3,0.3c0.3,0.1,0.6,0.3,1,0.4c0.2,0.1,0.5,0.2,0.7,0.3
			c0.8,0.3,1.5,0.7,2.3,1l56.3-56.3L194.9,204.5z"/>
		<linearGradient id="SVGID_34_" gradientUnits="userSpaceOnUse" x1="49.0587" y1="74.7266" x2="660.8069" y2="303.0988">
			<stop  offset="0" style="stop-color:#EB651D"/>
			<stop  offset="0.2995" style="stop-color:#EC6D1E"/>
			<stop  offset="0.7557" style="stop-color:#F08222"/>
			<stop  offset="1" style="stop-color:#F29024"/>
		</linearGradient>
		<path class="st32" d="M356.7,252.4l0.2-0.2l56.8-56.8l0.2-0.2l0.2-0.2l57-57l0.2-0.2l0,0l36.5-36.5c-1.9,0-3.8,0-5.7,0l-33.8,33.8
			l-0.2,0.2l0,0l-56.8,56.8l-0.2,0.2l-0.2,0.2L354,249.3l-0.2,0.2l-0.2,0.2l-56.8,56.8l-0.2,0.2l-0.2,0.2l-3.5,3.5
			c1.6,0.3,3.1,0.7,4.7,1l1.6-1.6l0.2-0.2l0.2-0.2l56.8-56.8L356.7,252.4z"/>
		<linearGradient id="SVGID_35_" gradientUnits="userSpaceOnUse" x1="47.4892" y1="78.9308" x2="659.2374" y2="307.303">
			<stop  offset="0" style="stop-color:#EB651D"/>
			<stop  offset="0.2995" style="stop-color:#EC6D1E"/>
			<stop  offset="0.7557" style="stop-color:#F08222"/>
			<stop  offset="1" style="stop-color:#F29024"/>
		</linearGradient>
		<path class="st33" d="M347.2,242.8l0.2-0.2l57-57l0.2-0.2l0,0l56.8-56.8l0.2-0.2l0.2-0.2l26.8-26.8c-2,0.1-3.9,0.1-5.9,0.2
			l-23.7,23.7l-0.2,0.2l-57.2,57.2l-0.2,0.2l0,0l-56.8,56.8l-0.2,0.2l-0.2,0.2L287.3,297l0,0l-0.2,0.2l-9.7,9.7
			c1.5,0.4,3.1,0.7,4.6,1.1l7.7-7.7l0,0l0.2-0.2l57-57L347.2,242.8z"/>
		<linearGradient id="SVGID_36_" gradientUnits="userSpaceOnUse" x1="45.7902" y1="83.482" x2="657.5384" y2="311.8542">
			<stop  offset="0" style="stop-color:#EB651D"/>
			<stop  offset="0.2995" style="stop-color:#EC6D1E"/>
			<stop  offset="0.7557" style="stop-color:#F08222"/>
			<stop  offset="1" style="stop-color:#F29024"/>
		</linearGradient>
		<path class="st34" d="M280.7,290.3l57-57h0l57-57l0.2-0.2l0.2-0.2l57-57l0.2-0.2l0,0l16.3-16.3c-2.1,0.1-4.1,0.3-6.2,0.4
			l-13.2,13.2l-0.2,0.2l0,0l-56.8,56.8l-0.2,0.2l-57,57l-0.2,0.2l0,0l-0.2,0.2l-57,57l-0.2,0.2l-15.3,15.3c1.5,0.4,3,0.8,4.6,1.2
			l13.8-13.8L280.7,290.3z"/>
		<linearGradient id="SVGID_37_" gradientUnits="userSpaceOnUse" x1="42.0081" y1="93.6132" x2="653.7563" y2="321.9854">
			<stop  offset="0" style="stop-color:#EB651D"/>
			<stop  offset="0.2995" style="stop-color:#EC6D1E"/>
			<stop  offset="0.7557" style="stop-color:#F08222"/>
			<stop  offset="1" style="stop-color:#F29024"/>
		</linearGradient>
		<path class="st35" d="M261.6,271.2L261.6,271.2l56.8-56.8l0.2-0.2l57-57l0.2-0.2l0.2-0.2l50.1-50.1c-2.2,0.3-4.4,0.6-6.6,0.9
			l-46.5,46.5l-57,57l-0.2,0.2l-57.2,57.2l-0.2,0.2l0,0l-26.1,26.1c1.5,0.4,2.9,0.9,4.4,1.3l24.7-24.7L261.6,271.2z"/>
		<linearGradient id="SVGID_38_" gradientUnits="userSpaceOnUse" x1="54.5364" y1="60.0534" x2="666.2845" y2="288.4256">
			<stop  offset="0" style="stop-color:#EB651D"/>
			<stop  offset="0.2995" style="stop-color:#EC6D1E"/>
			<stop  offset="0.7557" style="stop-color:#F08222"/>
			<stop  offset="1" style="stop-color:#F29024"/>
		</linearGradient>
		<path class="st36" d="M394.8,290.5L394.8,290.5l0.2-0.2l57-57l57-57l0.2-0.2l0.2-0.2l57-57l0.2-0.2l0,0l10.8-10.8
			c-1.6-0.3-3.2-0.6-4.9-0.9l-8.9,8.9l-0.2,0.2l0,0l-56.8,56.8l-0.2,0.2l-57,57l-0.2,0.2l-0.2,0.2l-57,57v0l-33.2,33.2h5.7
			l30.1-30.1L394.8,290.5z"/>
		<linearGradient id="SVGID_39_" gradientUnits="userSpaceOnUse" x1="56.1393" y1="55.7596" x2="667.8875" y2="284.1318">
			<stop  offset="0" style="stop-color:#EB651D"/>
			<stop  offset="0.2995" style="stop-color:#EC6D1E"/>
			<stop  offset="0.7557" style="stop-color:#F08222"/>
			<stop  offset="1" style="stop-color:#F29024"/>
		</linearGradient>
		<path class="st37" d="M404.4,300l57-57l0.2-0.2l0.2-0.2l57-57l0.2-0.2l0,0l56.8-56.8l0.2-0.2l0.2-0.2l17-17
			c-1.6-0.4-3.1-0.7-4.7-1l-15.2,15.2l-0.2,0.2l-57.2,57.2l-0.2,0.2l0,0l-56.8,56.8l-0.2,0.2l-57,57l-0.2,0.2h0l-0.2,0.2l-23.5,23.5
			h5.7L404.4,300L404.4,300z"/>
		<linearGradient id="SVGID_40_" gradientUnits="userSpaceOnUse" x1="53.1292" y1="63.8228" x2="664.8774" y2="292.195">
			<stop  offset="0" style="stop-color:#EB651D"/>
			<stop  offset="0.2995" style="stop-color:#EC6D1E"/>
			<stop  offset="0.7557" style="stop-color:#F08222"/>
			<stop  offset="1" style="stop-color:#F29024"/>
		</linearGradient>
		<path class="st38" d="M385.3,281l57-57l0.2-0.2l0.2-0.2l57-57l0.2-0.2l56.8-56.8l0,0l0.2-0.2l4.1-4.1c-1.4-0.2-2.7-0.4-4.1-0.6
			c-0.3,0-0.6-0.1-1-0.1l-1.7,1.7l0,0l-0.2,0.2l-57,57l-0.2,0.2l-0.2,0.2l-57,57l-57,57l-0.2,0.2l-41.3,41.3
			c1.6,0.3,3.3,0.5,4.9,0.8l39-39L385.3,281z"/>
		<linearGradient id="SVGID_41_" gradientUnits="userSpaceOnUse" x1="50.52" y1="70.8123" x2="662.2681" y2="299.1845">
			<stop  offset="0" style="stop-color:#EB651D"/>
			<stop  offset="0.2995" style="stop-color:#EC6D1E"/>
			<stop  offset="0.7557" style="stop-color:#F08222"/>
			<stop  offset="1" style="stop-color:#F29024"/>
		</linearGradient>
		<path class="st39" d="M366.2,261.9l0.2-0.2l56.8-56.8l0.2-0.2l0.2-0.2l56.8-56.8l0.2-0.2l0.2-0.2l45.4-45.4
			c-1.8-0.1-3.6-0.2-5.5-0.3l-42.8,42.8l-0.2,0.2l-0.2,0.2l-56.8,56.8l-0.2,0.2l-0.2,0.2l-56.8,56.8l-0.2,0.2l-0.2,0.2l-54.4,54.4
			c1.6,0.3,3.2,0.6,4.8,0.9l52.5-52.5L366.2,261.9z"/>
		<linearGradient id="SVGID_42_" gradientUnits="userSpaceOnUse" x1="11.3409" y1="175.7626" x2="623.0891" y2="404.1348">
			<stop  offset="0" style="stop-color:#EB651D"/>
			<stop  offset="0.2995" style="stop-color:#EC6D1E"/>
			<stop  offset="0.7557" style="stop-color:#F08222"/>
			<stop  offset="1" style="stop-color:#F29024"/>
		</linearGradient>
		<path class="st40" d="M61.5,185.5L61.5,185.5l11.1-11.1c-2,0.1-4,0.2-5.9,0.2l-8.2,8.2l-0.2,0.2l0,0l-24.5,24.5
			c1.2,0.7,2.4,1.4,3.6,2.1l24-24L61.5,185.5z"/>
		<linearGradient id="SVGID_43_" gradientUnits="userSpaceOnUse" x1="23.1319" y1="144.1776" x2="634.8801" y2="372.5498">
			<stop  offset="0" style="stop-color:#EB651D"/>
			<stop  offset="0.2995" style="stop-color:#EC6D1E"/>
			<stop  offset="0.7557" style="stop-color:#F08222"/>
			<stop  offset="1" style="stop-color:#F29024"/>
		</linearGradient>
		<path class="st41" d="M185,195.4l0.2-0.2l46.3-46.3c-2.5,0.6-5,1.2-7.5,1.7l-41.5,41.5l-0.2,0.2l-57.2,57.2l-0.2,0.2l0,0l-3.7,3.7
			c1.3,0.6,2.6,1.2,3.9,1.8l2.9-2.9l0.2-0.2l0,0L185,195.4z"/>
		<linearGradient id="SVGID_44_" gradientUnits="userSpaceOnUse" x1="16.8516" y1="161.0008" x2="628.5998" y2="389.373">
			<stop  offset="0" style="stop-color:#EB651D"/>
			<stop  offset="0.2995" style="stop-color:#EC6D1E"/>
			<stop  offset="0.7557" style="stop-color:#F08222"/>
			<stop  offset="1" style="stop-color:#F29024"/>
		</linearGradient>
		<path class="st42" d="M99.6,223.6l56.8-56.8l0,0l0.2-0.2l2.3-2.3c-1.2,0.2-2.4,0.4-3.6,0.7c-0.1,0-0.2,0-0.3,0.1
			c-1,0.2-2,0.3-2.9,0.5l-55.5,55.5l-0.2,0.2l-13.7,13.7c1.3,0.6,2.5,1.3,3.8,1.9l13-13L99.6,223.6z"/>
		<linearGradient id="SVGID_45_" gradientUnits="userSpaceOnUse" x1="13.6492" y1="169.5792" x2="625.3973" y2="397.9514">
			<stop  offset="0" style="stop-color:#EB651D"/>
			<stop  offset="0.2995" style="stop-color:#EC6D1E"/>
			<stop  offset="0.7557" style="stop-color:#F08222"/>
			<stop  offset="1" style="stop-color:#F29024"/>
		</linearGradient>
		<path class="st43" d="M80.5,204.5L80.5,204.5l33.6-33.6c-2.1,0.3-4.3,0.5-6.4,0.7l-30.2,30.2l-0.2,0.2l0,0l-19.4,19.4
			c1.2,0.7,2.4,1.4,3.7,2l18.8-18.8L80.5,204.5z"/>
		<linearGradient id="SVGID_46_" gradientUnits="userSpaceOnUse" x1="32.9755" y1="117.8093" x2="644.7236" y2="346.1815">
			<stop  offset="0" style="stop-color:#EB651D"/>
			<stop  offset="0.2995" style="stop-color:#EC6D1E"/>
			<stop  offset="0.7557" style="stop-color:#F08222"/>
			<stop  offset="1" style="stop-color:#F29024"/>
		</linearGradient>
		<path class="st44" d="M223.1,233.5l0.2-0.2l57-57l0.2-0.2l0.2-0.2l51.4-51.4c-2.5,0.6-5,1.1-7.4,1.7l-46.8,46.8l-0.2,0.2l-0.2,0.2
			l-56.8,56.8l0,0l-0.2,0.2l-45.3,45.3c1.4,0.5,2.8,1,4.2,1.6L223.1,233.5L223.1,233.5z"/>
		<linearGradient id="SVGID_47_" gradientUnits="userSpaceOnUse" x1="27.9932" y1="131.1555" x2="639.7413" y2="359.5277">
			<stop  offset="0" style="stop-color:#EB651D"/>
			<stop  offset="0.2995" style="stop-color:#EC6D1E"/>
			<stop  offset="0.7557" style="stop-color:#F08222"/>
			<stop  offset="1" style="stop-color:#F29024"/>
		</linearGradient>
		<path class="st45" d="M204.2,214.3l57-57l0.2-0.2v0l0.2-0.2l20.2-20.2c-2.5,0.6-5.1,1.2-7.6,1.9l-15.7,15.7l0,0l-57,57l-0.2,0.2
			L147.8,265c1.4,0.6,2.7,1.1,4.1,1.6l52.2-52.2L204.2,214.3z"/>
		<linearGradient id="SVGID_48_" gradientUnits="userSpaceOnUse" x1="35.3862" y1="111.3514" x2="647.1344" y2="339.7236">
			<stop  offset="0" style="stop-color:#EB651D"/>
			<stop  offset="0.2995" style="stop-color:#EC6D1E"/>
			<stop  offset="0.7557" style="stop-color:#F08222"/>
			<stop  offset="1" style="stop-color:#F29024"/>
		</linearGradient>
		<path class="st46" d="M232.8,242.8l0.2-0.2l56.8-56.8l0.2-0.2l0.2-0.2l56.8-56.8l0.2-0.2l0.2-0.2l9.1-9.1c-2.4,0.5-4.9,1-7.3,1.6
			l-4.7,4.7l-0.2,0.2l-0.2,0.2l-56.8,56.8l-0.2,0.2l-0.2,0.2l-56.8,56.8L230,240l-0.2,0.2l-40.6,40.6c1.4,0.5,2.8,1,4.2,1.5
			l39.3-39.3L232.8,242.8z"/>
		<linearGradient id="SVGID_49_" gradientUnits="userSpaceOnUse" x1="43.9652" y1="88.3706" x2="655.7134" y2="316.7428">
			<stop  offset="0" style="stop-color:#EB651D"/>
			<stop  offset="0.2995" style="stop-color:#EC6D1E"/>
			<stop  offset="0.7557" style="stop-color:#F08222"/>
			<stop  offset="1" style="stop-color:#F29024"/>
		</linearGradient>
		<path class="st47" d="M270.9,281l57-57l0.2-0.2l0,0l0.2-0.2l57-57l57-57l0.2-0.2l0.2-0.2l5-5c-2.1,0.2-4.3,0.5-6.4,0.7l-1.5,1.5
			l-0.2,0.2l-57,57l-0.2,0.2l-0.2,0.2l-57,57l0,0l-57,57l-0.2,0.2l-21,21c1.5,0.4,3,0.8,4.5,1.2l19.1-19.1L270.9,281z"/>
		<linearGradient id="SVGID_50_" gradientUnits="userSpaceOnUse" x1="39.9215" y1="99.2028" x2="651.6696" y2="327.575">
			<stop  offset="0" style="stop-color:#EB651D"/>
			<stop  offset="0.2995" style="stop-color:#EC6D1E"/>
			<stop  offset="0.7557" style="stop-color:#F08222"/>
			<stop  offset="1" style="stop-color:#F29024"/>
		</linearGradient>
		<path class="st48" d="M251.9,261.9l57.2-57.2l0.2-0.2l0,0l56.8-56.8l0.2-0.2l0.2-0.2l37.2-37.2c-2.3,0.4-4.6,0.8-6.9,1.2
			l-33.2,33.2l-0.2,0.2l-0.2,0.2l-57,57l-0.2,0.2l0,0l-56.8,56.8L249,259l-31.3,31.3c1.4,0.5,2.9,0.9,4.4,1.4l29.6-29.6L251.9,261.9
			z"/>
		<linearGradient id="SVGID_51_" gradientUnits="userSpaceOnUse" x1="9.3209" y1="181.1736" x2="621.069" y2="409.5458">
			<stop  offset="0" style="stop-color:#EB651D"/>
			<stop  offset="0.2995" style="stop-color:#EC6D1E"/>
			<stop  offset="0.7557" style="stop-color:#F08222"/>
			<stop  offset="1" style="stop-color:#F29024"/>
		</linearGradient>
		<path class="st49" d="M-23.6,169.5c1.1,0.8,2.2,1.6,3.3,2.4l2.6-2.6c-1.6-0.3-3.2-0.6-4.8-0.9L-23.6,169.5z"/>
		<linearGradient id="SVGID_52_" gradientUnits="userSpaceOnUse" x1="12.3867" y1="172.9612" x2="624.1348" y2="401.3334">
			<stop  offset="0" style="stop-color:#EB651D"/>
			<stop  offset="0.2995" style="stop-color:#EC6D1E"/>
			<stop  offset="0.7557" style="stop-color:#F08222"/>
			<stop  offset="1" style="stop-color:#F29024"/>
		</linearGradient>
		<path class="st50" d="M70.8,195.2l22.1-22.1c-2.1,0.2-4.1,0.3-6.2,0.5l-18.6,18.6l-0.2,0.2l-22.3,22.3c1.2,0.7,2.4,1.4,3.6,2.1
			l21.3-21.3L70.8,195.2z"/>
		<linearGradient id="SVGID_53_" gradientUnits="userSpaceOnUse" x1="10.5162" y1="177.9716" x2="622.2643" y2="406.3438">
			<stop  offset="0" style="stop-color:#EB651D"/>
			<stop  offset="0.2995" style="stop-color:#EC6D1E"/>
			<stop  offset="0.7557" style="stop-color:#F08222"/>
			<stop  offset="1" style="stop-color:#F29024"/>
		</linearGradient>
		<path class="st51" d="M51.7,176.1l1.2-1.2c-0.7,0-1.4,0-2,0c-0.1,0-0.3,0-0.4,0c-1.1,0-2.2,0-3.3,0l-25.3,25.3
			c1.2,0.7,2.4,1.5,3.5,2.2l26.1-26.1L51.7,176.1z"/>
		<linearGradient id="SVGID_54_" gradientUnits="userSpaceOnUse" x1="9.5019" y1="180.6886" x2="621.2501" y2="409.0608">
			<stop  offset="0" style="stop-color:#EB651D"/>
			<stop  offset="0.2995" style="stop-color:#EC6D1E"/>
			<stop  offset="0.7557" style="stop-color:#F08222"/>
			<stop  offset="1" style="stop-color:#F29024"/>
		</linearGradient>
		<path class="st52" d="M10.9,173.2l-12.1,12.1c1.1,0.8,2.3,1.5,3.4,2.3l13.9-13.9C14.4,173.5,12.6,173.3,10.9,173.2z"/>
		<linearGradient id="SVGID_55_" gradientUnits="userSpaceOnUse" x1="9.904" y1="179.6115" x2="621.6522" y2="407.9837">
			<stop  offset="0" style="stop-color:#EB651D"/>
			<stop  offset="0.2995" style="stop-color:#EC6D1E"/>
			<stop  offset="0.7557" style="stop-color:#F08222"/>
			<stop  offset="1" style="stop-color:#F29024"/>
		</linearGradient>
		<path class="st53" d="M28.7,174.4l-18.4,18.4c1.2,0.8,2.3,1.5,3.5,2.2l20.4-20.4C32.3,174.6,30.5,174.5,28.7,174.4z"/>
		<linearGradient id="SVGID_56_" gradientUnits="userSpaceOnUse" x1="9.3071" y1="181.2106" x2="621.0552" y2="409.5828">
			<stop  offset="0" style="stop-color:#EB651D"/>
			<stop  offset="0.2995" style="stop-color:#EC6D1E"/>
			<stop  offset="0.7557" style="stop-color:#F08222"/>
			<stop  offset="1" style="stop-color:#F29024"/>
		</linearGradient>
		<path class="st54" d="M-6.2,171.1l-6.3,6.3c1.1,0.8,2.2,1.6,3.4,2.3l8-8C-2.8,171.6-4.5,171.4-6.2,171.1z"/>
		<linearGradient id="SVGID_57_" gradientUnits="userSpaceOnUse" x1="15.1413" y1="165.5823" x2="626.8894" y2="393.9545">
			<stop  offset="0" style="stop-color:#EB651D"/>
			<stop  offset="0.2995" style="stop-color:#EC6D1E"/>
			<stop  offset="0.7557" style="stop-color:#F08222"/>
			<stop  offset="1" style="stop-color:#F29024"/>
		</linearGradient>
		<path class="st55" d="M89.7,214.5l0.2-0.2l46.2-46.2c-2.2,0.3-4.5,0.7-6.7,1l-42.2,42.2l0,0l-0.2,0.2l-16.9,16.9
			c1.2,0.7,2.5,1.3,3.7,2L89.7,214.5L89.7,214.5z"/>
		<linearGradient id="SVGID_58_" gradientUnits="userSpaceOnUse" x1="18.767" y1="155.8698" x2="630.5152" y2="384.242">
			<stop  offset="0" style="stop-color:#EB651D"/>
			<stop  offset="0.2995" style="stop-color:#EC6D1E"/>
			<stop  offset="0.7557" style="stop-color:#F08222"/>
			<stop  offset="1" style="stop-color:#F29024"/>
		</linearGradient>
		<path class="st56" d="M108.9,233.3l0.2-0.2l56.8-56.8l0.2-0.2l0.2-0.2l16.2-16.2c-2.4,0.5-4.8,1-7.1,1.4l-11.9,11.9l-0.2,0.2
			l-0.2,0.2l-56.8,56.8l-0.2,0.2l-0.2,0.2l-10.6,10.6c1.3,0.6,2.6,1.2,3.8,1.9l9.6-9.6L108.9,233.3z"/>
	</g>
	<g class="st57">
		<path class="st58" d="M320.1,246.9c-123-23.2-243.2-74.6-344.1-149v154.9h378.7C343.2,251,331.6,249.1,320.1,246.9z"/>
		<path class="st58" d="M679,252.7h1332c-102.1-95.6-214.8-178-348.3-214C1589.2,19,1511.6,14.4,1436.2,25
			c-116,16.3-223.6,67.4-332.4,110.8C967.6,190.1,824.1,233.1,679,252.7z"/>
	</g>
</g>
</svg>
