<?xml version="1.0" encoding="utf-8"?>
<!-- Generator: Adobe Illustrator 23.0.5, SVG Export Plug-In . SVG Version: 6.00 Build 0)  -->
<svg version="1.1" id="Capa_1" xmlns="http://www.w3.org/2000/svg" xmlns:xlink="http://www.w3.org/1999/xlink" x="0px" y="0px"
	 viewBox="0 0 446.6 446.6" style="enable-background:new 0 0 446.6 446.6;" xml:space="preserve">
<style type="text/css">
	.st0{fill:#EB651D;}
</style>
<path class="st0" d="M423,230l-58.2-62.2c-5-5.3-2.3-14.2,4.9-15.6c11.9-2.4,23.3-8.6,32-18.8c16.9-19.8,17.9-49.4,2.3-70.2
	c-20.5-27.5-59.7-30.4-84-7.6c-8,7.4-13.3,16.7-15.9,26.5c-1.9,7.1-10.9,9.2-15.9,3.8L230,23.6l-62.2,58.2c-5.3,5-14.2,2.3-15.6-4.9
	c-2.4-11.9-8.6-23.3-18.8-32C113.6,27.9,84,26.9,63.1,42.5c-27.5,20.5-30.4,59.7-7.6,84c7.4,8,16.7,13.3,26.5,15.9
	c7.1,1.9,9.2,10.9,3.8,15.9l-62.2,58.1l58.2,62.2c5,5.3,2.3,14.2-4.9,15.6c-11.9,2.4-23.3,8.6-32,18.8
	c-16.9,19.8-17.9,49.4-2.3,70.2c20.5,27.5,59.7,30.4,84,7.6c8-7.5,13.3-16.7,15.9-26.5c1.9-7.1,10.9-9.2,15.9-3.8l58.1,62.2L423,230
	z"/>
</svg>
