<?xml version="1.0" encoding="utf-8"?>
<!-- Generator: Adobe Illustrator 23.0.5, SVG Export Plug-In . SVG Version: 6.00 Build 0)  -->
<svg version="1.1" id="Capa_1" xmlns="http://www.w3.org/2000/svg" xmlns:xlink="http://www.w3.org/1999/xlink" x="0px" y="0px"
	 viewBox="0 0 600 600" style="enable-background:new 0 0 600 600;" xml:space="preserve">
<style type="text/css">
	.st0{fill:#FFBF0D;}
	.st1{fill:#989FA5;}
	.st2{fill:#E6E6E6;}
	.st3{fill:#EB651D;}
	.st4{fill:#FFFFFF;}
	.st5{fill:#A2E0E2;}
</style>
<g>
	<g>
		<path class="st0" d="M413.5,412.8l-7.6-4.7l-86.7,30.5l-2.9,8.4c-0.5,1.6-13.1,38.4,7.2,69.2c14.3,21.7,40.2,34,76.8,36.4l7.9,0.5
			l5.8-5.4c27-24.8,39.5-50.5,37.1-76.5C447.7,434.6,414.9,413.7,413.5,412.8z"/>
		<polygon class="st1" points="389,240.2 409.5,357.2 541,390.7 502,279.7 		"/>
		<polygon class="st1" points="436.6,371.1 349.9,387.4 272.1,429 284.8,490 467.4,425.7 		"/>
		<polygon class="st1" points="227.2,297.2 163.9,398.6 203,509.6 284.5,401.2 		"/>
		<path class="st2" d="M238.3,38.3l-12.4-3.4l-7.5,10.4c-3.5,4.8-84.7,118.5-47.9,223.2c22,62.4,90.5,146.8,93.4,150.4l8.2,10.1
			l164.4-57.8l0.1-13c0-4.6,0.6-113.3-21.4-175.7C378.5,77.7,244,39.9,238.3,38.3z"/>
		<g>
			
				<ellipse transform="matrix(0.5669 -0.8238 0.8238 0.5669 -62.602 342.9813)" class="st3" cx="294.9" cy="231" rx="37.1" ry="37.1"/>
			<path class="st4" d="M276.4,178.6c-28.9,10.2-44.2,42-34,70.9c10.2,28.9,42,44.2,70.9,34c28.9-10.2,44.2-42,34-70.9
				C337.2,183.7,305.4,168.4,276.4,178.6z M301,248.5c-9.6,3.4-20.2-1.7-23.6-11.3c-3.4-9.6,1.7-20.2,11.3-23.6
				c9.6-3.4,20.2,1.7,23.6,11.3C315.8,234.5,310.7,245.1,301,248.5z"/>
		</g>
	</g>
	<path class="st5" d="M290.9,552.2c0-5.2-3.9-10-9.5-11.6l-2-0.6l-0.1-1.9c-0.5-8.6-8.3-15.3-17.8-15.3c-8.5,0-15.9,5.5-17.5,13
		l-0.4,1.9l-2.1,0.3c-7.1,1-12.4,6.7-12.4,13.1c0,7.3,6.6,13.3,14.7,13.3h33.5C284.8,564.3,290.9,558.9,290.9,552.2z"/>
	<g>
		<polygon class="st3" points="76.1,281.5 89.8,292 106.2,286.6 100.5,302.9 110.7,316.9 93.4,316.5 83.3,330.5 78.4,313.9 
			61.9,308.6 76.1,298.8 		"/>
		<polygon class="st3" points="60.3,373.2 70.5,375.2 78,368 79.2,378.3 88.3,383.1 78.9,387.5 77.1,397.7 70.1,390.1 59.8,391.5 
			64.9,382.5 		"/>
	</g>
</g>
</svg>
