<?xml version="1.0" encoding="utf-8"?>
<!-- Generator: Adobe Illustrator 23.0.5, SVG Export Plug-In . SVG Version: 6.00 Build 0)  -->
<svg version="1.1" id="Capa_1" xmlns="http://www.w3.org/2000/svg" xmlns:xlink="http://www.w3.org/1999/xlink" x="0px" y="0px"
	 viewBox="0 0 600 600" style="enable-background:new 0 0 600 600;" xml:space="preserve">
<style type="text/css">
	.st0{fill:#FFBF0D;}
	.st1{fill:#EB651D;}
	.st2{fill:#ADB5BD;}
</style>
<g>
	<path class="st0" d="M191.6,192.7c1.1-5,1.7-10.2,1.7-15.5c0-5.2-0.6-10.4-1.7-15.5l2-1.1l12.9-7.3l-7.4-12.6l-7.4-12.6l-7.4-12.6
		l-12.9,7.3l-2,1.1c-3.8-3.4-6.9-6.4-11.5-9c-4.7-2.7-8-4.9-13.7-6.5v-2.2V89.9h-16.9h-14.8H98.4v16.4v2.2
		c-8.6,1.6-10.6,3.8-15.3,6.5c-4.5,2.6-8.9,5.6-12.8,9l-2.1-1.1l-12.9-7.3l-7.5,12.6l-7.4,12.6L33,153.4l12.9,7.3l2,1.1
		c-1.1,5-1.7,10.2-1.7,15.5c0,5.2,0.6,10.4,1.7,15.5l-2,1.1L33,201.1l7.4,12.6l7.4,12.6l7.4,12.6l12.9-7.3l2-1.1
		c3.8,3.4,8.5,6.4,13,9c4.7,2.7,6.7,4.9,15.3,6.5v2.2v15.6h13.8h14.8h16.9v-15.6V246c5.7-1.6,9-3.8,13.7-6.5c4.5-2.6,8.2-5.6,12-9
		l1.7,1.1l12.7,7.3l7.4-12.6l7.4-12.6l7.4-12.6l-12.9-7.3L191.6,192.7z M119.7,218.5c-23.2,0-42.1-18.5-42.1-41.2
		c0-22.7,18.9-41.2,42.1-41.2s42.1,18.5,42.1,41.2C161.8,200,142.9,218.5,119.7,218.5z"/>
	<path class="st1" d="M514.1,408.2c5.3-9.1,9.6-18.8,12.9-29.1c3.3-10.2,5.4-20.6,6.4-31.1l4.5-1l29.1-6.3l-6.3-29.1l-6.3-29.1
		l-6.3-29.1l-29.1,6.3l-4.6,1c-5.1-9-14.3-18.4-21.3-26.2c-7.3-8.2-16.4-15.7-27.3-22.6l1.4-4.4l10.8-33.5l-22.2-7.1l-28.3-9.1
		l-35.8-11.5l-10.8,33.5l-1.4,4.4c-7,1.2-17.9,2.3-28.6,4.7c-10.2,2.3-18.2,6.2-27.6,10.5l-2.2-3.2l-19.5-21.9l-21.8,20.1l-21.9,20
		l-22,20l20,22.1l3.1,3.4c-5.3,9.1-9.6,18.8-12.9,29.1c-3.3,10.2-5.4,20.6-6.4,31.1l-4.5,1l-29.1,6.3l6.3,29.1l6.3,29.1l6.3,29.1
		l29.1-6.3l4.6-1c5.1,9,7.5,16.2,14.5,24c7.3,8.2,15.5,15.4,20.5,20.5l-1.4,4.4l-8.4,26.2l35.8,11.5l28.3,9.1l22.2,7.1l8.4-26.2
		l1.4-4.4c12.9,0.7,24.7-0.2,35.4-2.5c10.2-2.3,21.6-5.1,31-9.4l3.9,3.7l20.4,22.2l22.2-19.9l22.1-20l22.1-20l-20-22L514.1,408.2z
		 M360.8,414.3c-44.3-14.2-68.7-61.8-54.5-106.1c14.2-44.3,61.8-68.7,106.1-54.5c44.3,14.2,68.7,61.8,54.5,106.1
		C452.7,404.1,405.1,428.5,360.8,414.3z"/>
	<polygon class="st2" points="104,402.4 120.5,416.6 141.6,411.1 133.1,431.2 144.9,449.5 123.2,447.7 109.4,464.5 104.4,443.3 
		84.1,435.4 102.7,424.1 	"/>
</g>
</svg>
